<svg width="50" height="50" viewBox="0 0 50 50" fill="none" xmlns="http://www.w3.org/2000/svg">
<g clip-path="url(#clip0_1333_31708)">
<path d="M25.0018 50.0034C38.8099 50.0034 50.0035 38.8097 50.0035 25.0017C50.0035 11.1936 38.8099 0 25.0018 0C11.1937 0 0 11.1936 0 25.0017C0 38.8097 11.1937 50.0034 25.0018 50.0034Z" fill="black"/>
<path d="M19.0995 22.1194H17.4731V14.2418H19.1736L21.6854 18.0342L24.0843 14.2418H25.7636V22.1194H24.1372V17.0182L21.7595 20.6519H21.569L19.0995 16.997V22.1194Z" fill="#725BFF"/>
<path d="M30.9109 19.6076V22.1195H29.2739V19.6076L26.561 14.2418H28.3461L30.11 18.0554L31.9692 14.2418H33.6379L30.9144 19.6076H30.9109Z" fill="#725BFF"/>
<path d="M12.2872 33.5002H8.9181L8.43479 34.7984H6.73438L9.8177 26.9208H11.444L14.5274 34.7984H12.7634L12.2872 33.5002ZM11.8003 32.202L10.6079 28.9493L9.40495 32.202H11.8039H11.8003Z" fill="#725BFF"/>
<path d="M17.0147 26.9208V33.3203H19.7382V34.7984H15.3672V26.9208H17.0147Z" fill="#725BFF"/>
<path d="M23.6083 34.7984H20.7578V26.9208H23.386C25.1923 26.9208 25.8061 27.8169 25.8061 28.9599C25.8061 29.6055 25.4675 30.2264 24.8783 30.6391C25.6615 31.0413 26.1131 31.7786 26.1131 32.6359C26.1131 33.7436 25.3405 34.802 23.6083 34.802V34.7984ZM22.4053 28.2402V30.184H22.9874C23.8306 30.184 24.328 29.7925 24.328 29.1821C24.3174 28.6212 24.0211 28.2437 23.0192 28.2437H22.4053V28.2402ZM22.4053 31.3447V33.479H23.1356C24.1586 33.479 24.4656 33.0239 24.4656 32.4454C24.4656 31.7469 23.9787 31.3482 23.1144 31.3482H22.4053V31.3447Z" fill="#725BFF"/>
<path d="M30.4312 35.0524C28.3921 35.0524 27.2632 33.7436 27.2632 31.4823V26.9208H28.9107V31.821C28.9107 32.9604 29.6409 33.5637 30.4312 33.5637C31.2214 33.5637 31.9517 32.9604 31.9517 31.821V26.9208H33.5886V31.4823C33.5886 33.7436 32.4809 35.0524 30.4312 35.0524Z" fill="#725BFF"/>
<path d="M36.6048 34.7984H34.9785V26.9208H36.6789L39.1907 30.7132L41.5861 26.9208H43.2654V34.7984H41.6391V29.6972L39.2613 33.3309H39.0708L36.6013 29.676V34.7984H36.6048Z" fill="#725BFF"/>
</g>
<defs>
<clipPath id="clip0_1333_31708">
<rect width="50" height="49.9998" fill="white"/>
</clipPath>
</defs>
</svg>
