<svg xmlns="http://www.w3.org/2000/svg" width="25" height="25" fill="none" viewBox="0 0 25 25"><path stroke="#212121" stroke-linecap="round" stroke-linejoin="round" stroke-width="2" d="M4.13519 8.09348H20.1352"/><path stroke="#212121" stroke-linecap="round" stroke-linejoin="round" stroke-width="2" d="M16.1352 3.09348V5.09348"/><path stroke="#212121" stroke-linecap="round" stroke-linejoin="round" stroke-width="2" d="M8.13519 3.09348V5.09348"/><path stroke="#212121" stroke-linecap="round" stroke-linejoin="round" stroke-width="2" d="M3.13519 6.09348C3.13519 4.98891 4.03062 4.09348 5.13519 4.09348H19.1352C20.2398 4.09348 21.1352 4.98891 21.1352 6.09348V19.0935C21.1352 20.198 20.2398 21.0935 19.1352 21.0935H5.13519C4.03062 21.0935 3.13519 20.198 3.13519 19.0935V6.09348Z"/><path stroke="#212121" stroke-linecap="round" stroke-linejoin="round" stroke-width="2" d="M16.1352 16.5935H16.1372V16.5955H16.1352V16.5935Z"/><path stroke="#212121" stroke-linecap="round" stroke-linejoin="round" stroke-width="2" d="M12.1352 16.5935H12.1372V16.5955H12.1352V16.5935Z"/><path stroke="#212121" stroke-linecap="round" stroke-linejoin="round" stroke-width="2" d="M8.13519 16.5935H8.13719V16.5955H8.13519V16.5935Z"/><path stroke="#212121" stroke-linecap="round" stroke-linejoin="round" stroke-width="2" d="M16.1352 12.5935H16.1372V12.5955H16.1352V12.5935Z"/><path stroke="#212121" stroke-linecap="round" stroke-linejoin="round" stroke-width="2" d="M12.1352 12.5935H12.1372V12.5955H12.1352V12.5935Z"/><path stroke="#212121" stroke-linecap="round" stroke-linejoin="round" stroke-width="2" d="M8.13519 12.5935H8.13719V12.5955H8.13519V12.5935Z"/></svg>