<svg width="51" height="51" viewBox="0 0 51 51" fill="none" xmlns="http://www.w3.org/2000/svg">
<path d="M25.0018 50.0034C38.8099 50.0034 50.0035 38.8097 50.0035 25.0017C50.0035 11.1936 38.8099 0 25.0018 0C11.1937 0 0 11.1936 0 25.0017C0 38.8097 11.1937 50.0034 25.0018 50.0034Z" fill="black"/>
<path d="M4.77661 21.0435H9.47569V22.504H6.43822V24.4443H9.1229V25.8942H6.43822V28.9952H4.77661V21.047V21.0435Z" fill="#F6D756"/>
<path d="M12.1603 26.166H12.0544V28.9882H10.3928V21.04H12.5342C14.1429 21.04 15.5399 21.7103 15.5399 23.6295C15.5399 24.7478 14.8379 25.4957 13.9312 25.8767L16.3161 28.9882H14.3228L12.1603 26.166ZM12.0544 22.5217V24.843H12.5766C13.3844 24.843 13.896 24.395 13.896 23.6506C13.896 22.9592 13.4056 22.5217 12.5766 22.5217H12.0544Z" fill="#F6D756"/>
<path d="M17.0466 21.0435H18.6977V28.9916H17.0466V21.0435Z" fill="#F6D756"/>
<path d="M19.8265 21.0435H24.2681V22.504H21.4881V24.2291H24.0035V25.5697H21.4881V27.5311H24.3527V28.9916H19.823V21.0435H19.8265Z" fill="#F6D756"/>
<path d="M27.0513 23.8234V28.9916H25.3896V21.0435H27.0089L30.7273 26.1905V21.0435H32.3783V28.9916H30.7908L27.0513 23.8234Z" fill="#F6D756"/>
<path d="M33.5002 21.0436H35.7792C37.9418 21.0436 39.9456 22.2995 39.9456 25.0053C39.9456 27.7112 37.9735 28.9882 35.8004 28.9882H33.5002V21.04V21.0436ZM35.1619 27.4995H35.8533C37.141 27.4995 38.284 26.6563 38.284 25.0088C38.284 23.3613 37.1445 22.5464 35.8533 22.5358H35.1619V27.4995Z" fill="#F6D756"/>
<path d="M44.7787 22.5747C44.3942 22.3842 43.8297 22.2325 43.3288 22.2325C42.595 22.2325 42.2951 22.5324 42.2951 22.871C42.2951 23.3085 42.6902 23.6154 43.477 24.2998C44.7752 25.4181 45.2232 26.099 45.2232 26.921C45.2232 28.2933 44.0097 29.1153 42.4433 29.1153C41.8365 29.1153 40.9934 28.9777 40.5559 28.7978L40.5771 27.3267C41.0463 27.5595 41.7801 27.7641 42.4539 27.7641C43.1277 27.7641 43.551 27.3796 43.551 26.9668C43.551 26.5188 43.1665 26.1237 42.3057 25.4111C41.0392 24.3351 40.57 23.8024 40.57 22.8852C40.57 21.8515 41.4026 20.8813 43.2441 20.8813C43.7451 20.8813 44.3413 20.9554 44.7999 21.1248L44.7787 22.5747Z" fill="#F6D756"/>
<circle cx="25" cy="25" r="25" fill="#212222" fill-opacity="0.3"/>
<path d="M17 25.0001L21.9497 29.9499L32.5563 19.3433" stroke="white" stroke-width="2" stroke-linecap="round" stroke-linejoin="round"/>
</svg>
