<svg width="144" height="74" viewBox="0 0 144 74" fill="none" xmlns="http://www.w3.org/2000/svg">
<g clip-path="url(#clip0_798_31686)">
<g filter="url(#filter0_d_798_31686)">
<path d="M59.796 72.7214C56.8705 73.8198 53.5982 72.3339 52.4998 69.4084L34.3522 21.0727C33.2538 18.1471 34.7397 14.8748 37.6652 13.7765L72.4113 0.731066C77.0455 -1.00882 82.2316 1.34604 83.9715 5.98019L99.7913 48.1159C101.531 52.75 99.1763 57.9361 94.5421 59.676L59.796 72.7214Z" fill="white"/>
</g>
<path d="M39.0259 17.3984L73.772 4.35302C76.4121 3.36181 79.3591 4.69998 80.3503 7.34004L96.1701 49.4757C97.1613 52.1158 95.8232 55.0628 93.1831 56.054L58.437 69.0994C57.5084 69.448 56.4712 68.9771 56.1226 68.0485L37.975 19.7128C37.6264 18.7842 38.0974 17.747 39.0259 17.3984Z" fill="#725BFF" stroke="#212121" stroke-width="2.06225" stroke-miterlimit="10"/>
<path d="M76.9751 27.5418L86.5808 23.9353L89.9404 32.8835L80.3347 36.49C77.8648 37.4173 75.1081 36.1656 74.1808 33.6957C73.2534 31.2258 74.5052 28.4691 76.9751 27.5418Z" fill="#212121" stroke="#212121" stroke-width="2.06225" stroke-miterlimit="10"/>
<path d="M79.6242 34.1486C80.8346 33.6941 81.4474 32.3445 80.993 31.1341C80.5385 29.9237 79.1889 29.3108 77.9785 29.7653C76.7681 30.2197 76.1553 31.5694 76.6097 32.7798C77.0642 33.9902 78.4138 34.603 79.6242 34.1486Z" fill="#725BFF"/>
<g filter="url(#filter1_d_798_31686)">
<path d="M39.7479 42.1507L45.0194 44.0656C45.1514 44.1135 45.2946 44.123 45.4312 44.0919L50.9026 42.8604C51.4688 42.7325 51.9529 43.282 51.7542 43.8278L49.8394 49.0992C49.7914 49.2312 49.7819 49.3744 49.813 49.511L51.0445 54.9824C51.1724 55.5486 50.6229 56.0327 50.0772 55.834L44.8057 53.9192C44.6737 53.8712 44.5305 53.8617 44.3939 53.8928L38.9225 55.1244C38.3563 55.2522 37.8722 54.7027 38.0709 54.157L39.9858 48.8855C40.0337 48.7535 40.0432 48.6103 40.0121 48.4737L38.7806 43.0023C38.6533 42.4354 39.2022 41.9521 39.7479 42.1507Z" fill="#FDD931"/>
<path d="M39.7479 42.1507L45.0194 44.0656C45.1514 44.1135 45.2946 44.123 45.4312 44.0919L50.9026 42.8604C51.4688 42.7325 51.9529 43.282 51.7542 43.8278L49.8394 49.0992C49.7914 49.2312 49.7819 49.3744 49.813 49.511L51.0445 54.9824C51.1724 55.5486 50.6229 56.0327 50.0772 55.834L44.8057 53.9192C44.6737 53.8712 44.5305 53.8617 44.3939 53.8928L38.9225 55.1244C38.3563 55.2522 37.8722 54.7027 38.0709 54.157L39.9858 48.8855C40.0337 48.7535 40.0432 48.6103 40.0121 48.4737L38.7806 43.0023C38.6533 42.4354 39.2022 41.9521 39.7479 42.1507Z" stroke="white" stroke-width="5.4968" stroke-miterlimit="10" stroke-linecap="round" stroke-linejoin="round"/>
</g>
<path d="M39.7479 42.1507L45.0194 44.0656C45.1514 44.1135 45.2946 44.123 45.4312 44.0919L50.9026 42.8604C51.4688 42.7325 51.9529 43.282 51.7542 43.8278L49.8394 49.0992C49.7914 49.2312 49.7819 49.3744 49.813 49.511L51.0445 54.9824C51.1724 55.5486 50.6229 56.0327 50.0772 55.834L44.8057 53.9192C44.6737 53.8712 44.5305 53.8617 44.3939 53.8928L38.9225 55.1244C38.3563 55.2522 37.8722 54.7027 38.0709 54.157L39.9858 48.8855C40.0337 48.7535 40.0432 48.6103 40.0121 48.4737L38.7806 43.0023C38.6533 42.4354 39.2022 41.9521 39.7479 42.1507Z" fill="#44C1F3" stroke="#212121" stroke-width="1.75301" stroke-miterlimit="10" stroke-linecap="round" stroke-linejoin="round"/>
<g filter="url(#filter2_d_798_31686)">
<path d="M100.581 3.47029L102.787 7.48413C102.842 7.58465 102.925 7.66757 103.025 7.72203L107.048 9.91157C107.464 10.1379 107.466 10.7359 107.05 10.9641L103.036 13.1699C102.936 13.2251 102.853 13.3079 102.798 13.4085L100.609 17.4311C100.382 17.8476 99.7843 17.849 99.5561 17.4332L97.3503 13.4194C97.2951 13.3188 97.2122 13.2359 97.1116 13.1815L93.0891 10.9919C92.6726 10.7656 92.6712 10.1676 93.087 9.93943L97.1008 7.73362C97.2014 7.67838 97.2843 7.59554 97.3387 7.49495L99.5283 3.47239C99.7553 3.05572 100.353 3.05449 100.581 3.47029Z" fill="#FDD931"/>
<path d="M100.581 3.47029L102.787 7.48413C102.842 7.58465 102.925 7.66757 103.025 7.72203L107.048 9.91157C107.464 10.1379 107.466 10.7359 107.05 10.9641L103.036 13.1699C102.936 13.2251 102.853 13.3079 102.798 13.4085L100.609 17.4311C100.382 17.8476 99.7843 17.849 99.5561 17.4332L97.3503 13.4194C97.2951 13.3188 97.2122 13.2359 97.1116 13.1815L93.0891 10.9919C92.6726 10.7656 92.6712 10.1676 93.087 9.93943L97.1008 7.73362C97.2014 7.67838 97.2843 7.59554 97.3387 7.49495L99.5283 3.47239C99.7553 3.05572 100.353 3.05449 100.581 3.47029Z" stroke="white" stroke-width="5.4968" stroke-miterlimit="10" stroke-linecap="round" stroke-linejoin="round"/>
</g>
<path d="M100.581 3.47029L102.787 7.48413C102.842 7.58465 102.925 7.66757 103.025 7.72203L107.048 9.91157C107.464 10.1379 107.466 10.7359 107.05 10.9641L103.036 13.1699C102.936 13.2251 102.853 13.3079 102.798 13.4085L100.609 17.4311C100.382 17.8476 99.7843 17.849 99.5561 17.4332L97.3503 13.4194C97.2951 13.3188 97.2122 13.2359 97.1116 13.1815L93.0891 10.9919C92.6726 10.7656 92.6712 10.1676 93.087 9.93943L97.1008 7.73362C97.2014 7.67838 97.2843 7.59554 97.3387 7.49495L99.5283 3.47239C99.7553 3.05572 100.353 3.05449 100.581 3.47029Z" fill="#FDD931" stroke="#212121" stroke-width="1.75301" stroke-miterlimit="10" stroke-linecap="round" stroke-linejoin="round"/>
<g filter="url(#filter3_d_798_31686)">
<path d="M113.457 18.3122L115.663 22.326C115.718 22.4266 115.801 22.5095 115.901 22.5639L119.924 24.7535C120.34 24.9798 120.342 25.5778 119.926 25.806L115.912 28.0118C115.812 28.067 115.729 28.1499 115.674 28.2505L113.485 32.273C113.258 32.6895 112.66 32.6909 112.432 32.2751L110.226 28.2613C110.171 28.1608 110.088 28.0778 109.988 28.0234L105.965 25.8338C105.549 25.6075 105.547 25.0095 105.963 24.7814L109.977 22.5755C110.077 22.5203 110.16 22.4375 110.215 22.3369L112.404 18.3143C112.631 17.8976 113.229 17.8964 113.457 18.3122Z" fill="#FDD931"/>
<path d="M113.457 18.3122L115.663 22.326C115.718 22.4266 115.801 22.5095 115.901 22.5639L119.924 24.7535C120.34 24.9798 120.342 25.5778 119.926 25.806L115.912 28.0118C115.812 28.067 115.729 28.1499 115.674 28.2505L113.485 32.273C113.258 32.6895 112.66 32.6909 112.432 32.2751L110.226 28.2613C110.171 28.1608 110.088 28.0778 109.988 28.0234L105.965 25.8338C105.549 25.6075 105.547 25.0095 105.963 24.7814L109.977 22.5755C110.077 22.5203 110.16 22.4375 110.215 22.3369L112.404 18.3143C112.631 17.8976 113.229 17.8964 113.457 18.3122Z" stroke="white" stroke-width="5.4968" stroke-miterlimit="10" stroke-linecap="round" stroke-linejoin="round"/>
</g>
<path d="M113.457 18.3122L115.663 22.326C115.718 22.4266 115.801 22.5095 115.901 22.5639L119.924 24.7535C120.34 24.9798 120.342 25.5778 119.926 25.806L115.912 28.0118C115.812 28.067 115.729 28.1499 115.674 28.2505L113.485 32.273C113.258 32.6895 112.66 32.6909 112.432 32.2751L110.226 28.2613C110.171 28.1608 110.088 28.0778 109.988 28.0234L105.965 25.8338C105.549 25.6075 105.547 25.0095 105.963 24.7814L109.977 22.5755C110.077 22.5203 110.16 22.4375 110.215 22.3369L112.404 18.3143C112.631 17.8976 113.229 17.8964 113.457 18.3122Z" fill="#55E99F" stroke="#212121" stroke-width="1.75301" stroke-miterlimit="10" stroke-linecap="round" stroke-linejoin="round"/>
</g>
<defs>
<filter id="filter0_d_798_31686" x="33.2202" y="-0.150191" width="67.9144" height="74.4657" filterUnits="userSpaceOnUse" color-interpolation-filters="sRGB">
<feFlood flood-opacity="0" result="BackgroundImageFix"/>
<feColorMatrix in="SourceAlpha" type="matrix" values="0 0 0 0 0 0 0 0 0 0 0 0 0 0 0 0 0 0 127 0" result="hardAlpha"/>
<feOffset dy="0.462042"/>
<feGaussianBlur stdDeviation="0.385035"/>
<feComposite in2="hardAlpha" operator="out"/>
<feColorMatrix type="matrix" values="0 0 0 0 0 0 0 0 0 0 0 0 0 0 0 0 0 0 0.18 0"/>
<feBlend mode="normal" in2="BackgroundImageFix" result="effect1_dropShadow_798_31686"/>
<feBlend mode="normal" in="SourceGraphic" in2="effect1_dropShadow_798_31686" result="shape"/>
</filter>
<filter id="filter1_d_798_31686" x="34.5026" y="39.0443" width="20.8197" height="20.82" filterUnits="userSpaceOnUse" color-interpolation-filters="sRGB">
<feFlood flood-opacity="0" result="BackgroundImageFix"/>
<feColorMatrix in="SourceAlpha" type="matrix" values="0 0 0 0 0 0 0 0 0 0 0 0 0 0 0 0 0 0 127 0" result="hardAlpha"/>
<feOffset dy="0.462042"/>
<feGaussianBlur stdDeviation="0.385035"/>
<feComposite in2="hardAlpha" operator="out"/>
<feColorMatrix type="matrix" values="0 0 0 0 0 0 0 0 0 0 0 0 0 0 0 0 0 0 0.18 0"/>
<feBlend mode="normal" in2="BackgroundImageFix" result="effect1_dropShadow_798_31686"/>
<feBlend mode="normal" in="SourceGraphic" in2="effect1_dropShadow_798_31686" result="shape"/>
</filter>
<filter id="filter2_d_798_31686" x="89.2575" y="0.102738" width="21.6219" height="21.6221" filterUnits="userSpaceOnUse" color-interpolation-filters="sRGB">
<feFlood flood-opacity="0" result="BackgroundImageFix"/>
<feColorMatrix in="SourceAlpha" type="matrix" values="0 0 0 0 0 0 0 0 0 0 0 0 0 0 0 0 0 0 127 0" result="hardAlpha"/>
<feOffset dy="0.462042"/>
<feGaussianBlur stdDeviation="0.385035"/>
<feComposite in2="hardAlpha" operator="out"/>
<feColorMatrix type="matrix" values="0 0 0 0 0 0 0 0 0 0 0 0 0 0 0 0 0 0 0.18 0"/>
<feBlend mode="normal" in2="BackgroundImageFix" result="effect1_dropShadow_798_31686"/>
<feBlend mode="normal" in="SourceGraphic" in2="effect1_dropShadow_798_31686" result="shape"/>
</filter>
<filter id="filter3_d_798_31686" x="102.133" y="14.9447" width="21.6219" height="21.6221" filterUnits="userSpaceOnUse" color-interpolation-filters="sRGB">
<feFlood flood-opacity="0" result="BackgroundImageFix"/>
<feColorMatrix in="SourceAlpha" type="matrix" values="0 0 0 0 0 0 0 0 0 0 0 0 0 0 0 0 0 0 127 0" result="hardAlpha"/>
<feOffset dy="0.462042"/>
<feGaussianBlur stdDeviation="0.385035"/>
<feComposite in2="hardAlpha" operator="out"/>
<feColorMatrix type="matrix" values="0 0 0 0 0 0 0 0 0 0 0 0 0 0 0 0 0 0 0.18 0"/>
<feBlend mode="normal" in2="BackgroundImageFix" result="effect1_dropShadow_798_31686"/>
<feBlend mode="normal" in="SourceGraphic" in2="effect1_dropShadow_798_31686" result="shape"/>
</filter>
<clipPath id="clip0_798_31686">
<rect width="144" height="74" fill="white"/>
</clipPath>
</defs>
</svg>
