<svg xmlns="http://www.w3.org/2000/svg" width="25" height="25" fill="none" viewBox="0 0 25 25"><path stroke="#212121" stroke-linecap="round" stroke-linejoin="round" stroke-width="2" d="M16.5352 8.328C16.5352 6.88522 15.9452 5.50154 14.895 4.48134C13.8448 3.46114 12.4204 2.888 10.9352 2.888C9.45 2.888 8.02562 3.46114 6.97542 4.48134C5.92522 5.50154 5.33522 6.88522 5.33522 8.328C5.33522 14.6747 2.53522 16.488 2.53522 16.488H19.3352C19.3352 16.488 16.5352 14.6747 16.5352 8.328Z"/><path stroke="#212121" stroke-linecap="round" stroke-linejoin="round" stroke-width="2" d="M12.9352 20.5857C12.732 20.829 12.4403 21.031 12.0893 21.1714C11.7383 21.3118 11.3403 21.3857 10.9352 21.3857C10.5302 21.3857 10.1322 21.3118 9.78122 21.1714C9.43022 21.031 9.13849 20.829 8.93524 20.5857"/><circle cx="18.228" cy="4.093" r="3.4" fill="#725BFF" stroke="#fff" stroke-width="1.2"/></svg>