<svg width="197" height="195" viewBox="0 0 197 195" fill="none" xmlns="http://www.w3.org/2000/svg">
<g filter="url(#filter0_d_1349_24901)">
<path d="M100.614 123C99.771 123 98.907 122.985 98.0459 122.958C81.3228 122.759 68.8933 117.95 60.0496 108.258C51.6924 99.1032 47.1482 86.0661 46.1574 68.4011V68.3506L46.1456 68.1813C45.1636 42.4398 49.1417 25.1937 58.3038 15.4597C63.4054 10.0387 70.1112 7.11585 77.6986 7H78.023C85.0148 7 91.1397 9.40899 95.7311 13.9686C96.1174 14.3517 96.4919 14.7527 96.8575 15.1656C97.0404 14.9577 97.2291 14.7527 97.4208 14.5508C101.753 9.98525 107.515 7.57032 114.082 7.57032C114.527 7.57032 114.981 7.5822 115.433 7.60299C121.575 7.91488 126.895 10.4516 130.823 14.9399C136.853 21.8312 139.431 32.9019 138.667 48.7252C141.654 51.9035 144.122 55.566 146.024 59.6503C150.409 69.0635 151.197 79.8431 148.239 90.0018C145.169 100.975 139.145 109.437 130.333 115.158C122.321 120.359 112.324 122.997 100.614 122.997V123Z" fill="white"/>
<path d="M129.565 52.4611C131.022 29.7446 126.771 19.4492 115.493 17.6234C103.776 17.2256 98.7921 26.1584 98.7716 44.2051C98.7921 25.6656 90.7707 17.6323 77.0924 17C61.7252 18.8109 54.024 34.1769 55.099 65.0602C54.7671 90.7632 64.4098 106.108 82.7288 112.447C102.942 115.584 124.431 115.926 137.204 94.1148C144.107 76.2166 141.616 62.3082 129.565 52.464V52.4611Z" fill="#725BFF"/>
<path d="M77.8929 53.506C89.0925 43.5844 106.505 41.3733 123.115 48.1737C136.665 54.0282 145.636 70.7949 140.565 88.1882C135.608 105.975 121.262 115.706 98.7295 114.96C70.017 114.647 56.8402 98.9811 55.1383 68.36C53.8153 33.7494 62.0168 16.2456 78.2451 16.0009C93.0024 15.8667 97.1578 30.0045 97.2289 44.1006" stroke="black" stroke-width="3.96871" stroke-linecap="round" stroke-linejoin="round"/>
<path d="M98.2507 43.1459C96.5992 25.7092 103.217 15.4468 114.868 16.023C127.304 16.6524 131.218 30.6497 129.684 51" stroke="black" stroke-width="3.96871" stroke-linecap="round" stroke-linejoin="round"/>
<path d="M107.5 77C109.433 77 111 75.433 111 73.5C111 71.567 109.433 70 107.5 70C105.567 70 104 71.567 104 73.5C104 75.433 105.567 77 107.5 77Z" fill="black"/>
<path d="M123.5 77C125.433 77 127 75.433 127 73.5C127 71.567 125.433 70 123.5 70C121.567 70 120 71.567 120 73.5C120 75.433 121.567 77 123.5 77Z" fill="black"/>
</g>
<path d="M8.19026 194.1H8.28989V194V179.854C10.5278 182.535 13.8275 184.229 17.6508 184.229C24.7019 184.229 30.0996 178.15 30.0996 170.463C30.0996 162.774 24.7 156.9 17.6508 156.9C13.4822 156.9 10.0871 158.685 7.88224 161.558V157.907V157.807H7.7826H1H0.900363V157.907V194V194.1H1H8.19026ZM22.4079 170.561C22.4079 174.558 19.3646 177.752 15.3243 177.752C11.2272 177.752 8.13527 174.459 8.13527 170.561C8.13527 166.664 11.283 163.371 15.3243 163.371C19.3646 163.371 22.4079 166.565 22.4079 170.561Z" fill="black" stroke="black" stroke-width="0.199274"/>
<path d="M45.9752 185.1C54.612 185.1 61.0996 178.88 61.0996 171C61.0996 163.12 54.5621 156.9 45.9752 156.9C37.3878 156.9 30.9004 163.12 30.9004 171C30.9004 178.88 37.3379 185.1 45.9752 185.1ZM45.9752 178.613C41.7917 178.613 38.715 175.244 38.715 171C38.715 166.813 41.7921 163.387 45.9752 163.387C50.1594 163.387 53.285 166.764 53.285 171C53.285 175.236 50.1594 178.613 45.9752 178.613Z" fill="black" stroke="black" stroke-width="0.199274"/>
<path d="M70.1903 194.1H70.2899V194V179.854C72.5278 182.535 75.8275 184.229 79.6507 184.229C86.7019 184.229 92.0996 178.15 92.0996 170.463C92.0996 162.774 86.7 156.9 79.6507 156.9C75.4822 156.9 72.0871 158.685 69.8822 161.558V157.907V157.807H69.7826H63H62.9004V157.907V194V194.1H63H70.1903ZM84.4079 170.561C84.4079 174.558 81.3646 177.752 77.3243 177.752C73.2272 177.752 70.1353 174.459 70.1353 170.561C70.1353 166.664 73.283 163.371 77.3243 163.371C81.3646 163.371 84.4079 166.565 84.4079 170.561Z" fill="black" stroke="black" stroke-width="0.199274"/>
<path d="M100.131 183.1H100.172L100.201 183.071L100.208 183.064L100.238 183.034V182.993V168.447C100.238 165.517 102.84 163.798 105.108 163.798C106.395 163.798 107.559 164.144 108.401 164.94C109.242 165.736 109.776 166.994 109.776 168.85V183V183.1H109.876H117H117.1V183V166.649C117.1 163.776 116.137 161.437 114.521 159.817C112.906 158.196 110.645 157.301 108.064 157.301C104.353 157.301 101.587 159.125 100.028 160.925V144V143.9H99.9288H93H92.9004V144V183V183.1H93H100.131Z" fill="black" stroke="black" stroke-width="0.199274"/>
<path d="M134.975 185.1C143.612 185.1 150.1 178.88 150.1 171C150.1 163.12 143.562 156.9 134.975 156.9C126.388 156.9 119.9 163.12 119.9 171C119.9 178.88 126.338 185.1 134.975 185.1ZM134.975 178.613C130.792 178.613 127.715 175.244 127.715 171C127.715 166.813 130.792 163.387 134.975 163.387C139.159 163.387 142.285 166.764 142.285 171C142.285 175.236 139.159 178.613 134.975 178.613Z" fill="black" stroke="black" stroke-width="0.199274"/>
<path d="M158.194 183.1H158.293V183V182.993V170.324C158.293 169.394 158.905 168.252 160.018 167.338C161.129 166.427 162.729 165.752 164.684 165.752C164.881 165.752 165.13 165.764 165.366 165.794C165.605 165.825 165.82 165.874 165.955 165.942L166.1 166.014V165.853V158V157.9H166H165.141C163.257 157.9 161.651 158.785 160.404 159.907C159.311 160.891 158.488 162.063 157.991 162.997V158.152V158.052H157.891H151H150.9V158.152V183V183.1H151H158.194Z" fill="black" stroke="black" stroke-width="0.199274"/>
<path d="M182.419 194.1H182.661L182.528 193.968L196.093 158.035L196.144 157.9H196H188.524H188.453L188.43 157.967L182.208 175.538L175.233 157.963L175.208 157.9H175.14H167H166.847L166.909 158.041L178.495 184.055L174.849 193.966L174.8 194.1H174.942H182.419Z" fill="black" stroke="black" stroke-width="0.199274"/>
<defs>
<filter id="filter0_d_1349_24901" x="38.3049" y="0.587403" width="119.39" height="131.39" filterUnits="userSpaceOnUse" color-interpolation-filters="sRGB">
<feFlood flood-opacity="0" result="BackgroundImageFix"/>
<feColorMatrix in="SourceAlpha" type="matrix" values="0 0 0 0 0 0 0 0 0 0 0 0 0 0 0 0 0 0 127 0" result="hardAlpha"/>
<feMorphology radius="1.28252" operator="dilate" in="SourceAlpha" result="effect1_dropShadow_1349_24901"/>
<feOffset dy="1.28252"/>
<feGaussianBlur stdDeviation="3.2063"/>
<feComposite in2="hardAlpha" operator="out"/>
<feColorMatrix type="matrix" values="0 0 0 0 0 0 0 0 0 0 0 0 0 0 0 0 0 0 0.16 0"/>
<feBlend mode="normal" in2="BackgroundImageFix" result="effect1_dropShadow_1349_24901"/>
<feBlend mode="normal" in="SourceGraphic" in2="effect1_dropShadow_1349_24901" result="shape"/>
</filter>
</defs>
</svg>
