<svg width="24" height="25" viewBox="0 0 24 25" fill="none" xmlns="http://www.w3.org/2000/svg">
<path d="M20 2.09351H4C2.89543 2.09351 2 2.98894 2 4.09351V8.09351C2 9.19808 2.89543 10.0935 4 10.0935H20C21.1046 10.0935 22 9.19808 22 8.09351V4.09351C22 2.98894 21.1046 2.09351 20 2.09351Z" stroke="#B8B9BE" stroke-width="2" stroke-linecap="round" stroke-linejoin="round"/>
<path d="M20 14.0935H4C2.89543 14.0935 2 14.9889 2 16.0935V20.0935C2 21.1981 2.89543 22.0935 4 22.0935H20C21.1046 22.0935 22 21.1981 22 20.0935V16.0935C22 14.9889 21.1046 14.0935 20 14.0935Z" stroke="#B8B9BE" stroke-width="2" stroke-linecap="round" stroke-linejoin="round"/>
<path d="M18 18.0935H18.002V18.0955H18V18.0935Z" stroke="#B8B9BE" stroke-width="2" stroke-linecap="round" stroke-linejoin="round"/>
<path d="M18 6.09351H18.002V6.09551H18V6.09351Z" stroke="#B8B9BE" stroke-width="2" stroke-linecap="round" stroke-linejoin="round"/>
</svg>
