<svg width="43" height="43" viewBox="0 0 43 43" fill="none" xmlns="http://www.w3.org/2000/svg">
<g clip-path="url(#clip0_1049_8415)">
<path d="M29 4H13C11.8954 4 11 4.89543 11 6V10C11 11.1046 11.8954 12 13 12H29C30.1046 12 31 11.1046 31 10V6C31 4.89543 30.1046 4 29 4Z" stroke="#B8B9BE" stroke-width="2" stroke-linecap="round" stroke-linejoin="round"/>
<path d="M29 16H13C11.8954 16 11 16.8954 11 18V22C11 23.1046 11.8954 24 13 24H29C30.1046 24 31 23.1046 31 22V18C31 16.8954 30.1046 16 29 16Z" stroke="#B8B9BE" stroke-width="2" stroke-linecap="round" stroke-linejoin="round"/>
<path d="M27 20H27.002V20.002H27V20Z" stroke="#B8B9BE" stroke-width="2" stroke-linecap="round" stroke-linejoin="round"/>
<path d="M27 8H27.002V8.002H27V8Z" stroke="#B8B9BE" stroke-width="2" stroke-linecap="round" stroke-linejoin="round"/>
<path d="M13.9362 31.4141V42.0781H12.4948V36.7461H11.4987V41.5625H10.0924V31.5898H11.4987V35.5391H12.4948V31.4141H13.9362ZM5.17055 39.4766V32.5977H6.67055V38.1699C7.52602 38.1465 8.46938 38.0703 9.49477 37.8711L9.64711 39.1602C8.21742 39.4062 6.99867 39.4824 5.89711 39.4766H5.17055ZM21.4249 33.8281C21.4308 35.832 22.2394 37.7832 24.0148 38.5508L23.1007 39.7461C21.9171 39.1719 21.1202 38.1055 20.6749 36.7871C20.2179 38.1875 19.3976 39.3359 18.1788 39.9336L17.2413 38.7148C19.0695 37.8887 19.9015 35.832 19.9132 33.8281V32.2344H21.4249V33.8281ZM22.8195 35.9727V34.7656H24.9171V31.4141H26.3937V42.1016H24.9171V35.9727H22.8195ZM35.9857 31.4258V33.7578H37.4271V35H35.9857V37.3203H34.4857V31.4258H35.9857ZM27.8998 33.0898V31.8945H32.7982V35.0586H29.3998V35.9492C31.1576 35.9375 32.3529 35.8789 33.7123 35.6094L33.8763 36.8164C32.347 37.1035 30.9759 37.168 28.8138 37.168H27.9115V33.9219H31.3451V33.0898H27.8998ZM29.0013 41.9609V37.7422H30.4896V38.7148H34.4857V37.7422H35.9857V41.9609H29.0013ZM30.4896 40.7656H34.4857V39.875H30.4896V40.7656Z" fill="#B8B9BE"/>
</g>
<defs>
<clipPath id="clip0_1049_8415">
<rect width="43" height="43" fill="white"/>
</clipPath>
</defs>
</svg>
