<svg width="98" height="34" viewBox="0 0 98 34" fill="none" xmlns="http://www.w3.org/2000/svg">
<g clip-path="url(#clip0_1017_21836)">
<path d="M4.20106 29.4124H4.25035V29.3631V22.372C5.35708 23.6969 6.98896 24.5344 8.87972 24.5344C12.3668 24.5344 15.0363 21.5298 15.0363 17.731C15.0363 13.9311 12.3659 11.0283 8.87972 11.0283C6.81819 11.0283 5.13914 11.9104 4.04874 13.3303V11.5258V11.4765H3.99945H0.645142H0.595853V11.5258V29.3631V29.4124H0.645142H4.20106ZM11.2323 17.7796C11.2323 19.7548 9.72731 21.3332 7.72917 21.3332C5.70297 21.3332 4.17388 19.7059 4.17388 17.7796C4.17388 15.8536 5.73053 14.226 7.72917 14.226C9.72731 14.226 11.2323 15.8045 11.2323 17.7796Z" fill="black" stroke="black" stroke-width="0.098578"/>
<path d="M22.9434 24.6835C27.1736 24.6835 30.3513 21.6381 30.3513 17.7793C30.3513 13.9205 27.1492 10.8751 22.9434 10.8751C18.7374 10.8751 15.5598 13.9207 15.5598 17.7793C15.5598 21.6379 18.7129 24.6835 22.9434 24.6835ZM22.9434 21.5067C20.8947 21.5067 19.3881 19.857 19.3881 17.7793C19.3881 15.7293 20.895 14.052 22.9434 14.052C24.9924 14.052 26.523 15.7056 26.523 17.7793C26.523 19.8531 24.9924 21.5067 22.9434 21.5067Z" fill="black" stroke="black" stroke-width="0.098578"/>
<path d="M34.7112 29.4124H34.7605V29.3631V22.372C35.8672 23.6969 37.4991 24.5344 39.3898 24.5344C42.8769 24.5344 45.5464 21.5298 45.5464 17.731C45.5464 13.9311 42.876 11.0283 39.3898 11.0283C37.3283 11.0283 35.6493 11.9104 34.5589 13.3303V11.5258V11.4765H34.5096H31.1553H31.106V11.5258V29.3631V29.4124H31.1553H34.7112ZM41.7425 17.7796C41.7425 19.7548 40.2374 21.3332 38.2393 21.3332C36.2131 21.3332 34.684 19.7059 34.684 17.7796C34.684 15.8536 36.2407 14.226 38.2393 14.226C40.2374 14.226 41.7425 15.8045 41.7425 17.7796Z" fill="black" stroke="black" stroke-width="0.098578"/>
<path d="M49.9816 24.0857H50.0021L50.0165 24.0713L50.02 24.0678L50.0344 24.0534V24.033V16.7542C50.0344 15.2875 51.3326 14.427 52.4635 14.427C53.1051 14.427 53.6858 14.6002 54.1058 14.9989C54.5253 15.3971 54.7918 16.0271 54.7918 16.9557V24.0365V24.0857H54.841H58.3935H58.4428V24.0365V15.8543C58.4428 14.4168 57.9626 13.2468 57.1571 12.436C56.3518 11.6253 55.2246 11.1772 53.9373 11.1772C52.0865 11.1772 50.707 12.0905 49.9301 12.9913V4.521V4.47171H49.8808H46.4257H46.3764V4.521V24.0365V24.0857H46.4257H49.9816Z" fill="black" stroke="black" stroke-width="0.098578"/>
<path d="M66.7222 24.6835C70.9525 24.6835 74.1302 21.6381 74.1302 17.7793C74.1302 13.9205 70.928 10.8751 66.7222 10.8751C62.5162 10.8751 59.3387 13.9207 59.3387 17.7793C59.3387 21.6379 62.4918 24.6835 66.7222 24.6835ZM66.7222 21.5067C64.6736 21.5067 63.1669 19.857 63.1669 17.7793C63.1669 15.7293 64.6738 14.052 66.7222 14.052C68.7713 14.052 70.3019 15.7056 70.3019 17.7793C70.3019 19.8531 68.7713 21.5067 66.7222 21.5067Z" fill="black" stroke="black" stroke-width="0.098578"/>
<path d="M78.4894 24.0857H78.5387V24.0364V24.0329V17.654C78.5387 17.1851 78.8409 16.6098 79.3909 16.1496C79.9393 15.6909 80.7293 15.3512 81.6942 15.3512C81.7916 15.3512 81.9145 15.3572 82.0311 15.3725C82.149 15.388 82.255 15.4123 82.3218 15.4465L82.3935 15.4832V15.4026V11.4488V11.3995H82.3443H81.9202C80.9895 11.3995 80.1961 11.8452 79.5805 12.4101C79.0409 12.9053 78.6349 13.4948 78.3892 13.9649V11.5253V11.476H78.3399H74.937H74.8877V11.5253V24.0364V24.0857H74.937H78.4894Z" fill="black" stroke="black" stroke-width="0.098578"/>
<path d="M90.5682 29.4121H90.6873L90.622 29.3469L97.2952 11.5393L97.3201 11.4727H97.249H93.5714H93.5365L93.5249 11.5056L90.4648 20.2126L87.0338 11.5039L87.0215 11.4727H86.988H82.9836H82.908L82.9386 11.5419L88.6381 24.4344L86.8443 29.3459L86.8202 29.4121H86.8906H90.5682Z" fill="black" stroke="black" stroke-width="0.098578"/>
</g>
<defs>
<clipPath id="clip0_1017_21836">
<rect width="98" height="34" fill="white"/>
</clipPath>
</defs>
</svg>
