<svg width="98" height="26" viewBox="0 0 98 26" fill="none" xmlns="http://www.w3.org/2000/svg">
<path d="M4.20118 25.4123H4.25047V25.3631V18.3719C5.3572 19.6969 6.98908 20.5343 8.87984 20.5343C12.3669 20.5343 15.0364 17.5297 15.0364 13.7309C15.0364 9.93106 12.366 7.02823 8.87984 7.02823C6.81831 7.02823 5.13926 7.91033 4.04886 9.33022V7.52571V7.47642H3.99958H0.645264H0.595975V7.52571V25.3631V25.4123H0.645264H4.20118ZM11.2324 13.7795C11.2324 15.7547 9.72743 17.3332 7.72929 17.3332C5.70309 17.3332 4.174 15.7058 4.174 13.7795C4.174 11.8536 5.73065 10.2259 7.72929 10.2259C9.72743 10.2259 11.2324 11.8044 11.2324 13.7795Z" fill="black" stroke="black" stroke-width="0.098578"/>
<path d="M22.9434 20.6835C27.1737 20.6835 30.3513 17.6381 30.3513 13.7793C30.3513 9.92045 27.1492 6.87515 22.9434 6.87515C18.7374 6.87515 15.5598 9.92066 15.5598 13.7793C15.5598 17.6379 18.713 20.6835 22.9434 20.6835ZM22.9434 17.5067C20.8948 17.5067 19.3881 15.857 19.3881 13.7793C19.3881 11.7293 20.895 10.052 22.9434 10.052C24.9925 10.052 26.5231 11.7056 26.5231 13.7793C26.5231 15.8531 24.9925 17.5067 22.9434 17.5067Z" fill="black" stroke="black" stroke-width="0.098578"/>
<path d="M34.7112 25.4123H34.7605V25.3631V18.3719C35.8672 19.6969 37.4991 20.5343 39.3898 20.5343C42.8769 20.5343 45.5464 17.5297 45.5464 13.7309C45.5464 9.93106 42.876 7.02823 39.3898 7.02823C37.3283 7.02823 35.6493 7.91033 34.5589 9.33022V7.52571V7.47642H34.5096H31.1553H31.106V7.52571V25.3631V25.4123H31.1553H34.7112ZM41.7425 13.7795C41.7425 15.7547 40.2374 17.3332 38.2393 17.3332C36.2131 17.3332 34.684 15.7058 34.684 13.7795C34.684 11.8536 36.2407 10.2259 38.2393 10.2259C40.2374 10.2259 41.7425 11.8044 41.7425 13.7795Z" fill="black" stroke="black" stroke-width="0.098578"/>
<path d="M49.9817 20.0857H50.0021L50.0166 20.0713L50.02 20.0678L50.0345 20.0533V20.0329V12.7541C50.0345 11.2874 51.3327 10.427 52.4635 10.427C53.1052 10.427 53.6859 10.6001 54.1059 10.9989C54.5254 11.3971 54.7918 12.0271 54.7918 12.9557V20.0364V20.0857H54.8411H58.3936H58.4428V20.0364V11.8543C58.4428 10.4168 57.9626 9.24676 57.1572 8.43596C56.3518 7.62525 55.2247 7.17716 53.9374 7.17716C52.0865 7.17716 50.707 8.09043 49.9302 8.99127V0.520935V0.471646H49.8809H46.4258H46.3765V0.520935V20.0364V20.0857H46.4258H49.9817Z" fill="black" stroke="black" stroke-width="0.098578"/>
<path d="M66.7225 20.6835C70.9527 20.6835 74.1304 17.6381 74.1304 13.7793C74.1304 9.92045 70.9283 6.87515 66.7225 6.87515C62.5165 6.87515 59.3389 9.92066 59.3389 13.7793C59.3389 17.6379 62.492 20.6835 66.7225 20.6835ZM66.7225 17.5067C64.6738 17.5067 63.1672 15.857 63.1672 13.7793C63.1672 11.7293 64.6741 10.052 66.7225 10.052C68.7715 10.052 70.3021 11.7056 70.3021 13.7793C70.3021 15.8531 68.7715 17.5067 66.7225 17.5067Z" fill="black" stroke="black" stroke-width="0.098578"/>
<path d="M78.4895 20.0857H78.5387V20.0364V20.0329V13.654C78.5387 13.1851 78.8409 12.6097 79.3909 12.1496C79.9393 11.6908 80.7294 11.3511 81.6943 11.3511C81.7916 11.3511 81.9146 11.3571 82.0311 11.3724C82.1491 11.3879 82.255 11.4123 82.3219 11.4465L82.3936 11.4832V11.4026V7.44879V7.3995H82.3443H81.9202C80.9896 7.3995 80.1962 7.84519 79.5806 8.41005C79.041 8.90526 78.635 9.49473 78.3893 9.9649V7.52523V7.47594H78.34H74.937H74.8877V7.52523V20.0364V20.0857H74.937H78.4895Z" fill="black" stroke="black" stroke-width="0.098578"/>
<path d="M90.5682 25.412H90.6873L90.622 25.3468L97.2952 7.53921L97.3201 7.47262H97.249H93.5714H93.5365L93.5249 7.50557L90.4648 16.2126L87.0338 7.50384L87.0215 7.47262H86.988H82.9836H82.908L82.9386 7.54184L88.6381 20.4344L86.8443 25.3458L86.8202 25.412H86.8906H90.5682Z" fill="black" stroke="black" stroke-width="0.098578"/>
</svg>
