<svg width="144" height="75" viewBox="0 0 144 75" fill="none" xmlns="http://www.w3.org/2000/svg">
<g clip-path="url(#clip0_1307_24024)">
<g filter="url(#filter0_d_1307_24024)">
<path d="M71.9812 72.0164C70.962 72.0164 69.966 71.7341 69.1004 71.1999L45.8289 56.8392C44.7039 56.1451 43.3397 54.7947 43.2297 52.3035L42.9294 45.0696C42.9234 44.9249 42.9276 44.7816 42.9417 44.6401C42.9376 42.5383 44.1183 40.6269 46.0266 39.6994L54.7038 35.4807L65.11 8.29144C65.3354 7.70245 65.611 7.15939 65.9299 6.67737C66.083 6.44584 66.2414 6.23396 66.4018 6.0454C68.4826 3.60166 71.4292 3.47778 71.9988 3.47778H72.02C72.5955 3.47801 75.5371 3.60486 77.6144 6.04517C77.776 6.23488 77.9349 6.44812 78.0871 6.67851C78.4039 7.15688 78.6802 7.70062 78.9062 8.29144L89.3127 35.4805L97.9899 39.6992C100.025 40.6886 101.216 42.7568 101.062 45.0049C101.062 45.0191 100.76 52.2961 100.76 52.2961C100.65 54.7945 99.2856 56.1448 98.1606 56.839L74.8886 71.1997C74.024 71.7336 73.0275 72.0161 72.0081 72.0161L71.9812 72.0164Z" fill="white"/>
<path d="M71.9812 72.2664L71.9833 72.2663L72.0081 72.2661C72.0086 72.2661 72.009 72.2661 72.0095 72.2661C73.0746 72.2659 74.1161 71.9706 75.02 71.4124L98.2919 57.0517C99.4666 56.3269 100.895 54.9099 101.01 52.3072L101.01 52.3065L100.76 52.2961L101.01 52.3064L101.01 52.3062L101.01 52.3052L101.01 52.3012L101.011 52.2856L101.013 52.2248L101.023 51.9938L101.057 51.1692L101.161 48.6662C101.233 46.9273 101.305 45.1772 101.312 45.0203C101.471 42.6716 100.226 40.5082 98.0992 39.4743L89.5109 35.2988L79.1397 8.20211C79.1397 8.2021 79.1397 8.20209 79.1397 8.20208C78.9078 7.59591 78.6234 7.03568 78.2957 6.54069C78.1386 6.30294 77.9737 6.08142 77.8047 5.88306C75.6539 3.35645 72.6158 3.22802 72.0201 3.22778H72.02H71.9988C71.4091 3.22778 68.3659 3.35316 66.2115 5.88333L66.2114 5.88339C66.0438 6.08038 65.8794 6.30042 65.7213 6.53944C65.3915 7.03807 65.1078 7.59764 64.8765 8.20208C64.8765 8.20209 64.8765 8.2021 64.8765 8.2021L54.5056 35.299L45.9173 39.4746C43.9261 40.4423 42.6922 42.4358 42.6917 44.628C42.6774 44.7772 42.6734 44.928 42.6796 45.0799L42.6796 45.08L42.9799 52.3138L42.98 52.3145C43.0945 54.9103 44.5231 56.3272 45.6976 57.0519L68.9691 71.4127C69.8742 71.9712 70.9158 72.2664 71.9812 72.2664Z" stroke="white" stroke-width="0.5"/>
</g>
<path d="M73.4221 68.8659C72.5392 69.4107 71.4245 69.4107 70.5414 68.8659L47.2696 54.5051C46.3627 53.9456 46.0128 53.1527 45.9703 52.1825L45.6699 44.9557C45.6629 44.787 45.7977 44.6465 45.9664 44.6465H71.9818H72.0085H98.0239C98.1926 44.6465 98.3274 44.787 98.3203 44.9557L98.02 52.1825C97.9772 53.153 97.6273 53.9456 96.7206 54.5051L73.4486 68.8659C72.5657 69.4107 71.4508 69.4107 70.5679 68.8659" fill="#725BFF"/>
<path d="M73.4221 68.8659C72.5392 69.4107 71.4245 69.4107 70.5414 68.8659L47.2696 54.5051C46.3627 53.9456 46.0128 53.1527 45.9703 52.1825L45.6699 44.9557C45.6629 44.787 45.7977 44.6465 45.9664 44.6465H71.9818H72.0085H98.0239C98.1926 44.6465 98.3274 44.787 98.3203 44.9557L98.02 52.1825C97.9772 53.153 97.6273 53.9456 96.7206 54.5051L73.4486 68.8659C72.5657 69.4107 71.4508 69.4107 70.5679 68.8659" stroke="#212121" stroke-width="1.5" stroke-miterlimit="10"/>
<path d="M70.6131 60.9453L47.0296 46.9932C45.1485 45.8804 45.2612 43.1217 47.2268 42.1661L70.8103 30.7002C71.5675 30.332 72.4516 30.332 73.2088 30.7002L96.7923 42.1661C98.7579 43.1217 98.8706 45.8804 96.9896 46.9932L73.4061 60.9453C72.5448 61.4547 71.4743 61.4547 70.6131 60.9453Z" fill="#8E7CFF" stroke="#212121" stroke-width="1.5" stroke-miterlimit="10"/>
<path d="M72.0073 61.3274V69.2746" stroke="#212121" stroke-width="1.5" stroke-miterlimit="10"/>
<path d="M56.3364 38.8818L55.5373 40.9695C55.1995 41.8522 55.0615 42.8069 55.1735 43.7483C55.4624 46.1785 57.846 48.2731 59.8349 49.2984C63.5432 51.2102 67.9199 51.879 72.0063 51.9851C76.0927 51.879 80.4693 51.2102 84.1777 49.2984C86.1664 48.2731 88.5502 46.1785 88.8391 43.7483C88.9511 42.8069 88.8131 41.8522 88.4753 40.9695L87.6762 38.8818C83.7761 41.7224 78.1998 43.5012 72.0065 43.5012C65.8133 43.5012 60.2365 41.7224 56.3364 38.8818Z" fill="#725BFF" stroke="#212121" stroke-width="1.5" stroke-miterlimit="10"/>
<path d="M72.0083 35.0175C67.0966 35.0175 62.573 33.8982 58.9654 32.0186L56.3386 38.8819C60.2387 41.7224 65.8151 43.5013 72.0083 43.5013C78.2016 43.5013 83.7779 41.7224 87.678 38.8819L85.0512 32.0186C81.4437 33.8984 76.92 35.0175 72.0083 35.0175Z" fill="white" stroke="#212121" stroke-width="1.5" stroke-miterlimit="10"/>
<path d="M72.006 26.5335C68.2849 26.5335 64.7866 25.8911 61.7403 24.7625L58.9631 32.0185C62.5707 33.8984 67.0943 35.0174 72.006 35.0174C76.9177 35.0174 81.4413 33.8981 85.0489 32.0185L82.2717 24.7625C79.2255 25.8911 75.7272 26.5335 72.006 26.5335Z" fill="#725BFF" stroke="#212121" stroke-width="1.5" stroke-miterlimit="10"/>
<path d="M72.0071 18.0497C69.4205 18.0497 66.9414 17.7393 64.6469 17.1711L61.7415 24.7625C64.7877 25.8911 68.286 26.5336 72.0071 26.5336C75.7283 26.5336 79.2266 25.8911 82.2728 24.7625L79.3674 17.1711C77.0729 17.7396 74.5937 18.0497 72.0071 18.0497Z" fill="white" stroke="#212121" stroke-width="1.5" stroke-miterlimit="10"/>
<path d="M75.7989 8.18978C75.7161 8.06453 75.6242 7.93814 75.5264 7.8234C74.134 6.18784 72.0087 6.22075 72.0087 6.22075C72.0087 6.22075 69.8833 6.18761 68.491 7.8234C68.3931 7.93814 68.3012 8.06476 68.2185 8.18978C67.9954 8.5269 67.8172 8.89282 67.672 9.272L64.6484 17.1714C66.9429 17.7396 69.4219 18.05 72.0087 18.05C74.5955 18.05 77.0744 17.7396 79.3689 17.1714L76.3453 9.272C76.2002 8.8926 76.0219 8.52667 75.7989 8.18978Z" fill="#725BFF" stroke="#212121" stroke-width="1.5" stroke-miterlimit="10"/>
</g>
<defs>
<filter id="filter0_d_1307_24024" x="38.1727" y="-0.567298" width="67.6569" height="78.0468" filterUnits="userSpaceOnUse" color-interpolation-filters="sRGB">
<feFlood flood-opacity="0" result="BackgroundImageFix"/>
<feColorMatrix in="SourceAlpha" type="matrix" values="0 0 0 0 0 0 0 0 0 0 0 0 0 0 0 0 0 0 127 0" result="hardAlpha"/>
<feMorphology radius="0.709016" operator="dilate" in="SourceAlpha" result="effect1_dropShadow_1307_24024"/>
<feOffset dy="0.709016"/>
<feGaussianBlur stdDeviation="1.77254"/>
<feComposite in2="hardAlpha" operator="out"/>
<feColorMatrix type="matrix" values="0 0 0 0 0 0 0 0 0 0 0 0 0 0 0 0 0 0 0.16 0"/>
<feBlend mode="normal" in2="BackgroundImageFix" result="effect1_dropShadow_1307_24024"/>
<feBlend mode="normal" in="SourceGraphic" in2="effect1_dropShadow_1307_24024" result="shape"/>
</filter>
<clipPath id="clip0_1307_24024">
<rect width="144" height="74" fill="white" transform="translate(0 0.74707)"/>
</clipPath>
</defs>
</svg>
