<svg width="156" height="234" viewBox="0 0 156 234" fill="none" xmlns="http://www.w3.org/2000/svg">
<rect width="156" height="234" rx="2" fill="white"/>
<g filter="url(#filter0_d_1075_22231)">
<path d="M79.069 132.1C78.7387 132.1 78.4003 132.095 78.0631 132.084C71.5138 132.007 66.646 130.137 63.1825 126.369C59.9095 122.809 58.1299 117.741 57.7418 110.873V110.853L57.7372 110.787C57.3526 100.779 58.9106 94.0736 62.4988 90.2891C64.4967 88.1814 67.1229 87.045 70.0944 87H70.2215C72.9597 87 75.3584 87.9366 77.1565 89.7094C77.3078 89.8583 77.4545 90.0142 77.5977 90.1748C77.6693 90.0939 77.7432 90.0142 77.8183 89.9357C79.5148 88.1607 81.7714 87.2217 84.3434 87.2217C84.5177 87.2217 84.6956 87.2264 84.8723 87.2344C87.2779 87.3557 89.3613 88.342 90.8996 90.087C93.2614 92.7663 94.2707 97.0706 93.9716 103.223C95.1415 104.458 96.1081 105.882 96.853 107.47C98.5704 111.13 98.8787 115.321 97.7204 119.271C96.5181 123.537 94.1587 126.827 90.7079 129.052C87.5701 131.074 83.6551 132.099 79.069 132.099V132.1Z" fill="white"/>
<path d="M90.491 104.61C91.0638 95.7733 89.3927 91.7682 84.958 91.058C80.3511 90.9032 78.3913 94.3782 78.3832 101.399C78.3913 94.1865 75.2373 91.0614 69.859 90.8154C63.8167 91.5199 60.7886 97.4976 61.2113 109.512C61.0808 119.511 64.8723 125.48 72.0753 127.946C80.0232 129.167 88.4723 129.3 93.4949 120.815C96.2088 113.852 95.2295 108.441 90.491 104.612V104.61Z" fill="#C5BDFF"/>
<path d="M70.0064 104.907C74.3765 101.067 81.1707 100.211 87.6519 102.843C92.9389 105.109 96.4394 111.598 94.4611 118.33C92.5266 125.214 86.9289 128.98 78.1368 128.692C66.9333 128.57 61.7918 122.507 61.1277 110.656C60.6115 97.2605 63.8117 90.4859 70.1439 90.3912C75.9021 90.3393 77.5236 95.8111 77.5513 101.267" stroke="#212121" stroke-width="1.54639" stroke-linecap="round" stroke-linejoin="round"/>
<path d="M78.1949 101.225C77.5481 94.4099 80.1397 90.399 84.7026 90.6242C89.5727 90.8702 91.1053 96.3409 90.5047 104.295" stroke="#212121" stroke-width="1.54639" stroke-linecap="round" stroke-linejoin="round"/>
<path d="M83.1033 113.046C83.1033 113.809 82.4844 114.428 81.7209 114.428C80.9574 114.428 80.3385 113.809 80.3385 113.046C80.3385 112.282 80.9574 111.663 81.7209 111.663C82.4844 111.663 83.1033 112.282 83.1033 113.046Z" fill="#212121" stroke="#212121" stroke-width="0.115488"/>
<path d="M89.4412 113.046C89.4412 113.809 88.8223 114.428 88.0588 114.428C87.2953 114.428 86.6764 113.809 86.6764 113.046C86.6764 112.282 87.2953 111.663 88.0588 111.663C88.8223 111.663 89.4412 112.282 89.4412 113.046Z" fill="#212121" stroke="#212121" stroke-width="0.115488"/>
</g>
<path d="M42.8009 160.039H42.8397V160V154.493C43.7114 155.537 44.9968 156.196 46.4861 156.196C49.2327 156.196 51.3353 153.83 51.3353 150.838C51.3353 147.845 49.232 145.558 46.4861 145.558C44.8623 145.558 43.5397 146.253 42.6809 147.371V145.95V145.911H42.6421H40H39.9612V145.95V160V160.039H40H42.8009ZM48.3391 150.876C48.3391 152.432 47.1537 153.675 45.5798 153.675C43.9839 153.675 42.7794 152.393 42.7794 150.876C42.7794 149.359 44.0056 148.077 45.5798 148.077C47.1537 148.077 48.3391 149.32 48.3391 150.876Z" fill="#4A4A4A" stroke="#4A4A4A" stroke-width="0.077646"/>
<path d="M57.5636 156.315C60.8956 156.315 63.3985 153.916 63.3985 150.876C63.3985 147.837 60.8763 145.438 57.5636 145.438C54.2507 145.438 51.7478 147.837 51.7478 150.876C51.7478 153.916 54.2314 156.315 57.5636 156.315ZM57.5636 153.812C55.9499 153.812 54.7632 152.513 54.7632 150.876C54.7632 149.262 55.9501 147.941 57.5636 147.941C59.1775 147.941 60.3831 149.243 60.3831 150.876C60.3831 152.51 59.1775 153.812 57.5636 153.812Z" fill="#4A4A4A" stroke="#4A4A4A" stroke-width="0.077646"/>
<path d="M66.8321 160.039H66.8709V160V154.493C67.7427 155.537 69.028 156.196 70.5173 156.196C73.2639 156.196 75.3666 153.83 75.3666 150.838C75.3666 147.845 73.2632 145.558 70.5173 145.558C68.8935 145.558 67.571 146.253 66.7121 147.371V145.95V145.911H66.6733H64.0312H63.9924V145.95V160V160.039H64.0312H66.8321ZM72.3704 150.876C72.3704 152.432 71.1849 153.675 69.6111 153.675C68.0151 153.675 66.8107 152.393 66.8107 150.876C66.8107 149.359 68.0368 148.077 69.6111 148.077C71.1849 148.077 72.3704 149.32 72.3704 150.876Z" fill="#4A4A4A" stroke="#4A4A4A" stroke-width="0.077646"/>
<path d="M78.8604 155.844H78.8765L78.8879 155.832L78.8906 155.83L78.902 155.818V155.802V150.069C78.902 148.914 79.9245 148.236 80.8153 148.236C81.3207 148.236 81.778 148.372 82.1089 148.686C82.4393 149 82.6492 149.496 82.6492 150.228V155.805V155.844H82.688H85.4861H85.5249V155.805V149.36C85.5249 148.228 85.1467 147.306 84.5123 146.668C83.8779 146.029 82.9901 145.676 81.9761 145.676C80.5183 145.676 79.4317 146.396 78.8199 147.105V140.433V140.395H78.781H76.0596H76.0207V140.433V155.805V155.844H76.0596H78.8604Z" fill="#4A4A4A" stroke="#4A4A4A" stroke-width="0.077646"/>
<path d="M92.046 156.315C95.378 156.315 97.8809 153.916 97.8809 150.876C97.8809 147.837 95.3587 145.438 92.046 145.438C88.7331 145.438 86.2302 147.837 86.2302 150.876C86.2302 153.916 88.7138 156.315 92.046 156.315ZM92.046 153.812C90.4324 153.812 89.2456 152.513 89.2456 150.876C89.2456 149.262 90.4325 147.941 92.046 147.941C93.6599 147.941 94.8655 149.243 94.8655 150.876C94.8655 152.51 93.6599 153.812 92.046 153.812Z" fill="#4A4A4A" stroke="#4A4A4A" stroke-width="0.077646"/>
<path d="M101.314 155.843H101.353V155.805V155.802V150.777C101.353 150.408 101.591 149.955 102.024 149.593C102.456 149.231 103.079 148.964 103.839 148.964C103.915 148.964 104.012 148.968 104.104 148.98C104.197 148.993 104.28 149.012 104.333 149.039L104.389 149.068V149.004V145.89V145.851H104.351H104.017C103.283 145.851 102.659 146.202 102.174 146.647C101.749 147.037 101.429 147.501 101.235 147.872V145.95V145.911H101.197H98.5161H98.4773V145.95V155.805V155.843H98.5161H101.314Z" fill="#4A4A4A" stroke="#4A4A4A" stroke-width="0.077646"/>
<path d="M110.828 160.039H110.922L110.87 159.988L116.127 145.961L116.146 145.909H116.09H113.194H113.166L113.157 145.935L110.747 152.793L108.044 145.934L108.034 145.909H108.008H104.854H104.794L104.818 145.963L109.308 156.118L107.895 159.987L107.876 160.039H107.931H110.828Z" fill="#4A4A4A" stroke="#4A4A4A" stroke-width="0.077646"/>
<defs>
<filter id="filter0_d_1075_22231" x="54.6818" y="84.5014" width="46.7267" height="51.0971" filterUnits="userSpaceOnUse" color-interpolation-filters="sRGB">
<feFlood flood-opacity="0" result="BackgroundImageFix"/>
<feColorMatrix in="SourceAlpha" type="matrix" values="0 0 0 0 0 0 0 0 0 0 0 0 0 0 0 0 0 0 127 0" result="hardAlpha"/>
<feMorphology radius="0.499727" operator="dilate" in="SourceAlpha" result="effect1_dropShadow_1075_22231"/>
<feOffset dy="0.499727"/>
<feGaussianBlur stdDeviation="1.24932"/>
<feComposite in2="hardAlpha" operator="out"/>
<feColorMatrix type="matrix" values="0 0 0 0 0 0 0 0 0 0 0 0 0 0 0 0 0 0 0.16 0"/>
<feBlend mode="normal" in2="BackgroundImageFix" result="effect1_dropShadow_1075_22231"/>
<feBlend mode="normal" in="SourceGraphic" in2="effect1_dropShadow_1075_22231" result="shape"/>
</filter>
</defs>
</svg>
