<svg width="51" height="51" viewBox="0 0 51 51" fill="none" xmlns="http://www.w3.org/2000/svg">
<path d="M25.0018 50.0034C38.8099 50.0034 50.0035 38.8097 50.0035 25.0017C50.0035 11.1936 38.8099 0 25.0018 0C11.1937 0 0 11.1936 0 25.0017C0 38.8097 11.1937 50.0034 25.0018 50.0034Z" fill="black"/>
<path d="M12.9894 20.9448V27.5348H15.794V29.0588H11.2925V20.9484H12.9894V20.9448Z" fill="#FF5069"/>
<path d="M25.1394 24.991C25.1394 27.3828 23.1603 29.3196 20.6696 29.3196C18.179 29.3196 16.1787 27.3828 16.1787 24.991C16.1787 22.5991 18.1472 20.687 20.6696 20.687C23.192 20.687 25.1394 22.6097 25.1394 24.991ZM17.8756 24.991C17.8756 26.5114 19.0927 27.7744 20.6696 27.7744C22.2466 27.7744 23.4425 26.5114 23.4425 24.991C23.4425 23.4705 22.2148 22.2287 20.6696 22.2287C19.1245 22.2287 17.8756 23.4775 17.8756 24.991Z" fill="#FF5069"/>
<path d="M30.1559 29.0553H28.339L25.2839 20.9448H27.1008L29.2951 26.9915L31.4929 20.9448H33.2321L30.1559 29.0553Z" fill="#FF5069"/>
<path d="M34.086 20.9444H38.6193V22.4332H35.7794V24.1936H38.3441V25.5624H35.7794V27.5626H38.704V29.0514H34.0825V20.9409L34.086 20.9444Z" fill="#FF5069"/>
<circle cx="25" cy="25" r="25" fill="#212222" fill-opacity="0.3"/>
<path d="M17 25.0001L21.9497 29.9499L32.5563 19.3433" stroke="white" stroke-width="2" stroke-linecap="round" stroke-linejoin="round"/>
</svg>
