<svg width="320" height="100" viewBox="0 0 320 100" fill="none" xmlns="http://www.w3.org/2000/svg">
<g clip-path="url(#clip0_1405_35117)">
<rect width="320" height="100" fill="#B8B9BE"/>
<path d="M154.232 43.7187V44.375C154.226 45.1338 154.226 46.2344 153.904 47.6699L152.838 47.5742C153.125 46.2891 153.152 45.3457 153.152 44.6211H148.176V43.7187H154.232ZM147.424 48.8047C148.217 48.8047 149.105 48.7979 150.035 48.7705V46.3574H151.102V48.7432C152.455 48.6885 153.843 48.5996 155.107 48.4355L155.176 49.2285C152.626 49.6387 149.728 49.707 147.533 49.707L147.424 48.8047ZM149.023 52.8652C149.023 51.5049 150.555 50.7051 153.07 50.7051C155.586 50.7051 157.124 51.5049 157.117 52.8652C157.124 54.2734 155.586 55.0732 153.07 55.0664C150.555 55.0732 149.023 54.2734 149.023 52.8652ZM150.104 52.8652C150.097 53.7266 151.231 54.2119 153.07 54.2188C154.902 54.2119 156.03 53.7266 156.037 52.8652C156.03 52.0449 154.902 51.5459 153.07 51.5391C151.231 51.5459 150.097 52.0449 150.104 52.8652ZM155.928 50.5547V42.9531H157.021V46.2891H158.799V47.1914H157.021V50.5547H155.928ZM169.34 44.1836V45.4004C169.326 46.8906 169.326 48.5586 168.889 51.0059L167.795 50.8828C168.253 48.5586 168.253 46.8564 168.26 45.4004V45.0723H160.768V44.1836H169.34ZM159.592 53.3848V52.4961H163.939V48.1484H164.992V52.4961H170.666V53.3848H159.592Z" fill="#5F6168"/>
<rect width="319.767" height="100" fill="#D9D9D9"/>
<rect x="-11.4686" y="-13.7135" width="351.606" height="117.202" fill="url(#paint0_linear_1405_35117)"/>
<g opacity="0.8">
<path opacity="0.9" fill-rule="evenodd" clip-rule="evenodd" d="M207.756 27.3588L208.197 25.927L207.305 25.652L206.864 27.0817L205.436 26.6376L205.159 27.5291L206.589 27.9739L206.093 29.5838L206.986 29.8587L207.481 28.2511L208.909 28.6951L209.187 27.8036L207.756 27.3588Z" fill="#725BFF"/>
<path opacity="0.5" fill-rule="evenodd" clip-rule="evenodd" d="M-0.341828 88.3976L-0.271839 86.7117L-1.32241 86.6681L-1.39229 88.3514L-3.07532 88.2772L-3.12158 89.3277L-1.4359 89.4019L-1.5146 91.2976L-0.464025 91.3412L-0.38544 89.4482L1.29767 89.5223L1.34393 88.4719L-0.341828 88.3976Z" fill="#725BFF"/>
<path opacity="0.4" fill-rule="evenodd" clip-rule="evenodd" d="M29.6143 9.19327L29.6843 7.50739L28.6337 7.46378L28.5639 9.14701L26.8807 9.07289L26.8345 10.1233L28.5202 10.1976L28.4415 12.0933L29.4921 12.1369L29.5707 10.2438L31.2537 10.318L31.3 9.2675L29.6143 9.19327Z" fill="#725BFF"/>
<path opacity="0.4" fill-rule="evenodd" clip-rule="evenodd" d="M135.06 88.3973L135.13 86.7115L134.079 86.6679L134.009 88.3511L132.326 88.2769L132.28 89.3274L133.966 89.4016L133.887 91.2975L134.937 91.3411L135.016 89.4479L136.699 89.522L136.745 88.4716L135.06 88.3973Z" fill="#725BFF"/>
<path opacity="0.4" fill-rule="evenodd" clip-rule="evenodd" d="M194.502 94.092L194.134 92.4456L193.108 92.6754L193.476 94.3192L191.831 94.6832L192.058 95.7098L193.705 95.3452L194.12 97.1969L195.146 96.9671L194.732 95.118L196.377 94.754L196.15 93.7274L194.502 94.092Z" fill="#725BFF"/>
<path opacity="0.4" fill-rule="evenodd" clip-rule="evenodd" d="M278.347 78.9559L278.417 77.2701L277.367 77.2264L277.297 78.9096L275.614 78.8355L275.567 79.8859L277.253 79.9602L277.174 81.856L278.225 81.8996L278.304 80.0064L279.987 80.0805L280.033 79.0301L278.347 78.9559Z" fill="#725BFF"/>
<path opacity="0.4" fill-rule="evenodd" clip-rule="evenodd" d="M34.0478 68.147L34.1178 66.4612L33.0672 66.4176L32.9973 68.1008L31.3142 68.0266L31.2679 69.0771L32.9537 69.1513L32.875 71.0471L33.9256 71.0908L34.0042 69.1976L35.6872 69.2717L35.7335 68.2213L34.0478 68.147Z" fill="#725BFF"/>
<path opacity="0.4" fill-rule="evenodd" clip-rule="evenodd" d="M148.583 75.5234L148.632 74.3563L147.904 74.3261L147.856 75.4914L146.691 75.4401L146.659 76.1673L147.826 76.2187L147.771 77.5312L148.499 77.5614L148.553 76.2508L149.718 76.3021L149.75 75.5748L148.583 75.5234Z" fill="#725BFF"/>
<path fill-rule="evenodd" clip-rule="evenodd" d="M217.636 81.3442L217.666 80.6094L217.208 80.5904L217.178 81.324L216.444 81.2917L216.424 81.7496L217.159 81.782L217.124 82.6084L217.582 82.6274L217.617 81.8021L218.35 81.8344L218.37 81.3765L217.636 81.3442Z" fill="#725BFF"/>
<path opacity="0.3" fill-rule="evenodd" clip-rule="evenodd" d="M62.0627 86.0539L62.655 84.9847L61.9887 84.6155L61.3972 85.683L60.3312 85.0889L59.9604 85.7543L61.0281 86.3494L60.3618 87.552L61.0282 87.9211L61.6935 86.7202L62.7598 87.3145L63.1307 86.6491L62.0627 86.0539Z" fill="#725BFF"/>
</g>
<path d="M101.904 18.8545C115.703 30.7444 169.288 46.1786 224.009 36.1712C278.73 26.1637 323.956 47.5304 339.729 59.4647" stroke="url(#paint1_linear_1405_35117)" stroke-width="0.325561" stroke-dasharray="0.33 1.09"/>
<path d="M173.184 86.5156C155.834 92.0601 100.481 85.3026 54.0351 54.6865C7.58959 24.0705 -42.3909 26.0427 -61.5754 30.8558" stroke="url(#paint2_linear_1405_35117)" stroke-width="0.325561" stroke-dasharray="0.33 1.09"/>
<g opacity="0.3">
<path d="M292.028 47.7913C292 45.2686 291.145 44.1209 289.842 44.1594C288.483 44.2884 288.001 45.3925 288.339 47.4417C287.991 45.3361 286.835 44.5445 285.337 44.766C283.625 45.1538 283.014 47.1549 283.718 50.6433C284.164 53.5672 285.954 55.3617 287.782 55.4984C290.096 55.5254 292.683 55.0785 293.689 52.3776C294.346 50.6121 293.594 48.6812 292.026 47.794L292.028 47.7913Z" fill="white" fill-opacity="0.23"/>
<path d="M292.747 47.342C292.715 44.2765 291.675 42.8818 290.091 42.9286C288.441 43.0853 287.854 44.4271 288.265 46.9171C287.843 44.3585 286.438 43.3966 284.617 43.6657C282.537 44.137 281.794 46.5687 282.65 50.8076C283.193 54.3605 285.367 56.5411 287.589 56.7072C290.4 56.7401 293.544 56.1969 294.766 52.9149C295.564 50.7696 294.651 48.4233 292.745 47.3452L292.747 47.342Z" fill="white" fill-opacity="0.15"/>
<path d="M291.142 48.3437C291.122 46.4882 290.493 45.644 289.535 45.6723C288.536 45.7672 288.18 46.5793 288.429 48.0865C288.174 46.5378 287.323 45.9556 286.221 46.1185C284.962 46.4037 284.513 47.8756 285.031 50.4413C285.359 52.5918 286.675 53.9117 288.02 54.0122C289.722 54.0321 291.625 53.7034 292.364 51.7168C292.847 50.4183 292.295 48.9982 291.141 48.3456L291.142 48.3437Z" fill="white" fill-opacity="0.35"/>
</g>
<path d="M283.096 13.669H283.111V13.6538V11.4998C283.452 11.9081 283.955 12.1661 284.537 12.1661C285.611 12.1661 286.434 11.2404 286.434 10.0699C286.434 8.8992 285.611 8.00483 284.537 8.00483C283.902 8.00483 283.385 8.27661 283.049 8.71408V8.15811V8.14292H283.033H282H281.985V8.15811V13.6538V13.669H282H283.096ZM285.262 10.0849C285.262 10.6935 284.798 11.1798 284.183 11.1798C283.558 11.1798 283.087 10.6784 283.087 10.0849C283.087 9.49152 283.567 8.99005 284.183 8.99005C284.798 8.99005 285.262 9.47637 285.262 10.0849Z" fill="white" stroke="white" stroke-width="0.030372"/>
<path d="M288.87 12.2121C290.174 12.2121 291.153 11.2738 291.153 10.0849C291.153 8.89594 290.166 7.95768 288.87 7.95768C287.574 7.95768 286.595 8.89601 286.595 10.0849C286.595 11.2737 287.567 12.2121 288.87 12.2121ZM288.87 11.2333C288.239 11.2333 287.775 10.725 287.775 10.0849C287.775 9.45324 288.239 8.93648 288.87 8.93648C289.501 8.93648 289.973 9.44595 289.973 10.0849C289.973 10.7238 289.501 11.2333 288.87 11.2333Z" fill="white" stroke="white" stroke-width="0.030372"/>
<path d="M292.496 13.669H292.511V13.6538V11.4998C292.852 11.9081 293.355 12.1661 293.937 12.1661C295.011 12.1661 295.834 11.2404 295.834 10.0699C295.834 8.8992 295.011 8.00483 293.937 8.00483C293.302 8.00483 292.785 8.27661 292.449 8.71408V8.15811V8.14292H292.433H291.4H291.385V8.15811V13.6538V13.669H291.4H292.496ZM294.662 10.0849C294.662 10.6935 294.198 11.1798 293.583 11.1798C292.958 11.1798 292.487 10.6784 292.487 10.0849C292.487 9.49152 292.967 8.99005 293.583 8.99005C294.198 8.99005 294.662 9.47637 294.662 10.0849Z" fill="white" stroke="white" stroke-width="0.030372"/>
<path d="M297.201 12.0279V12.0342L297.211 12.0235L297.212 12.0224L297.217 12.0269V12.0117V9.76909C297.217 9.3172 297.617 9.05209 297.965 9.05209C298.163 9.05209 298.342 9.10544 298.471 9.22829C298.601 9.35098 298.683 9.54508 298.683 9.83118V12.0128V12.0279H298.698H299.792H299.808V12.0128V9.49184C299.808 9.04895 299.66 8.68846 299.411 8.43866C299.163 8.18887 298.816 8.05082 298.419 8.05082C297.849 8.05082 297.424 8.3322 297.185 8.60975V6.00003V5.98484H297.17H296.105H296.09V6.00003V12.0128V12.0279H296.105H297.201Z" fill="white" stroke="white" stroke-width="0.030372"/>
<path d="M302.358 12.2121C303.662 12.2121 304.641 11.2738 304.641 10.0849C304.641 8.89594 303.654 7.95768 302.358 7.95768C301.062 7.95768 300.083 8.89601 300.083 10.0849C300.083 11.2737 301.055 12.2121 302.358 12.2121ZM302.358 11.2333C301.727 11.2333 301.263 10.725 301.263 10.0849C301.263 9.45324 301.727 8.93648 302.358 8.93648C302.99 8.93648 303.461 9.44595 303.461 10.0849C303.461 10.7238 302.99 11.2333 302.358 11.2333Z" fill="white" stroke="white" stroke-width="0.030372"/>
<path d="M305.984 12.028H305.999V12.0128V12.0117V10.0463C305.999 9.90189 306.092 9.72461 306.262 9.58285C306.43 9.4415 306.674 9.33684 306.971 9.33684C307.001 9.33684 307.039 9.33868 307.075 9.3434C307.111 9.34817 307.144 9.35568 307.165 9.36622L307.187 9.37752V9.3527V8.13452V8.11934H307.171H307.041C306.754 8.11934 306.51 8.25665 306.32 8.43069C306.154 8.58326 306.029 8.76488 305.953 8.90974V8.15807V8.14289H305.938H304.889H304.874V8.15807V12.0128V12.028H304.889H305.984Z" fill="white" stroke="white" stroke-width="0.030372"/>
<path d="M309.705 13.669H309.742L309.722 13.6489L311.778 8.16237L311.785 8.14186H311.763H310.63H310.62L310.616 8.15201L309.673 10.8346L308.616 8.15148L308.612 8.14186H308.602H307.368H307.345L307.354 8.16318L309.11 12.1354L308.558 13.6486L308.55 13.669H308.572H309.705Z" fill="white" stroke="white" stroke-width="0.030372"/>
<path d="M261.785 77.9436C247.828 77.9436 236.514 89.2577 236.514 103.214C236.514 111.835 243.502 118.824 252.123 118.824L282.568 118.824C291.189 118.824 298.177 111.835 298.177 103.214C298.177 89.2577 286.863 77.9436 272.906 77.9436L261.785 77.9436Z" fill="white" stroke="white" stroke-width="2.23294"/>
<path d="M243.69 25.9137C246.25 23.248 249.481 21.8783 253.301 21.8475C256.809 21.8379 259.714 22.9562 261.932 25.1698C263.856 27.0905 265.061 29.6599 265.796 32.3797C266.442 29.544 267.605 27.2221 269.271 25.5011C271.42 23.2789 274.336 22.2039 277.695 22.3905C280.544 22.5523 282.893 23.6728 284.676 25.723C287.992 29.5317 289.266 36.532 288.466 46.5286C290.653 48.5054 292.462 50.9662 293.761 53.7834C296.146 58.9523 296.536 64.8667 294.864 70.422C293.114 76.5012 289.759 81.1505 284.893 84.2424C280.346 87.1311 274.601 88.5689 267.794 88.5264C267.271 88.5229 266.743 88.5111 266.208 88.4898C256.518 88.3202 249.427 85.6146 244.529 80.218C239.802 75.0086 237.252 67.4005 236.735 56.9549C236.734 56.9474 236.735 56.9403 236.734 56.9328C236.245 41.665 238.584 31.2271 243.687 25.9134L243.69 25.9137Z" fill="white" stroke="white" stroke-width="3.4353" stroke-linecap="round" stroke-linejoin="round"/>
<path d="M281.784 96.112L298.901 100.244L301.751 89.3945C310.764 82.1279 307.823 73.406 305.151 69.9575C309.935 62.875 311.52 56.8074 308.147 54.9868C305.427 53.7313 302.018 56.9442 299.932 61.862C301.2 55.9943 300.949 51.9137 298.062 51.0998C294.225 50.265 291.701 56.1879 291.329 64.5091C285.347 65.7509 281.354 68.5652 280.072 74.8405C279.031 79.5389 280.699 83.5487 283.772 86.938L281.784 96.112Z" fill="white"/>
<path d="M298.901 100.244L298.498 101.914L300.135 102.309L300.563 100.68L298.901 100.244ZM281.784 96.112L280.105 95.7482L279.75 97.388L281.381 97.7817L281.784 96.112ZM305.151 69.9575L303.727 68.9961C303.312 69.611 303.338 70.4231 303.793 71.0096L305.151 69.9575ZM308.147 54.9868L308.963 53.4753C308.931 53.4583 308.899 53.4423 308.867 53.4273L308.147 54.9868ZM299.932 61.862L298.253 61.4992C298.066 62.3653 298.568 63.2316 299.413 63.4994C300.257 63.7671 301.167 63.3484 301.513 62.5327L299.932 61.862ZM298.062 51.0998L298.528 49.4466C298.495 49.4372 298.461 49.4288 298.427 49.4214L298.062 51.0998ZM291.329 64.5091L291.678 66.1909C292.447 66.0313 293.01 65.3704 293.045 64.5858L291.329 64.5091ZM280.072 74.8405L281.749 75.2123C281.751 75.203 281.753 75.1937 281.755 75.1843L280.072 74.8405ZM283.772 86.938L285.451 87.3018C285.568 86.76 285.417 86.1948 285.044 85.7842L283.772 86.938ZM301.751 89.3945L300.673 88.0573L300.234 88.4118L300.09 88.9581L301.751 89.3945ZM300.094 88.8749L297.239 99.81L300.563 100.678L303.418 89.7426L300.094 88.8749ZM299.304 98.5742L282.187 94.4423L281.381 97.7817L298.498 101.914L299.304 98.5742ZM306.574 70.919C309.022 67.2948 310.747 63.7982 311.386 60.8645C312.008 58.0096 311.699 54.952 308.963 53.4753L307.331 56.4984C307.968 56.8422 308.553 57.7288 308.029 60.1334C307.523 62.4592 306.063 65.5377 303.727 68.9961L306.574 70.919ZM308.867 53.4273C306.612 52.3865 304.354 53.3559 302.676 54.8122C300.966 56.2956 299.46 58.5753 298.351 61.1913L301.513 62.5327C302.489 60.231 303.731 58.4453 304.927 57.4067C306.155 56.3409 306.962 56.3316 307.427 56.5464L308.867 53.4273ZM301.611 62.2248C302.257 59.2337 302.564 56.5057 302.255 54.3429C301.941 52.1398 300.893 50.1131 298.528 49.4466L297.596 52.753C298.119 52.9004 298.639 53.3209 298.855 54.8286C299.076 56.3765 298.874 58.6226 298.253 61.4992L301.611 62.2248ZM298.427 49.4214C296.955 49.1011 295.583 49.4488 294.434 50.2828C293.339 51.0785 292.495 52.2747 291.847 53.6291C290.55 56.3376 289.804 60.1567 289.613 64.4325L293.045 64.5858C293.226 60.5403 293.928 57.2374 294.945 55.1129C295.454 54.0507 295.985 53.4026 296.453 53.0626C296.869 52.7607 297.251 52.6811 297.697 52.7782L298.427 49.4214ZM290.98 62.8274C287.826 63.4821 285.022 64.5849 282.817 66.4863C280.582 68.4128 279.095 71.0431 278.389 74.4967L281.755 75.1843C282.332 72.3626 283.482 70.4481 285.06 69.0882C286.666 67.7032 288.85 66.778 291.678 66.1909L290.98 62.8274ZM278.395 74.4688C277.2 79.8588 279.167 84.4162 282.499 88.0918L285.044 85.7842C282.231 82.6813 280.861 79.2189 281.749 75.2123L278.395 74.4688ZM282.093 86.5742L280.105 95.7482L283.462 96.4758L285.451 87.3018L282.093 86.5742ZM303.793 71.0096C304.928 72.4741 306.165 75.1445 306.115 78.2163C306.067 81.1996 304.804 84.7267 300.673 88.0573L302.829 90.7317C307.711 86.7957 309.484 82.3286 309.55 78.2722C309.615 74.3042 308.046 70.8894 306.508 68.9054L303.793 71.0096ZM300.09 88.9581L297.24 99.8074L300.563 100.68L303.413 89.8309L300.09 88.9581Z" fill="white"/>
<path d="M261.785 78.5449C248.16 78.5449 237.115 89.5899 237.115 103.215C237.115 111.503 243.834 118.223 252.123 118.223L282.568 118.223C290.857 118.223 297.576 111.503 297.576 103.215C297.576 89.5899 286.531 78.5449 272.907 78.5449L261.785 78.5449Z" fill="#725BFF" stroke="black" stroke-width="1.03059"/>
<path d="M243.69 25.9136C246.25 23.2479 249.481 21.8782 253.301 21.8474C256.809 21.8377 259.714 22.9561 261.932 25.1697C263.856 27.0904 265.061 29.6598 265.796 32.3796C266.442 29.5439 267.605 27.222 269.271 25.5009C271.42 23.2788 274.336 22.2038 277.695 22.3904C280.544 22.5522 282.893 23.6726 284.676 25.7229C287.992 29.5316 289.266 36.5319 288.466 46.5285C290.653 48.5053 292.462 50.9661 293.761 53.7833C296.146 58.9521 296.536 64.8666 294.864 70.4218C293.114 76.5011 289.759 81.1504 284.893 84.2422C280.346 87.1309 274.601 88.5688 267.794 88.5263C267.271 88.5228 266.743 88.511 266.208 88.4896C256.518 88.3201 249.427 85.6145 244.529 80.2179C239.802 75.0085 237.252 67.4003 236.735 56.9547C236.734 56.9473 236.735 56.9401 236.734 56.9327C236.245 41.6649 238.584 31.227 243.687 25.9132L243.69 25.9136Z" fill="#725BFF" stroke="black" stroke-width="1.06187" stroke-linecap="round" stroke-linejoin="round"/>
<path d="M265.777 32.0792C266.397 35.0235 266.389 38.0725 266.27 41.3976" stroke="black" stroke-width="1.22061" stroke-linecap="round" stroke-linejoin="round"/>
<path d="M260.531 64.7024C261.596 63.9282 261.831 62.4377 261.056 61.3735C260.282 60.3092 258.792 60.0741 257.727 60.8483C256.663 61.6226 256.428 63.113 257.202 64.1773C257.977 65.2416 259.467 65.4767 260.531 64.7024Z" fill="black"/>
<path d="M275.012 59.8758L270.804 61.5743L274.385 64.3997" stroke="black" stroke-width="1.22061" stroke-linecap="round" stroke-linejoin="round"/>
<path d="M306.403 82.407C308.533 78.306 307.722 74.1476 305.151 69.9577C309.935 62.8752 311.52 56.8076 308.147 54.9871C305.427 53.7315 302.018 56.9445 299.932 61.8622C301.2 55.9946 300.949 51.9139 298.062 51.1C294.225 50.2653 291.701 56.1881 291.329 64.5094C285.347 65.7512 281.354 68.5654 280.072 74.8408C279.031 79.5391 280.699 83.549 283.772 86.9382L281.784 96.1122L306.401 82.4076L306.403 82.407Z" fill="#725BFF" stroke="black" stroke-width="1.06187" stroke-linecap="round" stroke-linejoin="round"/>
<path d="M286.721 81.0884C291.977 80.6396 298.267 77.6013 296.967 74.1716C295.959 71.5991 293.328 72.4389 289.736 74.1626C288.701 74.6596 287.213 74.7315 286.156 74.2836C285.67 74.0778 285.241 73.7818 284.92 73.4068" stroke="black" stroke-width="1.06187" stroke-linecap="round" stroke-linejoin="round"/>
<path d="M301.756 89.309C310.885 79.9845 307.633 73.097 305.086 69.971L289.588 85.4382L283.468 93.2641L281.826 96.44L298.901 100.244L301.756 89.309Z" fill="#725BFF"/>
<path d="M305.091 69.8851C307.763 73.3337 310.764 82.1282 301.751 89.3948L298.002 102.866" stroke="black" stroke-width="1.03059"/>
<path d="M11.9186 30.4419C10.6279 29.0465 9.75586 27.3721 9.75586 25.2558C9.75586 23.1395 10.6279 21.4651 11.9186 20.0698H13.2093C11.8721 21.4302 10.9419 23.1977 10.9419 25.2558C10.9419 27.314 11.8721 29.0814 13.2093 30.4419H11.9186ZM23.2189 20.3023V27.6744H22.0678V20.3023H23.2189ZM17.5561 23.9767C16.8701 25.2093 15.6841 26.0233 14.2073 26.1744V25.1163C15.8817 24.8837 16.9399 23.4884 17.0562 21.5581H14.3352V20.5581H20.7655V21.5581H18.2073C18.1957 22.0698 18.1027 22.5581 17.9748 23L21.0562 25.2442L20.4166 26.093L17.5561 23.9767ZM15.9631 29.0581H23.4864V30.1046H14.8003V26.9419H15.9631V29.0581ZM35.3624 24.3256V25.4302H34.0252V30.2326H32.909V20.3023H34.0252V24.3256H35.3624ZM30.8857 21.7093C30.8741 23.0698 30.8043 24.2326 30.6764 25.1977L32.6648 29.186L31.7694 29.6628L30.3973 26.7558C29.9555 28.5 29.1996 29.3721 28.095 29.6395L27.0834 26.9186C26.6415 28.5581 25.8973 29.3721 24.8276 29.6395V28.4884C25.9555 28.093 26.4787 25.9302 26.5136 21.7093H25.1648V20.6628H28.4555V21.7093H27.6183C27.6066 23.0581 27.5369 24.1977 27.4206 25.1744L28.595 28.1628C29.3741 27.3488 29.7578 25.2442 29.781 21.7093H28.8741V20.6628H32.0717V21.7093H30.8857ZM48.1187 22.5233H49.4908V23.593H48.1187V26.3721H46.9676V20.3023H48.1187V22.5233ZM44.0373 23.9419V21.4302H39.5838V20.4651H45.1885V23.9419H44.0373ZM46.142 25.2326C45.5141 25.5116 44.2699 25.6279 42.8513 25.6279H39.1071V24.686H41.049V22.6163H42.1885V24.686H42.8862C44.2466 24.686 45.4559 24.5814 46.142 24.2907V25.2326ZM43.9908 26.4186C46.4676 26.4186 48.2931 27 48.2931 28.3488C48.2931 29.686 46.4676 30.2674 43.9908 30.2674C41.5141 30.2674 39.6885 29.686 39.6885 28.3488C39.6885 27 41.5141 26.4186 43.9908 26.4186ZM43.9908 29.3721C45.7466 29.3721 47.0838 29.0814 47.0838 28.3488C47.0838 27.6163 45.7466 27.314 43.9908 27.314C42.235 27.314 40.8978 27.6163 40.8978 28.3488C40.8978 29.0814 42.235 29.3721 43.9908 29.3721ZM58.1925 27.2093V21.7326H50.739V20.6512H59.3901V27.2093H58.1925ZM55.018 28.6744H60.0529V29.7558H50.1343V28.6744H53.832V24.2442H55.018V28.6744ZM71.5453 24.3256V25.4302H70.1499V30.2326H68.9988V20.3023H70.1499V24.3256H71.5453ZM64.4406 20.5349C66.1732 20.5349 67.3941 22 67.3941 25.1512C67.3941 28.3023 66.1732 29.7674 64.4406 29.7674C62.6964 29.7674 61.4755 28.3023 61.4755 25.1512C61.4755 22 62.6964 20.5349 64.4406 20.5349ZM64.4406 28.7093C65.4639 28.7093 66.2429 27.6744 66.2429 25.1512C66.2429 22.6395 65.4639 21.593 64.4406 21.593C63.4057 21.593 62.6267 22.6395 62.6267 25.1512C62.6267 27.6744 63.4057 28.7093 64.4406 28.7093ZM80.305 25.5814V20.3023H81.4562V25.5814H80.305ZM72.6422 25.1046V20.4884H73.805V24.1046H76.4562C77.805 24.1046 78.9446 23.9419 79.5841 23.6628V24.6628C78.9795 24.9302 77.8167 25.1046 76.4097 25.1046H72.6422ZM73.0376 30.1046V26.186H81.4562V30.1046H73.0376ZM74.1888 29.1279H80.305V27.1744H74.1888V29.1279ZM82.8439 30.4419C84.1811 29.0814 85.0997 27.314 85.0997 25.2558C85.0997 23.1977 84.1811 21.4302 82.8439 20.0698H84.123C85.4253 21.4651 86.2857 23.1395 86.2857 25.2558C86.2857 27.3721 85.4253 29.0465 84.123 30.4419H82.8439ZM20.6849 41.686H22.1814V54.5953H20.6849V41.686ZM15.6512 43.5302C15.6361 45.0267 15.4849 46.4023 15.2431 47.6116L19.4605 52.8267L18.2814 53.7186L14.8047 49.2895C13.9128 51.9953 12.371 53.5977 10.421 53.8244V52.343C12.7186 51.9198 14.0791 48.3221 14.1396 43.5302H10.7233V42.1546H18.9617V43.5302H15.6512ZM34.9467 46.1756V43.107H25.3781V41.8372H36.4584V46.1756H34.9467ZM24.5165 48.2012V46.9465H37.4107V48.2012H24.5165ZM25.4084 54.4442V49.5163H36.5037V54.4442H25.4084ZM26.9049 53.2198H35.0223V50.7407H26.9049V53.2198ZM55.056 46.4326V47.8233H43.87V41.8372H45.4118V46.4326H55.056ZM55.8723 49.3651V50.786H50.1734V54.8977H48.6467V50.786H42.9781V49.3651H55.8723ZM58.2225 50.4081V45.6012H67.9271V43.5H58.2225V42.1546H69.4085V46.9163H59.7038V49.0628H69.605V50.4081H58.2225ZM57.3608 53.9756V52.6H70.255V53.9756H57.3608ZM82.2947 54.5953V41.686H83.7912V54.5953H82.2947ZM72.3482 53.7942V52.3733C75.8703 52.3581 77.9866 49.6221 77.9866 45.2988V43.5302H72.3482V42.1546H79.5133V45.2686C79.5133 50.4384 76.7622 53.7942 72.3482 53.7942ZM97.8112 44.7546H99.6251V46.1907H97.8112V51.2698H96.3147V41.686H97.8112V44.7546ZM94.1228 42.0035V48.9721H86.5798V42.0035H94.1228ZM92.6414 47.6721V43.3035H88.0612V47.6721H92.6414ZM88.5298 50.2419V53.0686H98.1588V54.4291H87.0181V50.2419H88.5298ZM108.488 41.6558V43.6965H111.194V45.0419H104.301V43.6965H107.006V41.6558H108.488ZM115.608 41.686H116.998V54.5953H115.608V48.2919H113.537V54.3686H112.146V41.7616H113.537V46.886H115.608V41.686ZM107.808 46.0546C109.546 46.0546 110.816 47.4453 110.816 50.0151C110.816 52.5849 109.546 53.9756 107.808 53.9756C106.084 53.9756 104.815 52.5849 104.815 50.0151C104.815 47.4453 106.084 46.0546 107.808 46.0546ZM107.808 52.6605C108.745 52.6605 109.44 51.7081 109.44 50.0151C109.44 48.3221 108.745 47.3698 107.808 47.3698C106.886 47.3698 106.205 48.3221 106.205 50.0151C106.205 51.7081 106.886 52.6605 107.808 52.6605ZM126.166 52.5849H131.865V53.9756H118.971V52.5849H124.639V49.4558H119.817V42.1546H131.018V43.5453H121.344V48.0651H131.169V49.4558H126.166V52.5849ZM22.3477 61.8372V68.564H10.7989V61.8372H22.3477ZM19.8233 66.236V64.1802H13.3233V66.236H19.8233ZM23.1035 69.6372V71.9953H17.8884V74.8977H15.2582V71.9953H10.0431V69.6372H23.1035ZM30.9107 67.1733C29.4444 68.7453 27.2374 69.7128 24.8642 69.7279V67.3849C26.9804 67.3395 28.9758 66.2058 29.7014 64.3163H25.0909V61.9884H36.8211V64.3163H32.4677C32.3921 64.6337 32.2863 64.9209 32.1653 65.2233L37.3653 67.7779L36.2014 69.8337L30.9107 67.1733ZM32.2409 71.7535H37.4863V74.1419H24.4258V71.7535H29.6711V69.2291H32.2409V71.7535ZM46.0039 66.7198C44.7795 68.5488 42.2248 69.4407 39.1109 69.4407V67.1884C42.119 67.1581 44.205 66.0698 44.205 64.3314V64.0442H39.1109V61.8372H46.805V63.9081C46.805 64.0593 46.805 64.2105 46.7899 64.3616H48.8004V61.686H51.355V71.2546H48.8004V66.7198H46.0039ZM42.4062 72.3128H51.5364V74.5953H39.8062V70.0756H42.4062V72.3128ZM70.905 66.4023V68.8814H69.3934V74.5953H66.8387V61.686H69.3934V66.4023H70.905ZM63.3318 62.0337C63.3318 63.9837 63.1504 65.7372 62.8329 67.2488L66.5666 72.5093L64.4806 73.9756L61.9108 70.2116C60.8527 72.6302 59.2352 73.9756 57.2701 73.9907V71.3605C59.3411 71.1186 60.7166 67.3395 60.7318 61.943L63.3318 62.0337ZM84.1389 61.686V71.2395H81.5843V61.686H84.1389ZM76.3994 67.1581C75.3866 68.4884 73.8296 69.4407 71.9552 69.486V67.1733C73.7087 67.0372 74.8273 65.586 75.054 64.014H72.1366V61.8372H80.4808V64.014H77.6389C77.6087 64.3919 77.5331 64.7698 77.4273 65.1477L81.025 67.5512L79.6191 69.3802L76.3994 67.1581ZM75.1901 72.2977H84.3203V74.5953H72.5901V70.0756H75.1901V72.2977ZM96.6926 67.3244H99.0961V69.2593H86.0356V67.3244H88.4391V66.1302C87.3356 65.707 86.6705 65.0419 86.6705 64.0895C86.6705 62.2302 89.1647 61.4744 92.5658 61.4744C95.967 61.4744 98.4612 62.2302 98.4612 64.0895C98.4612 65.0419 97.7961 65.707 96.6926 66.1302V67.3244ZM92.5658 63.3791C90.6309 63.3791 89.3914 63.6058 89.3914 64.0895C89.3914 64.5884 90.6309 64.8 92.5658 64.8C94.5007 64.8 95.7402 64.5884 95.7402 64.0895C95.7402 63.6058 94.5007 63.3791 92.5658 63.3791ZM90.9635 66.6442V67.3244H94.1681V66.6442C93.6693 66.6895 93.1251 66.7046 92.5658 66.7046C92.0065 66.7046 91.4623 66.6895 90.9635 66.6442ZM92.5658 69.6977C96.0426 69.6977 98.4612 70.3628 98.4612 72.2221C98.4612 74.0814 96.0426 74.7465 92.5658 74.7465C89.0891 74.7465 86.6705 74.0814 86.6705 72.2221C86.6705 70.3628 89.0891 69.6977 92.5658 69.6977ZM92.5658 72.8419C94.4402 72.8419 95.7402 72.6907 95.7402 72.2221C95.7402 71.7686 94.4402 71.6023 92.5658 71.6023C90.6914 71.6023 89.3914 71.7686 89.3914 72.2221C89.3914 72.6907 90.6914 72.8419 92.5658 72.8419ZM114.053 64.7244H112.542V65.6767H114.053V67.8081H112.542V69.35H109.987V61.686H112.542V62.593H114.053V64.7244ZM100.706 64.5128H105.89V63.7721H100.675V61.8372H108.415V66.3116H103.23V67.0523H106.404C107.568 67.0523 108.702 66.886 109.382 66.614V68.5186C108.717 68.8209 107.523 68.9872 106.299 68.9872H100.706V64.5128ZM106.843 69.5163C110.093 69.5163 112.663 70.1512 112.663 72.1314C112.663 74.1116 110.093 74.7465 106.843 74.7465C103.593 74.7465 101.023 74.1116 101.023 72.1314C101.023 70.1512 103.593 69.5163 106.843 69.5163ZM106.843 72.7965C108.566 72.7965 109.926 72.6605 109.926 72.1314C109.926 71.6174 108.566 71.4663 106.843 71.4663C105.119 71.4663 103.759 71.6174 103.759 72.1314C103.759 72.6605 105.119 72.7965 106.843 72.7965ZM123.007 61.7314C125.773 61.7314 127.406 63.364 127.406 65.6012C127.406 66.886 126.786 67.9895 124.624 70.2267L122.856 72.0558H127.647V74.3837H118.835V72.8116L122.871 68.6546C124.352 67.1279 124.7 66.3267 124.7 65.6314C124.7 64.7244 124.201 64.1198 123.007 64.1198C121.888 64.1198 121.283 65.0267 121.283 65.964H118.578C118.578 63.5453 120.407 61.7314 123.007 61.7314ZM139.265 61.686H141.653V74.5953H139.265V68.8512H138.192V74.3686H135.834V61.7465H138.192V66.4326H139.265V61.686ZM132.568 65.7977V61.9884H134.896V73.9907H129.031V61.9884H131.359V65.7977H132.568ZM131.359 71.693H132.568V68.0802H131.359V71.693ZM158.014 61.686H159.51V68.307H158.014V65.6616H155.384C155.066 67.1884 153.615 68.2163 151.468 68.2163C149.02 68.2163 147.478 66.9012 147.478 65.0267C147.478 63.1523 149.02 61.8372 151.468 61.8372C153.555 61.8372 154.991 62.8046 155.353 64.2709H158.014V61.686ZM151.468 66.9767C152.95 66.9767 153.948 66.236 153.948 65.0267C153.948 63.8174 152.95 63.0767 151.468 63.0767C149.987 63.0767 148.974 63.8174 148.974 65.0267C148.974 66.236 149.987 66.9767 151.468 66.9767ZM158.029 70.3779V69.0174H159.51V74.4291H148.672V69.0174H150.138V70.3779H158.029ZM150.138 73.2046H158.029V71.5721H150.138V73.2046ZM172.2 71.0884V63.5453H162.526V62.1395H173.772V71.0884H172.2ZM161.74 73.9756V72.5698H174.634V73.9756H161.74ZM187.112 61.686H188.533V74.5953H187.112V61.686ZM183.998 66.9919V61.7616H185.404V74.3686H183.998V68.4128H182.396V66.9919H183.998ZM177.921 72.5244H179.07C180.627 72.5244 181.851 72.3279 182.804 71.9198V73.2349C181.957 73.6128 180.597 73.8244 178.994 73.8244H176.515V67.264H180.234V63.4546H176.515V62.1546H181.64V68.564H177.921V72.5244ZM201.056 74.5953V61.686H202.568V74.5953H201.056ZM194.964 73.9907C192.667 73.9907 191.049 72.086 191.049 67.9895C191.049 63.893 192.667 61.9884 194.964 61.9884C197.247 61.9884 198.864 63.893 198.864 67.9895C198.864 72.086 197.247 73.9907 194.964 73.9907ZM194.964 72.6151C196.31 72.6151 197.368 71.2698 197.368 67.9895C197.368 64.7244 196.31 63.364 194.964 63.364C193.589 63.364 192.546 64.7244 192.546 67.9895C192.546 71.2698 193.589 72.6151 194.964 72.6151ZM205.734 69.7733V62.1546H216.935V63.5453H207.261V68.3826H217.087V69.7733H205.734ZM204.888 73.9756V72.5698H217.782V73.9756H204.888ZM219.83 70.9221L219.452 62.1698H221.372L220.979 70.9221H219.83ZM220.404 74.5198C219.769 74.5198 219.286 74.036 219.286 73.4012C219.286 72.7814 219.769 72.2977 220.404 72.2977C221.039 72.2977 221.523 72.7814 221.523 73.4012C221.523 74.036 221.039 74.5198 220.404 74.5198Z" fill="white"/>
<rect x="9.30237" y="79.0698" width="133.721" height="1.74419" fill="white"/>
</g>
<defs>
<linearGradient id="paint0_linear_1405_35117" x1="144.583" y1="-11.8127" x2="152.629" y2="93.7113" gradientUnits="userSpaceOnUse">
<stop stop-color="#725BFF"/>
<stop offset="1" stop-color="#212121"/>
</linearGradient>
<linearGradient id="paint1_linear_1405_35117" x1="490.1" y1="61.095" x2="109.431" y2="79.5081" gradientUnits="userSpaceOnUse">
<stop stop-color="white"/>
<stop offset="1" stop-color="white" stop-opacity="0"/>
</linearGradient>
<linearGradient id="paint2_linear_1405_35117" x1="-200.602" y1="-26.4669" x2="142.53" y2="139.391" gradientUnits="userSpaceOnUse">
<stop stop-color="white"/>
<stop offset="1" stop-color="white" stop-opacity="0"/>
</linearGradient>
<clipPath id="clip0_1405_35117">
<rect width="320" height="100" fill="white"/>
</clipPath>
</defs>
</svg>
