<svg width="181" height="213" viewBox="0 0 181 213" fill="none" xmlns="http://www.w3.org/2000/svg">
<g filter="url(#filter0_d_1349_25896)">
<path d="M85.291 168.691C81.2717 168.691 76.9396 168.218 73.6165 167.803L73.5291 167.792C68.5036 167.02 65.6456 163.75 65.8795 159.04C65.8851 158.945 65.8936 158.846 65.9049 158.747L67.9258 143.338C67.4325 143.49 66.9167 143.589 66.3868 143.634C65.0931 144.257 63.774 144.573 62.4578 144.573C60.6003 144.573 58.726 143.941 56.8883 142.693C54.7151 141.272 53.272 138.961 52.7139 136.004C51.9839 132.036 54.0556 128.121 57.8691 126.246C57.9649 126.198 57.9988 126.167 58.0016 126.167L69.9185 109.772C69.7973 109.684 69.6789 109.597 69.5577 109.51C64.4251 105.682 60.8568 99.4867 58.6499 90.5744L58.6358 90.5209C55.6453 77.4624 56.0004 68.2992 59.7266 62.5127C61.7587 59.3559 64.8282 57.2786 68.5966 56.5091C69.5775 56.3146 70.533 56.2188 71.4518 56.2188C73.9209 56.2188 76.1898 56.9009 78.191 58.2454C78.6223 58.5357 79.0394 58.857 79.4425 59.2093C79.6229 58.8598 79.8202 58.5216 80.0316 58.1974C81.8439 55.4071 84.7752 53.6032 88.2872 53.1156C88.8481 53.0395 89.4033 53 89.9445 53C92.391 53 94.612 53.761 96.5428 55.2661C100.266 58.1636 102.625 63.595 103.733 71.8393C105.638 73.1782 107.31 74.8355 108.716 76.7831C111.715 80.9349 113.144 86.0421 112.772 91.2311L116.512 88.9819C117.132 88.607 117.846 88.4097 118.576 88.4097C119.306 88.4097 119.951 88.5901 120.551 88.9312C121.8 89.6358 122.578 90.9718 122.578 92.4121V96.4991C123.237 96.8006 123.858 97.2009 124.427 97.6998C126.453 99.4727 127.606 102.294 127.587 105.445C127.587 109.966 125.794 113.343 122.578 115.037V118.605C122.578 120.045 121.8 121.381 120.546 122.089L107.53 129.462C106.721 133.115 105.235 136.244 103.096 138.803C103.803 141.492 104.359 144.739 104.686 148.127C108.742 149.071 114.133 151.216 114.029 157.764V157.868C113.908 160.289 112.879 162.341 111.056 163.798C109.071 165.382 106.182 166.185 102.465 166.188C100.906 166.188 99.1894 166.05 97.3461 165.777C94.8178 167.775 90.9676 168.708 85.291 168.708H85.2882L85.291 168.691Z" fill="white"/>
</g>
<path d="M75.4009 108.349L61.7223 127.758C58.7741 129.686 56.1951 131.833 56.5164 135.726C57.1788 139.601 59.6704 141.022 63.6446 140.458L68.2276 138.584L69.3353 134.009L72.6217 137.899L69.8173 160.608L72.3173 163.937L89.7502 164.732C92.6111 163.974 94.9308 162.801 96.2696 160.873L103.277 162.381C107.425 162.327 109.886 161.011 110.089 158.007C109.849 153.517 106.174 151.811 100.963 151.352L98.7161 137.688C104.303 131.63 105.458 122.549 103.102 111.069L96.0159 104.245L75.4009 108.349Z" fill="#D4CFFB"/>
<path d="M62.4577 141.442C61.2062 141.442 59.9492 140.991 58.6216 140.086C57.1503 139.136 56.192 137.56 55.7861 135.421C55.3154 132.859 56.705 130.303 59.2473 129.054C59.7829 128.792 60.2085 128.445 60.5129 128.025L75.4119 107.529C75.6796 107.162 76.1898 107.08 76.559 107.348C76.9254 107.616 77.0072 108.129 76.7394 108.495L61.8404 128.992C61.3754 129.632 60.7468 130.148 59.9689 130.528C58.4102 131.295 57.0094 133.011 57.3984 135.12C57.7197 136.822 58.4187 138 59.5292 138.719C61.3246 139.945 62.779 140.111 64.411 139.288C64.8986 139.043 65.3834 138.908 65.8541 138.888C66.5305 138.86 67.1252 138.595 67.5311 138.138C67.9088 137.715 68.0836 137.18 68.0385 136.591C67.9821 135.847 68.1597 135.091 68.5486 134.406C68.5543 134.395 68.5599 134.387 68.5684 134.375L80.9955 114.614C81.2379 114.231 81.7424 114.116 82.1285 114.358C82.5119 114.6 82.6274 115.105 82.385 115.491L69.9692 135.235C69.7493 135.63 69.6479 136.058 69.6789 136.47C69.755 137.498 69.4308 138.479 68.76 139.232C68.0554 140.024 67.0463 140.486 65.9245 140.531C65.6906 140.54 65.4313 140.616 65.1551 140.757C64.2475 141.216 63.3568 141.444 62.4605 141.444L62.4577 141.442Z" fill="#212121"/>
<path d="M95.4355 140.81C95.1395 140.81 94.852 140.65 94.7055 140.368C94.4969 139.965 94.6519 139.472 95.055 139.26C104.7 134.246 105.005 120.883 101.205 110.592C101.047 110.167 101.267 109.696 101.69 109.538C102.115 109.383 102.586 109.6 102.744 110.023C106.783 120.968 106.338 135.241 95.8103 140.715C95.6891 140.777 95.5595 140.808 95.4326 140.808L95.4355 140.81Z" fill="#212121"/>
<path d="M85.2962 165.566C81.7561 165.566 77.8129 165.177 74.005 164.701C69.6728 164.035 68.8977 161.341 69.0048 159.196C69.0048 159.173 69.0076 159.154 69.0105 159.131L71.8065 137.794C70.8933 136.969 69.6193 135.565 69.2134 133.871C69.1063 133.431 69.3797 132.989 69.8194 132.882C70.2591 132.777 70.7016 133.048 70.8087 133.488C71.0652 134.556 71.939 135.776 73.2045 136.836C73.4187 137.017 73.5286 137.293 73.492 137.572L70.6424 159.311C70.5438 161.518 71.6515 162.68 74.2305 163.077C81.3615 163.965 91.2546 164.805 94.5862 161.865C95.3698 161.175 95.7503 160.301 95.7503 159.193C95.7503 158.274 95.4628 157.547 94.8737 156.966C93.6082 155.721 90.9672 155.123 87.0071 155.182C86.7647 155.182 86.5279 155.078 86.3672 154.892C86.2094 154.703 86.1418 154.455 86.1869 154.213C87.1057 149.215 87.1198 145.267 86.2376 140.131C86.1615 139.686 86.4603 139.26 86.9084 139.184C87.3537 139.111 87.7793 139.407 87.8555 139.855C88.7151 144.861 88.7546 148.784 87.971 153.542C91.8945 153.593 94.5355 154.334 96.0237 155.8C96.9313 156.693 97.3907 157.835 97.3879 159.196C97.3879 160.777 96.8101 162.091 95.6685 163.097C93.5715 164.949 89.7524 165.569 85.2934 165.569L85.2962 165.566Z" fill="#212121"/>
<path d="M102.47 163.046C100.502 163.046 98.4671 162.798 96.6886 162.485C96.2433 162.406 95.9445 161.981 96.0206 161.535C96.0995 161.09 96.5252 160.791 96.9705 160.867C102.312 161.803 106.258 161.513 108.081 160.056C108.825 159.461 109.212 158.672 109.262 157.646C109.31 154.63 107.34 153.353 100.832 152.217C100.454 152.152 100.175 151.834 100.153 151.453C99.9018 146.732 99.1323 141.943 98.0923 138.646C97.957 138.214 98.1966 137.752 98.6278 137.617C99.059 137.482 99.5213 137.721 99.6566 138.152C100.685 141.422 101.46 146.075 101.754 150.715C106.864 151.645 110.976 152.927 110.9 157.699C110.824 159.23 110.221 160.445 109.102 161.338C107.503 162.615 105.043 163.043 102.464 163.043L102.47 163.046Z" fill="#212121"/>
<path d="M100.055 74.1847C98.5947 62.2762 95.3617 57.3634 89.2793 57.5325C83.1066 58.4852 81.3703 63.6037 83.1263 72.953C81.3224 63.3472 76.3392 59.9819 69.1152 61.0078C61.2485 63.4656 58.7203 72.1863 62.3055 88.0746C64.6477 101.421 71.1953 108.413 81.407 109.885C92.2951 109.51 103.578 107.562 108.13 94.9998C109.993 85.0475 107.327 78.0912 100.055 74.1818V74.1847Z" fill="#D4CFFB"/>
<path d="M83.6725 110.748C78.8302 110.748 74.7884 109.505 71.4258 106.999C66.8964 103.62 63.7086 98.0023 61.6848 89.82C58.9283 77.7903 59.1566 69.174 62.3585 64.202C63.9481 61.7329 66.2565 60.1743 69.2245 59.5683C71.9613 59.0271 74.3881 59.4527 76.4485 60.8338C80.0816 63.2747 81.832 68.2607 82.6747 72.2349C86.7307 71.006 91.3108 70.7975 95.9953 71.7417C100.02 72.6324 103.634 75.0704 106.184 78.6049C108.856 82.3029 110.071 86.8972 109.609 91.5365C108.721 101.703 101.68 108.324 89.7888 110.167C87.6213 110.553 85.5835 110.745 83.6725 110.745V110.748ZM71.4371 60.986C70.8311 60.986 70.1997 61.0508 69.5486 61.1805C67.0345 61.6935 65.0784 63.0097 63.7367 65.0927C60.7829 69.6785 60.6307 77.8721 63.2801 89.4423C65.208 97.2272 68.1929 102.543 72.4067 105.686C76.7106 108.896 82.3083 109.835 89.5182 108.552C100.767 106.808 107.143 100.872 107.971 91.3871C108.394 87.1367 107.287 82.9427 104.848 79.5689C102.532 76.3613 99.2649 74.1544 95.6486 73.3511C86.7194 71.55 78.227 74.191 73.4975 80.2425C73.2184 80.6005 72.7026 80.6625 72.3447 80.3834C71.9867 80.1044 71.9247 79.5886 72.2037 79.2306C74.4811 76.3162 77.5506 74.1318 81.102 72.7733C80.341 69.0725 78.7654 64.3768 75.5268 62.2008C74.3233 61.3919 72.9535 60.986 71.4314 60.986H71.4371Z" fill="#212121"/>
<path d="M99.995 74.5827C99.5835 74.5827 99.2284 74.2726 99.1805 73.8527C98.3377 66.3271 96.4126 61.2001 93.6166 59.0213C92.2722 57.9728 90.7445 57.5839 88.9406 57.8319C86.7618 58.1335 85.1073 59.1284 84.0306 60.7858C82.331 63.4042 82.1845 67.5785 83.6191 72.542C83.746 72.9761 83.4951 73.4327 83.0582 73.5595C82.6214 73.6836 82.1676 73.4355 82.0407 72.9986C80.4482 67.4911 80.6596 62.9589 82.6524 59.8923C83.9827 57.846 86.0769 56.572 88.7151 56.2056C90.9474 55.8984 92.9345 56.4113 94.6228 57.7248C97.8219 60.2136 99.902 65.5773 100.807 73.6666C100.858 74.1176 100.533 74.5235 100.082 74.5742C100.051 74.577 100.02 74.5799 99.9894 74.5799L99.995 74.5827Z" fill="#212121"/>
<path d="M98.9358 87.9756C100.013 87.9756 100.886 87.1024 100.886 86.0252C100.886 84.948 100.013 84.0747 98.9358 84.0747C97.8586 84.0747 96.9854 84.948 96.9854 86.0252C96.9854 87.1024 97.8586 87.9756 98.9358 87.9756Z" fill="#212121"/>
<path d="M90.5022 89.5708C91.5794 89.5708 92.4527 88.6976 92.4527 87.6204C92.4527 86.5432 91.5794 85.6699 90.5022 85.6699C89.425 85.6699 88.5518 86.5432 88.5518 87.6204C88.5518 88.6976 89.425 89.5708 90.5022 89.5708Z" fill="#212121"/>
<path d="M118.579 92.4038L99.6885 103.76V129.296L118.579 118.594V92.4038Z" fill="white"/>
<path d="M99.6886 130.173C99.5364 130.173 99.3842 130.134 99.2461 130.055C98.9755 129.897 98.812 129.609 98.812 129.297V103.76C98.812 103.453 98.9727 103.168 99.2376 103.008L118.128 91.6545C118.398 91.4911 118.737 91.4854 119.01 91.6433C119.286 91.7983 119.455 92.0914 119.455 92.4071V118.597C119.455 118.913 119.286 119.203 119.01 119.361L100.12 130.06C99.9845 130.137 99.838 130.173 99.6886 130.173ZM100.565 104.256V127.794L117.702 118.087V93.9573L100.565 104.256Z" fill="#212121"/>
<path d="M118.925 99.8613C121.701 99.4696 123.606 102.074 123.587 105.408C123.587 108.427 122.595 111.412 118.925 112.091C113.31 112.514 113.31 100.524 118.925 99.8613Z" fill="#D4CFFB"/>
<path d="M118.635 112.98C116.064 112.98 114.215 110.826 113.885 107.388C113.519 103.594 115.261 99.4197 118.812 98.9912C120.14 98.8052 121.371 99.1688 122.372 100.045C123.714 101.218 124.478 103.177 124.463 105.415C124.463 109.693 122.603 112.301 119.086 112.954C119.055 112.96 119.024 112.966 118.993 112.966C118.871 112.974 118.753 112.98 118.637 112.98H118.635ZM119.475 100.696C119.334 100.696 119.193 100.708 119.046 100.727C119.041 100.727 119.032 100.727 119.026 100.727C116.569 101.018 115.348 104.321 115.627 107.216C115.822 109.237 116.752 111.334 118.812 111.218C121.434 110.711 122.708 108.808 122.708 105.406C122.719 103.698 122.161 102.188 121.216 101.362C120.709 100.919 120.126 100.694 119.475 100.694V100.696Z" fill="#212121"/>
<path d="M8.63867 198.256V206.992C10.1943 206.975 11.6182 206.869 13.2441 206.518L13.5254 208.17C11.5127 208.609 9.77246 208.68 7.75977 208.68H6.6875V198.256H8.63867ZM11.1523 203.389V201.807H14.4746V197.008H16.3203V211.809H14.4746V203.389H11.1523ZM17.8672 212.564V196.674H19.7305V212.564H17.8672ZM34.8828 196.691V207.467H32.9316V202.773H29.9258V201.191H32.9316V196.691H34.8828ZM21.8574 201.033L27.5176 200.805C27.6846 200.339 27.79 199.847 27.8428 199.328H22.666V197.746H29.9082C29.9082 202.088 27.834 205.103 22.6484 206.764L21.8926 205.234C24.2656 204.479 25.8125 203.468 26.7354 202.237L22.1562 202.598L21.8574 201.033ZM23.457 210.93C26.6387 210.446 28.5986 208.627 28.6074 206.641V206.184H30.5586V206.641C30.5498 208.609 32.501 210.394 35.6738 210.912L34.8828 212.459C32.4219 212.037 30.5322 210.868 29.5742 209.233C28.6074 210.877 26.6914 212.046 24.2305 212.477L23.457 210.93ZM42.8105 200.488C42.793 203.327 44.2168 206.192 46.6777 207.379L45.4824 208.943C43.7598 208.073 42.5205 206.395 41.8438 204.373C41.1494 206.535 39.8486 208.328 38.0293 209.242L36.834 207.678C39.3916 206.465 40.8506 203.424 40.8594 200.488V197.957H42.8105V200.488ZM47.627 212.564V196.674H49.5781V202.896H52.0215V204.566H49.5781V212.564H47.627ZM58.7188 199.908C58.7188 201.886 60.0723 203.819 62.6035 204.602L61.6016 206.131C59.7998 205.551 58.4902 204.355 57.7607 202.844C57.0488 204.487 55.6953 205.797 53.8145 206.447L52.8125 204.9C55.3701 204.057 56.7324 202 56.75 199.908V199.451H53.3223V197.887H62.0586V199.451H58.7188V199.908ZM55.4141 212.248V207.168H57.3828V210.666H66.3652V212.248H55.4141ZM63.957 208.223V196.691H65.9258V208.223H63.957ZM75.4707 196.92C79.0918 196.929 81.1924 197.887 81.2012 199.645C81.1924 201.42 79.0918 202.378 75.4707 202.387C71.8584 202.378 69.7402 201.42 69.7402 199.645C69.7402 197.887 71.8584 196.929 75.4707 196.92ZM68.2461 204.795V203.23H82.7305V204.795H68.2461ZM69.9512 207.309V205.867H80.9199V209.752H71.8848V210.93H81.3594V212.424H69.9688V208.363H79.0039V207.309H69.9512ZM71.7969 199.645C71.7881 200.523 73.0537 200.928 75.4707 200.928C77.9229 200.928 79.1797 200.523 79.1797 199.645C79.1797 198.827 77.9229 198.361 75.4707 198.361C73.0537 198.361 71.7881 198.827 71.7969 199.645ZM102.559 206.219V207.818H96.2656V212.582H94.332V207.818H88.0742V206.219H102.559ZM88.8652 203.705C92.0381 203.318 94.1211 201.692 94.3145 200.102H89.4102V198.555H94.332V196.691H96.2656V198.555H101.205V200.102H96.3008C96.4854 201.675 98.5596 203.318 101.732 203.705L101.012 205.252C98.3838 204.918 96.3447 203.767 95.3164 202.237C94.2793 203.784 92.2139 204.918 89.5684 205.252L88.8652 203.705ZM116.076 196.674V202.879H118.432V204.514H116.076V212.529H114.125V196.674H116.076ZM103.543 208.188C107.41 206.254 109.502 203.564 109.889 199.943H104.404V198.326H111.875C111.866 202.993 109.933 207.098 104.65 209.699L103.543 208.188ZM126.939 199.205V200.77H119.152V199.205H122.105V197.131H124.039V199.205H126.939ZM119.609 205.305C119.592 203.143 121.06 201.604 123.072 201.613C125.094 201.604 126.535 203.143 126.535 205.305C126.535 207.511 125.094 209.049 123.072 209.049C121.06 209.049 119.592 207.511 119.609 205.305ZM121.332 205.305C121.323 206.588 122.044 207.388 123.072 207.379C124.092 207.388 124.812 206.588 124.812 205.305C124.812 204.057 124.092 203.23 123.072 203.23C122.044 203.23 121.323 204.057 121.332 205.305ZM127.607 211.844V197.008H129.436V203.213H130.982V196.674H132.846V212.564H130.982V204.795H129.436V211.844H127.607ZM138.559 196.92V198.168H145.414V196.92H147.348V202.211H142.918V203.424H149.229V204.971H134.744V203.424H140.984V202.211H136.625V196.92H138.559ZM136.449 207.414V205.973H147.418V209.822H138.383V210.93H147.857V212.424H136.467V208.451H145.502V207.414H136.449ZM138.559 200.752H145.414V199.592H138.559V200.752ZM162.975 196.674V203.02H165.172V204.637H162.975V212.564H161.006V196.674H162.975ZM150.072 208.012C152.305 205.639 153.043 203.116 153.201 199.943H150.705V198.344H155.064C155.056 202.51 154.467 206.017 151.602 209.119L150.072 208.012ZM154.572 209.066C156.84 206.359 157.481 203.389 157.604 199.943H155.592V198.344H159.459C159.45 202.615 159.002 206.693 156.137 210.139L154.572 209.066ZM168.547 207.098C168.564 204.856 169.197 204.171 170.305 203.494C171.052 203.011 171.632 202.422 171.623 201.543C171.632 200.559 170.858 199.926 169.9 199.926C169.03 199.926 168.187 200.488 168.125 201.666H165.928C165.989 199.302 167.747 198.098 169.918 198.098C172.291 198.098 173.917 199.416 173.926 201.508C173.917 202.94 173.205 203.872 172.062 204.549C171.043 205.173 170.621 205.779 170.604 207.098V207.256H168.547V207.098ZM168.266 209.77C168.257 209.031 168.881 208.425 169.637 208.416C170.366 208.425 170.99 209.031 170.99 209.77C170.99 210.525 170.366 211.141 169.637 211.141C168.881 211.141 168.257 210.525 168.266 209.77Z" fill="#5F6168"/>
<defs>
<filter id="filter0_d_1349_25896" x="49.0089" y="50.0334" width="82.1377" height="122.828" filterUnits="userSpaceOnUse" color-interpolation-filters="sRGB">
<feFlood flood-opacity="0" result="BackgroundImageFix"/>
<feColorMatrix in="SourceAlpha" type="matrix" values="0 0 0 0 0 0 0 0 0 0 0 0 0 0 0 0 0 0 127 0" result="hardAlpha"/>
<feMorphology radius="0.593317" operator="dilate" in="SourceAlpha" result="effect1_dropShadow_1349_25896"/>
<feOffset dy="0.593317"/>
<feGaussianBlur stdDeviation="1.48329"/>
<feComposite in2="hardAlpha" operator="out"/>
<feColorMatrix type="matrix" values="0 0 0 0 0 0 0 0 0 0 0 0 0 0 0 0 0 0 0.16 0"/>
<feBlend mode="normal" in2="BackgroundImageFix" result="effect1_dropShadow_1349_25896"/>
<feBlend mode="normal" in="SourceGraphic" in2="effect1_dropShadow_1349_25896" result="shape"/>
</filter>
</defs>
</svg>
