<svg width="164" height="246" viewBox="0 0 164 246" fill="none" xmlns="http://www.w3.org/2000/svg">
<rect x="0.5" y="0.5" width="163" height="245" rx="1.5" fill="white"/>
<g filter="url(#filter0_d_1840_42146)">
<path d="M83.5307 136C83.1982 136 82.8576 135.994 82.5181 135.984C75.9253 135.907 71.0252 134.041 67.5388 130.281C64.2441 126.73 62.4527 121.672 62.062 114.819V114.8L62.0574 114.734C61.6703 104.748 63.2385 98.0579 66.8506 94.2818C68.8617 92.1788 71.5054 91.0449 74.4966 91H74.6245C77.3808 91 79.7954 91.9345 81.6055 93.7033C81.7578 93.852 81.9055 94.0075 82.0496 94.1677C82.1217 94.087 82.1961 94.0075 82.2717 93.9292C83.9794 92.1581 86.251 91.2212 88.84 91.2212C89.0155 91.2212 89.1946 91.2259 89.3724 91.2339C91.794 91.3549 93.8912 92.339 95.4398 94.0801C97.8171 96.7535 98.8332 101.048 98.5321 107.186C99.7098 108.419 100.683 109.84 101.433 111.425C103.161 115.076 103.472 119.258 102.306 123.199C101.096 127.456 98.7204 130.739 95.2468 132.958C92.0881 134.976 88.1471 135.999 83.5307 135.999V136Z" fill="white"/>
<path d="M95.4791 108.892C96.055 99.9927 94.3748 95.9595 89.9158 95.2442C85.2837 95.0884 83.3132 98.5878 83.305 105.658C83.3132 98.3948 80.1419 95.2477 74.7342 95C68.6588 95.7094 65.6141 101.729 66.0391 113.828C65.9079 123.897 69.7202 129.908 76.9626 132.391C84.9539 133.621 93.4493 133.754 98.4993 125.21C101.228 118.198 100.243 112.75 95.4791 108.893V108.892Z" fill="#C5BDFF"/>
<path d="M73.9466 108.396C78.3235 104.588 85.1283 103.739 91.6196 106.349C96.9149 108.597 100.421 115.032 98.4394 121.709C96.5019 128.536 90.8955 132.271 82.0897 131.985C70.8687 131.864 65.7192 125.851 65.0541 114.098C64.537 100.813 67.7422 94.0943 74.0843 94.0004C79.8515 93.9488 81.4755 99.3755 81.5032 104.786" stroke="#212121" stroke-width="1.54639" stroke-linecap="round" stroke-linejoin="round"/>
<path d="M83.1018 105.858C82.4309 98.8837 85.1193 94.7787 89.8528 95.0092C94.9049 95.261 96.4947 100.86 95.8717 109" stroke="#212121" stroke-width="1.54639" stroke-linecap="round" stroke-linejoin="round"/>
<path d="M87.9423 117.5C87.9423 118.297 87.2965 118.942 86.5 118.942C85.7035 118.942 85.0577 118.297 85.0577 117.5C85.0577 116.703 85.7035 116.058 86.5 116.058C87.2965 116.058 87.9423 116.703 87.9423 117.5Z" fill="#212121" stroke="#212121" stroke-width="0.115488"/>
<path d="M93.9423 117.5C93.9423 118.297 93.2965 118.942 92.5 118.942C91.7035 118.942 91.0577 118.297 91.0577 117.5C91.0577 116.703 91.7035 116.058 92.5 116.058C93.2965 116.058 93.9423 116.703 93.9423 117.5Z" fill="#212121" stroke="#212121" stroke-width="0.115488"/>
</g>
<path d="M46.7273 164.039H46.7662V164V158.266C47.6148 159.351 48.8658 160.037 50.3158 160.037C52.9933 160.037 55.0388 157.571 55.0388 154.458C55.0388 151.344 52.9926 148.961 50.3158 148.961C48.7349 148.961 47.4477 149.684 46.6115 150.846V149.368V149.329H46.5727H44H43.9612V149.368V164V164.039H44H46.7273ZM52.1192 154.498C52.1192 156.121 50.9629 157.415 49.4333 157.415C47.8823 157.415 46.7075 156.081 46.7075 154.498C46.7075 152.914 47.9034 151.581 49.4333 151.581C50.9629 151.581 52.1192 152.874 52.1192 154.498Z" fill="#4A4A4A" stroke="#4A4A4A" stroke-width="0.077646"/>
<path d="M61.9901 160.039C65.4436 160.039 68.0388 157.596 68.0388 154.5C68.0388 151.404 65.4236 148.961 61.9901 148.961C58.5563 148.961 55.9612 151.404 55.9612 154.5C55.9612 157.596 58.5364 160.039 61.9901 160.039ZM61.9901 157.491C60.3154 157.491 59.085 156.167 59.085 154.5C59.085 152.855 60.3156 151.509 61.9901 151.509C63.665 151.509 64.915 152.836 64.915 154.5C64.915 156.164 63.665 157.491 61.9901 157.491Z" fill="#4A4A4A" stroke="#4A4A4A" stroke-width="0.077646"/>
<path d="M70.7273 164.039H70.7662V164V158.266C71.6148 159.351 72.8658 160.037 74.3158 160.037C76.9933 160.037 79.0388 157.571 79.0388 154.458C79.0388 151.344 76.9926 148.961 74.3158 148.961C72.7349 148.961 71.4477 149.684 70.6115 150.846V149.368V149.329H70.5727H68H67.9612V149.368V164V164.039H68H70.7273ZM76.1192 154.498C76.1192 156.121 74.9629 157.415 73.4333 157.415C71.8823 157.415 70.7075 156.081 70.7075 154.498C70.7075 152.914 71.9034 151.581 73.4333 151.581C74.9629 151.581 76.1192 152.874 76.1192 154.498Z" fill="#4A4A4A" stroke="#4A4A4A" stroke-width="0.077646"/>
<path d="M82.6741 160.039H82.6912L82.7027 160.026L82.7053 160.023L82.7156 160.012V159.997V154.03C82.7156 152.823 83.6941 152.12 84.5405 152.12C85.0218 152.12 85.4576 152.262 85.7732 152.588C86.0889 152.915 86.2897 153.432 86.2897 154.195V160V160.039H86.3285H89H89.0388V160V153.292C89.0388 152.115 88.6782 151.156 88.0726 150.492C87.4669 149.827 86.6185 149.459 85.6489 149.459C84.2583 149.459 83.2219 150.205 82.6371 150.942V144V143.961H82.5983H80H79.9612V144V160V160.039H80H82.6741Z" fill="#4A4A4A" stroke="#4A4A4A" stroke-width="0.077646"/>
<path d="M95.9901 160.039C99.4436 160.039 102.039 157.596 102.039 154.5C102.039 151.404 99.4236 148.961 95.9901 148.961C92.5563 148.961 89.9612 151.404 89.9612 154.5C89.9612 157.596 92.5364 160.039 95.9901 160.039ZM95.9901 157.491C94.3154 157.491 93.085 156.167 93.085 154.5C93.085 152.855 94.3156 151.509 95.9901 151.509C97.665 151.509 98.915 152.836 98.915 154.5C98.915 156.164 97.665 157.491 95.9901 157.491Z" fill="#4A4A4A" stroke="#4A4A4A" stroke-width="0.077646"/>
<path d="M104.878 160.039H104.916V160V159.997V154.93C104.916 154.557 105.161 154.1 105.607 153.734C106.051 153.37 106.691 153.1 107.473 153.1C107.552 153.1 107.652 153.105 107.747 153.117C107.842 153.129 107.928 153.148 107.983 153.176L108.039 153.204V153.141V150V149.961H108H107.656C106.903 149.961 106.261 150.315 105.762 150.764C105.324 151.158 104.994 151.629 104.795 152.003V150.061V150.022H104.756H102H101.961V150.061V160V160.039H102H104.878Z" fill="#4A4A4A" stroke="#4A4A4A" stroke-width="0.077646"/>
<path d="M114.848 164.039H114.941L114.891 163.988L120.036 150.013L120.056 149.961H120H117.164H117.137L117.128 149.987L114.769 156.818L112.124 149.986L112.114 149.961H112.088H109H108.941L108.964 150.015L113.359 160.133L111.976 163.987L111.957 164.039H112.013H114.848Z" fill="#4A4A4A" stroke="#4A4A4A" stroke-width="0.077646"/>
<rect x="0.5" y="0.5" width="163" height="245" rx="1.5" stroke="#F5F3F3"/>
<defs>
<filter id="filter0_d_1840_42146" x="59.0016" y="88.5014" width="46.9967" height="50.9967" filterUnits="userSpaceOnUse" color-interpolation-filters="sRGB">
<feFlood flood-opacity="0" result="BackgroundImageFix"/>
<feColorMatrix in="SourceAlpha" type="matrix" values="0 0 0 0 0 0 0 0 0 0 0 0 0 0 0 0 0 0 127 0" result="hardAlpha"/>
<feMorphology radius="0.499727" operator="dilate" in="SourceAlpha" result="effect1_dropShadow_1840_42146"/>
<feOffset dy="0.499727"/>
<feGaussianBlur stdDeviation="1.24932"/>
<feComposite in2="hardAlpha" operator="out"/>
<feColorMatrix type="matrix" values="0 0 0 0 0 0 0 0 0 0 0 0 0 0 0 0 0 0 0.16 0"/>
<feBlend mode="normal" in2="BackgroundImageFix" result="effect1_dropShadow_1840_42146"/>
<feBlend mode="normal" in="SourceGraphic" in2="effect1_dropShadow_1840_42146" result="shape"/>
</filter>
</defs>
</svg>
