<svg width="320" height="100" viewBox="0 0 320 100" fill="none" xmlns="http://www.w3.org/2000/svg">
<g clip-path="url(#clip0_1840_42106)">
<rect width="320" height="100" fill="#212121"/>
<path d="M108.175 29.8693H109.571V42.5435H108.175V36.3548H106.113V42.3208H104.718V29.9435H106.113V34.9746H108.175V29.8693ZM99.2116 40.4806H100.844C101.927 40.4806 103.026 40.2876 103.797 39.9908V41.2968C103.041 41.6233 101.824 41.7866 100.681 41.7866H97.772V30.2997H99.2116V40.4806ZM122.01 32.5852C120.615 34.1732 118.418 35.1675 116.281 35.212V33.9209C118.73 33.8318 121.461 32.0806 121.951 29.5725L123.42 29.81C123.301 30.4333 123.079 31.0269 122.752 31.576L128.139 34.1732L127.56 35.2862L122.01 32.5852ZM122.886 36.5922H128.481V37.8389H115.821V36.5922H121.402V34.4403H122.886V36.5922ZM118.196 38.8184V41.1336H127.828V42.395H116.697V38.8184H118.196ZM145.729 32.882H147.509V34.2919H145.729V39.2785H144.259V29.8693H145.729V32.882ZM142.152 33.6834C142.152 35.8057 140.653 37.364 138.204 37.364C135.755 37.364 134.242 35.8057 134.242 33.6834C134.242 31.5612 135.755 30.0029 138.204 30.0029C140.653 30.0029 142.152 31.5612 142.152 33.6834ZM135.711 33.6834C135.711 35.1824 136.705 36.1173 138.204 36.1173C139.688 36.1173 140.683 35.1824 140.683 33.6834C140.683 32.1845 139.688 31.2347 138.204 31.2347C136.705 31.2347 135.711 32.1845 135.711 33.6834ZM136.779 38.2396V41.0445H146.07V42.3802H135.281V38.2396H136.779ZM158.936 42.5435V29.8693H160.405V42.5435H158.936ZM152.881 38.1209C150.595 38.1209 148.963 36.4884 148.963 34.1287C148.963 31.769 150.595 30.1365 152.881 30.1365C155.151 30.1365 156.799 31.769 156.799 34.1287C156.799 36.4884 155.151 38.1209 152.881 38.1209ZM152.881 36.7852C154.38 36.7852 155.359 35.6424 155.359 34.1287C155.359 32.6149 154.38 31.4573 152.881 31.4573C151.367 31.4573 150.402 32.6149 150.402 34.1287C150.402 35.6424 151.367 36.7852 152.881 36.7852ZM148.532 41.7866V40.4064H153.712C155.448 40.4064 157.006 40.2134 157.867 39.8127V41.1781C157.021 41.564 155.448 41.7866 153.623 41.7866H148.532ZM177.757 29.8693H179.152V42.5435H177.757V29.8693ZM174.7 34.5294V29.9435H176.08V42.3208H174.7V35.8947H171.36V34.5294H174.7ZM168.793 40.4806H170.574C171.657 40.4806 172.755 40.3025 173.527 39.9908V41.282C172.77 41.6233 171.553 41.7866 170.41 41.7866H167.353V30.2997H168.793V40.4806ZM188.797 34.2474C187.877 36.6219 185.161 37.5124 181.644 37.5124V36.2657C184.36 36.2657 186.408 35.7463 187.268 34.3067H181.644V33.075H187.684C187.699 32.9117 187.714 32.7336 187.714 32.5407V31.4276H181.644V30.181H189.138V32.2587C189.138 32.4813 189.124 32.7039 189.109 32.9117H191.706V29.8693H193.175V38.6106H191.706V34.2474H188.797ZM193.695 41.371L193.116 42.5435L187.61 40.258C186.274 41.5936 184.241 42.3654 182.223 42.3802V41.1187C184.612 41.089 186.957 39.8572 187.506 37.6163L188.99 37.8982C188.871 38.388 188.664 38.8481 188.411 39.2636L193.695 41.371ZM204.245 33.5647V36.2064H202.85V29.9435H204.245V32.2735H206.308V29.8693H207.703V36.34H206.308V33.5647H204.245ZM201.589 33.0898C201.589 34.8855 200.416 36.2212 198.665 36.2212C196.914 36.2212 195.727 34.8855 195.727 33.0898C195.727 31.294 196.914 29.9732 198.665 29.9732C200.416 29.9732 201.589 31.294 201.589 33.0898ZM197.092 33.0898C197.092 34.2325 197.686 35.034 198.665 35.034C199.645 35.034 200.223 34.2325 200.223 33.0898C200.223 31.947 199.645 31.1456 198.665 31.1456C197.686 31.1456 197.092 31.947 197.092 33.0898ZM198.22 41.2375H208.015V42.3802H196.78V39.1449H206.264V38.1654H196.751V37.0226H207.703V40.2431H198.22V41.2375ZM220.257 29.8693H221.727V36.9633H220.257V33.8912H217.719V36.3548H210.314V30.0919H211.753V31.9025H216.28V30.0919H217.719V32.511H220.257V29.8693ZM211.753 35.1378H216.28V33.0898H211.753V35.1378ZM210.937 42.3802V37.6608H221.727V42.3802H210.937ZM212.406 38.8926V41.1484H220.257V38.8926H212.406Z" fill="white"/>
<path d="M117.89 58.1571C118.856 51.9249 117.455 48.8773 114.173 48.3513C110.765 48.237 108.941 50.5926 108.936 55.7843C108.941 50.4497 106.609 48.1398 102.629 47.9568C98.1579 48.4771 95.9223 52.8969 96.2311 61.7878C96.1338 69.1808 98.9412 73.6006 104.264 75.4245C110.142 76.3279 116.392 76.4251 120.108 70.1471C122.115 64.9955 121.389 60.9931 117.884 58.1628L117.89 58.1571Z" fill="#725BFF"/>
<path d="M103.504 59.2839C106.734 56.2535 110.748 55.0471 115.402 56.6709C120.422 58.7522 122 62.7603 120.828 68.3121C119.353 73.6582 115.036 75.8595 108.753 75.9738C100.468 75.8823 96.2938 71.4111 96.1737 62.6345C96.0422 52.8287 97.9805 48.1859 102.846 48.043C107.672 48.043 108.873 51.4793 108.678 56.2707" stroke="#212121" stroke-width="1.14289" stroke-linecap="round" stroke-linejoin="round"/>
<path d="M109.073 56.1272C108.85 51.2043 110.593 48.2368 113.812 48.3226C117.426 48.517 118.775 52.0734 117.901 57.9226" stroke="#212121" stroke-width="1.14289" stroke-linecap="round" stroke-linejoin="round"/>
<path d="M110.802 65.3788C111.342 65.3788 111.78 64.941 111.78 64.4011C111.78 63.8611 111.342 63.4233 110.802 63.4233C110.262 63.4233 109.824 63.8611 109.824 64.4011C109.824 64.941 110.262 65.3788 110.802 65.3788Z" fill="#212121"/>
<path d="M116.1 65.379C116.64 65.379 117.077 64.9413 117.077 64.4013C117.077 63.8613 116.64 63.4236 116.1 63.4236C115.56 63.4236 115.122 63.8613 115.122 64.4013C115.122 64.9413 115.56 65.379 116.1 65.379Z" fill="#212121"/>
<g opacity="0.94" clip-path="url(#clip1_1840_42106)">
<g clip-path="url(#clip2_1840_42106)">
<path d="M134.212 72.822H134.259V72.7749V66.0916C135.317 67.3582 136.877 68.1588 138.685 68.1588C142.018 68.1588 144.57 65.2865 144.57 61.6549C144.57 58.0223 142.017 55.2473 138.685 55.2473C136.714 55.2473 135.109 56.0906 134.066 57.448V55.7229V55.6758H134.019H130.813H130.766V55.7229V72.7749V72.822H130.813H134.212ZM140.934 61.7014C140.934 63.5896 139.495 65.0986 137.585 65.0986C135.648 65.0986 134.186 63.5428 134.186 61.7014C134.186 59.8602 135.674 58.3042 137.585 58.3042C139.495 58.3042 140.934 59.8132 140.934 61.7014Z" fill="white" stroke="white" stroke-width="0.0942379"/>
<path d="M152.129 68.3015C156.173 68.3015 159.211 65.3902 159.211 61.7013C159.211 58.0123 156.15 55.1011 152.129 55.1011C148.108 55.1011 145.071 58.0125 145.071 61.7013C145.071 65.39 148.085 68.3015 152.129 68.3015ZM152.129 65.2645C150.171 65.2645 148.731 63.6874 148.731 61.7013C148.731 59.7415 150.171 58.1381 152.129 58.1381C154.088 58.1381 155.551 59.7189 155.551 61.7013C155.551 63.6837 154.088 65.2645 152.129 65.2645Z" fill="white" stroke="white" stroke-width="0.0942379"/>
<path d="M163.379 72.822H163.426V72.7749V66.0916C164.484 67.3582 166.044 68.1588 167.852 68.1588C171.185 68.1588 173.737 65.2865 173.737 61.6549C173.737 58.0223 171.184 55.2473 167.852 55.2473C165.881 55.2473 164.276 56.0906 163.233 57.448V55.7229V55.6758H163.186H159.98H159.933V55.7229V72.7749V72.822H159.98H163.379ZM170.101 61.7014C170.101 63.5896 168.662 65.0986 166.752 65.0986C164.815 65.0986 163.353 63.5428 163.353 61.7014C163.353 59.8602 164.841 58.3042 166.752 58.3042C168.662 58.3042 170.101 59.8132 170.101 61.7014Z" fill="white" stroke="white" stroke-width="0.0942379"/>
<path d="M177.977 67.73H177.997L178.011 67.7162L178.014 67.7129L178.028 67.6991V67.6795V60.7212C178.028 59.3191 179.269 58.4965 180.35 58.4965C180.963 58.4965 181.518 58.6621 181.92 59.0432C182.321 59.4239 182.576 60.0262 182.576 60.9139V67.6829V67.73H182.623H186.019H186.066V67.6829V59.861C186.066 58.4868 185.607 57.3683 184.837 56.5932C184.067 55.8181 182.989 55.3898 181.759 55.3898C179.989 55.3898 178.671 56.2628 177.928 57.124V49.0266V48.9795H177.881H174.578H174.531V49.0266V67.6829V67.73H174.578H177.977Z" fill="white" stroke="white" stroke-width="0.0942379"/>
<path d="M193.981 68.3015C198.025 68.3015 201.063 65.3902 201.063 61.7013C201.063 58.0123 198.001 55.1011 193.981 55.1011C189.96 55.1011 186.922 58.0125 186.922 61.7013C186.922 65.39 189.937 68.3015 193.981 68.3015ZM193.981 65.2645C192.022 65.2645 190.582 63.6874 190.582 61.7013C190.582 59.7415 192.023 58.1381 193.981 58.1381C195.94 58.1381 197.403 59.7189 197.403 61.7013C197.403 63.6837 195.94 65.2645 193.981 65.2645Z" fill="white" stroke="white" stroke-width="0.0942379"/>
<path d="M205.23 67.7299H205.277V67.6828V67.6795V61.5814C205.277 61.1332 205.566 60.5831 206.092 60.1433C206.616 59.7047 207.371 59.38 208.294 59.38C208.387 59.38 208.504 59.3857 208.616 59.4003C208.728 59.4151 208.83 59.4384 208.893 59.4711L208.962 59.5062V59.4292V55.6494V55.6023H208.915H208.51C207.62 55.6023 206.861 56.0284 206.273 56.5684C205.757 57.0418 205.369 57.6053 205.134 58.0548V55.7225V55.6754H205.087H201.834H201.787V55.7225V67.6828V67.7299H201.834H205.23Z" fill="white" stroke="white" stroke-width="0.0942379"/>
<path d="M216.777 72.8217H216.891L216.828 72.7594L223.208 55.7358L223.231 55.6721H223.163H219.648H219.614L219.603 55.7036L216.678 64.0273L213.398 55.702L213.386 55.6721H213.354H209.526H209.454L209.483 55.7383L214.932 68.0632L213.217 72.7584L213.194 72.8217H213.261H216.777Z" fill="white" stroke="white" stroke-width="0.0942379"/>
</g>
</g>
<g opacity="0.9">
<g filter="url(#filter0_d_1840_42106)">
<path d="M34.4074 108.724C31.4797 109.627 28.364 107.981 27.4603 105.054L12.5297 56.6826C11.626 53.7549 13.2719 50.6391 16.1996 49.7355L50.9713 39.0026C55.6089 37.5711 60.5468 40.1797 61.9783 44.8172L74.9937 86.9839C76.4252 91.6215 73.8166 96.5594 69.1791 97.9909L34.4074 108.724Z" fill="white"/>
</g>
<path d="M17.3179 53.3599L52.0896 42.627C54.7316 41.8115 57.5376 43.2938 58.3531 45.9358L71.3686 88.1025C72.1841 90.7445 70.7017 93.5505 68.0597 94.366L33.2881 105.099C32.3588 105.386 31.3713 104.864 31.0844 103.935L16.1538 55.5635C15.867 54.6343 16.3887 53.6467 17.3179 53.3599Z" fill="#725BFF" stroke="black" stroke-width="1.7" stroke-miterlimit="10"/>
<path d="M53.4774 65.5101L63.0902 62.5429L65.8542 71.4977L56.2415 74.4649C53.7697 75.2278 51.145 73.8412 50.382 71.3695C49.6191 68.8978 51.0057 66.273 53.4774 65.5101Z" fill="black" stroke="black" stroke-width="2.02203" stroke-miterlimit="10"/>
<path d="M55.6864 72.1326C56.8977 71.7587 57.5765 70.4737 57.2026 69.2624C56.8288 68.0511 55.5437 67.3722 54.3324 67.7461C53.1211 68.12 52.4423 69.405 52.8161 70.6163C53.19 71.8276 54.4751 72.5065 55.6864 72.1326Z" fill="#725BFF"/>
</g>
<g opacity="0.9">
<g filter="url(#filter1_d_1840_42106)">
<path d="M271.785 49.9081C268.415 50.84 264.915 48.8572 263.983 45.4872C263.795 44.8051 263.723 44.1015 263.767 43.4023L258.298 41.6031C257.476 43.0555 256.099 44.1567 254.466 44.6085C251.096 45.5413 247.597 43.5583 246.665 40.1883C245.732 36.8182 247.715 33.319 251.085 32.3869C252.567 31.9771 254.102 32.1145 255.458 32.7522L259.442 28.1483C259.136 27.6474 258.899 27.1036 258.742 26.5361C257.81 23.1668 259.793 19.6676 263.163 18.7356C266.533 17.8035 270.032 19.7865 270.964 23.1565C271.896 26.5266 269.913 30.0258 266.543 30.9579C265.179 31.3353 263.743 31.2416 262.453 30.7122L258.343 35.462C258.575 35.8856 258.756 36.3352 258.887 36.8086C258.968 37.1 259.027 37.3954 259.065 37.6938L265.236 39.7241C266.054 38.7427 267.147 38.0345 268.404 37.6866C271.774 36.7545 275.274 38.7375 276.206 42.1075C277.138 45.4776 275.155 48.9768 271.785 49.9089L271.785 49.9081Z" fill="white"/>
</g>
<path d="M266.016 29.0518C268.339 28.4095 269.701 26.0059 269.058 23.6834C268.416 21.3608 266.013 19.9987 263.69 20.6411C261.367 21.2835 260.005 23.687 260.648 26.0096C261.29 28.3321 263.694 29.6942 266.016 29.0518Z" fill="#725BFF" stroke="black" stroke-width="1.05401" stroke-linecap="round" stroke-linejoin="round"/>
<path d="M271.258 48.0025C273.58 47.3601 274.942 44.9566 274.3 42.634C273.658 40.3115 271.254 38.9494 268.931 39.5918C266.609 40.2341 265.247 42.6377 265.889 44.9602C266.532 47.2828 268.935 48.6449 271.258 48.0025Z" fill="#725BFF" stroke="black" stroke-width="1.05401" stroke-linecap="round" stroke-linejoin="round"/>
<path d="M253.939 42.7042C256.261 42.0618 257.623 39.6583 256.981 37.3357C256.339 35.0132 253.935 33.6511 251.613 34.2934C249.29 34.9358 247.928 37.3393 248.57 39.6619C249.213 41.9845 251.616 43.3465 253.939 42.7042Z" fill="#725BFF" stroke="black" stroke-width="1.05401" stroke-linecap="round" stroke-linejoin="round"/>
<path d="M261.922 28.3047L255.812 35.365" stroke="black" stroke-width="1.05401" stroke-linecap="round" stroke-linejoin="round"/>
<path d="M257.126 39.1375L265.995 42.0545" stroke="black" stroke-width="1.05401" stroke-linecap="round" stroke-linejoin="round"/>
</g>
<g opacity="0.9">
<g filter="url(#filter2_d_1840_42106)">
<path d="M275.287 78.1681C274.253 77.8645 273.659 76.7766 273.962 75.7429L276.445 67.2898C276.748 66.256 277.836 65.662 278.87 65.9656L281.383 66.7036C282.417 67.0072 283.011 68.0951 282.708 69.1289L281.484 73.2955L293.015 76.6816L294.239 72.515C294.542 71.4812 295.63 70.8872 296.664 71.1907L299.177 71.9288C300.211 72.2324 300.805 73.3203 300.502 74.3541L298.019 82.8071C297.716 83.8409 296.628 84.4349 295.594 84.1314L275.287 78.1681Z" fill="white"/>
</g>
<g filter="url(#filter3_d_1840_42106)">
<path d="M287.596 73.8112C287.027 73.644 286.57 73.2342 286.342 72.6866L283.103 64.8996C282.816 64.2087 282.952 63.4016 283.453 62.8445C283.952 62.2872 284.74 62.0631 285.458 62.2741L285.938 62.415L287.892 55.7617C288.195 54.7279 289.283 54.1339 290.317 54.4375L295.782 56.0422C296.816 56.3458 297.41 57.4337 297.106 58.4675L295.152 65.1208L295.632 65.2618C296.351 65.4727 296.892 66.0863 297.011 66.8259C297.13 67.5655 296.809 68.3179 296.194 68.7438L289.259 73.5431C288.771 73.8806 288.165 73.9783 287.596 73.8112Z" fill="white"/>
</g>
<path d="M278.319 67.8411L275.837 76.2935L296.145 82.2569L298.627 73.8045L296.114 73.0664L294.34 79.1078L279.059 74.6207L280.833 68.5793L278.319 67.8411Z" fill="#725BFF" stroke="black" stroke-width="0.934382" stroke-linecap="round" stroke-linejoin="round"/>
<path d="M292.499 57.1147L295.231 57.9171L292.727 66.4452L295.082 67.1366L288.146 71.9365L284.907 64.1489L287.262 64.8404L289.766 56.3123L292.499 57.1147Z" fill="#725BFF" stroke="black" stroke-width="0.934382" stroke-linecap="round" stroke-linejoin="round"/>
</g>
</g>
<defs>
<filter id="filter0_d_1840_42106" x="11.5269" y="38.3081" width="64.6143" height="71.8714" filterUnits="userSpaceOnUse" color-interpolation-filters="sRGB">
<feFlood flood-opacity="0" result="BackgroundImageFix"/>
<feColorMatrix in="SourceAlpha" type="matrix" values="0 0 0 0 0 0 0 0 0 0 0 0 0 0 0 0 0 0 127 0" result="hardAlpha"/>
<feOffset dy="0.45303"/>
<feGaussianBlur stdDeviation="0.377525"/>
<feComposite in2="hardAlpha" operator="out"/>
<feColorMatrix type="matrix" values="0 0 0 0 0 0 0 0 0 0 0 0 0 0 0 0 0 0 0.18 0"/>
<feBlend mode="normal" in2="BackgroundImageFix" result="effect1_dropShadow_1840_42106"/>
<feBlend mode="normal" in="SourceGraphic" in2="effect1_dropShadow_1840_42106" result="shape"/>
</filter>
<filter id="filter1_d_1840_42106" x="246.041" y="18.3479" width="30.7889" height="32.42" filterUnits="userSpaceOnUse" color-interpolation-filters="sRGB">
<feFlood flood-opacity="0" result="BackgroundImageFix"/>
<feColorMatrix in="SourceAlpha" type="matrix" values="0 0 0 0 0 0 0 0 0 0 0 0 0 0 0 0 0 0 127 0" result="hardAlpha"/>
<feOffset dy="0.236148"/>
<feGaussianBlur stdDeviation="0.19679"/>
<feComposite in2="hardAlpha" operator="out"/>
<feColorMatrix type="matrix" values="0 0 0 0 0 0 0 0 0 0 0 0 0 0 0 0 0 0 0.2 0"/>
<feBlend mode="normal" in2="BackgroundImageFix" result="effect1_dropShadow_1840_42106"/>
<feBlend mode="normal" in="SourceGraphic" in2="effect1_dropShadow_1840_42106" result="shape"/>
</filter>
<filter id="filter2_d_1840_42106" x="273.534" y="65.7467" width="27.3956" height="19.0223" filterUnits="userSpaceOnUse" color-interpolation-filters="sRGB">
<feFlood flood-opacity="0" result="BackgroundImageFix"/>
<feColorMatrix in="SourceAlpha" type="matrix" values="0 0 0 0 0 0 0 0 0 0 0 0 0 0 0 0 0 0 127 0" result="hardAlpha"/>
<feOffset dy="0.209346"/>
<feGaussianBlur stdDeviation="0.174455"/>
<feComposite in2="hardAlpha" operator="out"/>
<feColorMatrix type="matrix" values="0 0 0 0 0 0 0 0 0 0 0 0 0 0 0 0 0 0 0.18 0"/>
<feBlend mode="normal" in2="BackgroundImageFix" result="effect1_dropShadow_1840_42106"/>
<feBlend mode="normal" in="SourceGraphic" in2="effect1_dropShadow_1840_42106" result="shape"/>
</filter>
<filter id="filter3_d_1840_42106" x="282.606" y="54.2186" width="14.9288" height="20.2308" filterUnits="userSpaceOnUse" color-interpolation-filters="sRGB">
<feFlood flood-opacity="0" result="BackgroundImageFix"/>
<feColorMatrix in="SourceAlpha" type="matrix" values="0 0 0 0 0 0 0 0 0 0 0 0 0 0 0 0 0 0 127 0" result="hardAlpha"/>
<feOffset dy="0.209346"/>
<feGaussianBlur stdDeviation="0.174455"/>
<feComposite in2="hardAlpha" operator="out"/>
<feColorMatrix type="matrix" values="0 0 0 0 0 0 0 0 0 0 0 0 0 0 0 0 0 0 0.18 0"/>
<feBlend mode="normal" in2="BackgroundImageFix" result="effect1_dropShadow_1840_42106"/>
<feBlend mode="normal" in="SourceGraphic" in2="effect1_dropShadow_1840_42106" result="shape"/>
</filter>
<clipPath id="clip0_1840_42106">
<rect width="320" height="100" fill="white"/>
</clipPath>
<clipPath id="clip1_1840_42106">
<rect width="93.9508" height="32.5214" fill="white" transform="translate(130.196 44.7046)"/>
</clipPath>
<clipPath id="clip2_1840_42106">
<rect width="93.6853" height="32.5031" fill="white" transform="translate(130.196 44.7046)"/>
</clipPath>
</defs>
</svg>
