<svg width="188" height="188" viewBox="0 0 188 188" fill="none" xmlns="http://www.w3.org/2000/svg">
<g clip-path="url(#clip0_1345_32027)">
<g clip-path="url(#clip1_1345_32027)">
<g filter="url(#filter0_d_1345_32027)">
<path d="M131.917 98.1081C128.746 100.092 125.565 101.032 122.464 100.902C121.22 100.853 120.003 100.445 118.955 99.7249L115.334 97.2339C113.647 96.0745 112.664 94.1578 112.708 92.1079C112.752 90.0564 113.815 88.1841 115.551 87.0984C116.178 86.7061 116.866 86.4347 117.594 86.291C118.416 86.1296 119.213 85.8322 119.785 85.4743C120.201 85.2145 120.488 84.9374 120.664 84.6276C121.161 83.7496 121.876 83.003 122.731 82.4685C124.53 81.3436 126.737 81.2341 128.636 82.1762L134.517 85.0926C136.279 85.9656 137.514 87.6492 137.816 89.5955C138.118 91.5411 137.453 93.5181 136.037 94.8855C135.166 95.7254 133.745 96.9649 131.917 98.1081Z" fill="white"/>
<path d="M132.042 75.2716C130.488 76.2438 128.597 76.468 126.854 75.8872C125.115 75.3079 123.739 73.9933 123.078 72.2809L121.252 67.5539C120.784 66.3365 120.667 65.0352 120.911 63.7802C122.247 56.9139 128.348 52.3606 130.909 50.7219L130.964 50.688C132.639 49.6402 134.729 49.4665 136.555 50.2234C138.382 50.9807 139.737 52.584 140.18 54.5116L141.879 61.8909C142.462 64.4376 141.366 67.0742 139.153 68.458L139.153 68.4583C138.671 68.7594 138.15 68.9925 137.604 69.1507C137.332 69.2294 137.077 69.3452 136.82 69.5057C135.913 70.0726 134.996 71.2373 134.364 72.6217C133.863 73.7188 133.06 74.6349 132.042 75.2716Z" fill="white"/>
<path d="M155.837 119.25C153.445 120.745 150.29 120.349 148.334 118.307C148.122 118.085 147.329 117.88 146.411 117.929C143.999 118.056 141.76 116.734 140.708 114.561C139.655 112.385 140.006 109.807 141.604 107.994L143.956 105.318C144.369 104.846 144.858 104.43 145.4 104.091C145.892 103.783 146.422 103.543 146.977 103.377C152.321 101.79 157.65 104.344 159.694 105.515C161.387 106.489 162.499 108.223 162.677 110.158C162.856 112.093 162.08 114.001 160.601 115.263L156.553 118.723C156.331 118.913 156.089 119.092 155.837 119.25Z" fill="white"/>
<path d="M125.529 59.0769C124.541 59.6948 123.453 60.094 122.298 60.2636C117.72 60.935 113.448 57.7563 112.777 53.1781C112.294 49.8815 113.807 46.6102 116.632 44.8435C117.62 44.2256 118.707 43.8264 119.863 43.6568C124.441 42.9854 128.712 46.1641 129.383 50.7423C129.867 54.0386 128.354 57.31 125.529 59.0769Z" fill="white"/>
<path d="M168.997 112.705C166.801 114.078 163.982 113.896 161.982 112.251L161.033 111.471L159.813 111.326C157.623 111.064 155.757 109.634 154.937 107.592C154.117 105.55 154.476 103.225 155.874 101.526L156.653 100.577L156.799 99.3562C157.015 97.5371 158.029 95.9351 159.583 94.9631C161.778 93.5906 164.596 93.772 166.596 95.4149L167.547 96.1974L168.768 96.3423C170.948 96.5975 172.819 98.0275 173.642 100.073C174.465 102.117 174.105 104.445 172.704 106.146L171.927 107.09L171.782 108.311C171.567 110.13 170.552 111.733 168.997 112.705Z" fill="white"/>
<path d="M130.882 50.2433C128.381 51.8075 125.106 51.5194 122.919 49.5428L121.524 48.2829L119.696 48.7168C117.223 49.304 114.679 48.453 113.058 46.495C111.436 44.5372 111.074 41.8793 112.113 39.5588L112.881 37.8438L111.903 36.2396C110.023 33.1507 110.987 29.0809 114.052 27.1644C115.3 26.3835 116.798 26.04 118.269 26.1974L120.138 26.3971L121.362 24.9711C121.801 24.46 122.312 24.0198 122.881 23.6637C124.713 22.5185 126.997 22.3412 128.991 23.1897C130.98 24.0363 132.434 25.8057 132.879 27.9233L133.267 29.7615L135.002 30.4848C137.3 31.4434 138.853 33.5805 139.057 36.0619C139.26 38.5433 138.076 40.9039 135.967 42.223L135.754 42.3504L134.124 43.2873L133.972 45.1605C133.803 47.2382 132.648 49.1389 130.882 50.2433Z" fill="white"/>
<path d="M153.407 136.861C153.016 137.106 152.594 137.308 152.151 137.462C151.019 137.858 149.884 138.246 148.747 138.629L148.217 138.808C145.765 139.634 143.23 140.488 140.701 141.288C137.462 142.312 134.151 142.878 130.859 142.971C129.686 143.003 128.131 143.007 126.493 142.738C124.629 142.431 123.011 141.778 121.712 141.254C120.563 140.79 119.05 140.125 117.531 139.096C117.13 138.824 116.768 138.55 116.457 138.304C115.012 140.852 113.023 142.948 110.517 144.515C107.39 146.47 103.697 147.355 99.7853 147.093L34.8729 159.799C33.595 160.05 32.3434 160.161 31.1525 160.13C30.5814 160.116 30.0374 160.071 29.5341 159.996C22.932 159.022 19.4714 153.893 18.9165 153.002C18.3586 152.113 15.2615 146.756 17.2753 140.394C17.4299 139.907 17.628 139.397 17.8645 138.878C18.3572 137.796 19.0055 136.719 19.7902 135.68L59.6295 82.8798C61.1067 79.2486 63.5179 76.3156 66.6454 74.3598C71.6848 71.2084 77.7314 70.8711 84.1439 73.2814C83.8793 72.9649 83.6283 72.6355 83.3904 72.2924C82.9607 71.6729 82.5771 71.0407 82.2487 70.4117C81.1882 68.3808 80.6613 66.308 80.6813 64.2495C80.7167 60.7161 82.4322 57.9575 83.9225 55.9489C84.0753 55.7427 84.2313 55.5424 84.3908 55.3442C85.437 54.043 86.5369 53.0412 87.7544 52.2798C88.0544 52.0921 88.3647 51.9181 88.6767 51.7619C91.4453 50.3763 94.2019 50.4522 96.5331 50.7091C98.5705 50.9336 100.527 51.3383 102.355 51.7345C103.741 52.0338 105.17 52.4135 106.723 52.894C107.547 53.1496 108.427 53.4383 109.413 53.7774C109.894 53.9426 110.374 54.1112 110.853 54.2818L110.947 54.3097C112.464 54.7547 115.619 55.6809 116.244 59.2554C116.244 59.2554 117.306 65.2546 117.316 65.3112C117.749 67.7478 116.671 70.1748 114.568 71.4896C112.882 72.5441 110.785 72.7016 108.959 71.9103C108.74 71.8154 108.522 71.7217 108.306 71.6299C109.77 73.9894 110.753 77.0203 109.85 80.4148C109.799 80.6036 109.743 80.7904 109.685 80.9774L109.649 81.0943C109.621 81.1891 109.588 81.2926 109.555 81.3953C109.406 81.8706 109.191 82.5357 108.897 83.235C108.187 84.9289 107.282 86.3112 106.573 87.3266C106.038 88.0928 105.433 88.9594 104.684 89.828C106.321 91.9215 107.874 94.1398 109.327 96.4633C110.687 98.6374 111.924 100.846 113.03 103.073C114.422 102.309 115.82 101.853 117.281 101.686C119.042 101.486 120.856 101.702 122.829 102.347C123.063 102.423 123.308 102.508 123.549 102.597C125.897 103.466 128.84 104.84 130.8 107.781C131.94 109.492 132.631 111.516 132.852 113.797C132.921 114.511 132.945 115.251 132.923 116.001C132.851 118.457 132.149 120.764 130.777 123.053C130.169 124.068 129.508 124.973 128.925 125.771C128.498 126.356 128.095 126.907 127.771 127.421C127.668 127.584 127.573 127.742 127.485 127.894C131.978 127.557 136.767 125.533 141.411 123.569C142.025 123.31 142.635 123.051 143.242 122.799C145.2 121.984 147.463 122.27 149.152 123.543L153.776 127.023C155.383 128.232 156.293 130.125 156.208 132.087C156.125 134.031 155.077 135.817 153.407 136.861ZM94.4413 79.2881C94.3925 79.2635 94.3442 79.2387 94.2938 79.2141C94.3323 79.2445 94.3704 79.2752 94.4088 79.3056C94.4197 79.2999 94.431 79.2939 94.4413 79.2881Z" fill="white"/>
</g>
<path d="M118.688 91.839C120.395 91.5036 123.854 90.4663 125.583 87.4161C125.692 87.2243 125.926 87.1442 126.123 87.2424L132.005 90.1588C132.257 90.284 132.312 90.6211 132.109 90.8169C130.869 92.0131 126.942 95.4296 122.701 95.2518C122.507 95.2437 122.319 95.1754 122.159 95.065L118.54 92.5753C118.242 92.3703 118.334 91.9083 118.688 91.839Z" fill="#44C1F3" stroke="#212121" stroke-width="1.88508" stroke-miterlimit="10" stroke-linecap="round" stroke-linejoin="round"/>
<path d="M129.219 70.2744C130.052 68.4484 132.143 64.8435 136.028 63.7192C136.273 63.6486 136.425 63.4078 136.368 63.1598L134.669 55.7784C134.596 55.4616 134.232 55.31 133.958 55.4853C132.284 56.5568 127.399 60.0496 126.463 64.8575C126.42 65.0777 126.447 65.3066 126.528 65.5157L128.354 70.2438C128.504 70.632 129.047 70.6529 129.219 70.2744Z" fill="#FDD931" stroke="#212121" stroke-width="1.88508" stroke-miterlimit="10" stroke-linecap="round" stroke-linejoin="round"/>
<path d="M146.11 112.281C147.52 112.206 150.451 112.337 152.418 114.395C152.541 114.525 152.741 114.541 152.878 114.425L156.93 110.961C157.104 110.812 157.08 110.536 156.882 110.422C155.668 109.726 151.898 107.816 148.593 108.797C148.442 108.842 148.307 108.933 148.203 109.052L145.848 111.731C145.654 111.951 145.818 112.297 146.11 112.281Z" fill="#55E99F" stroke="#212121" stroke-width="1.88508" stroke-miterlimit="10" stroke-linecap="round" stroke-linejoin="round"/>
<path d="M122.532 54.2805C123.814 53.479 124.203 51.7902 123.402 50.5085C122.6 49.2268 120.911 48.8376 119.63 49.6391C118.348 50.4406 117.959 52.1294 118.76 53.411C119.562 54.6927 121.25 55.082 122.532 54.2805Z" fill="#44C1F3" stroke="#212121" stroke-width="1.88508" stroke-miterlimit="10" stroke-linecap="round" stroke-linejoin="round"/>
<path d="M163.007 99.7852L165.154 101.55C165.208 101.594 165.273 101.622 165.342 101.63L168.101 101.958C168.387 101.991 168.523 102.328 168.34 102.55L166.575 104.697C166.531 104.751 166.503 104.816 166.495 104.885L166.167 107.645C166.133 107.93 165.797 108.066 165.575 107.883L163.428 106.118C163.374 106.074 163.309 106.046 163.24 106.038L160.48 105.71C160.195 105.677 160.059 105.34 160.242 105.118L162.007 102.971C162.051 102.917 162.079 102.852 162.087 102.783L162.415 100.023C162.449 99.7376 162.785 99.6024 163.007 99.7852Z" fill="#FDD931" stroke="#212121" stroke-width="1.88508" stroke-miterlimit="10" stroke-linecap="round" stroke-linejoin="round"/>
<path d="M127.345 29.0885L128.239 33.3355C128.305 33.6493 128.521 33.9104 128.817 34.0338L132.823 35.7047C133.568 36.0156 133.634 37.046 132.934 37.4482L129.171 39.6115C128.893 39.7715 128.712 40.0579 128.686 40.3775L128.335 44.7036C128.269 45.5082 127.309 45.8889 126.71 45.3476L123.49 42.4376C123.253 42.2228 122.924 42.1385 122.612 42.2126L118.389 43.2155C117.603 43.402 116.945 42.6066 117.274 41.8697L119.047 37.9082C119.178 37.6156 119.156 37.2772 118.99 37.0035L116.731 33.2973C116.311 32.6079 116.864 31.736 117.667 31.8219L121.982 32.2835C122.301 32.3176 122.616 32.1927 122.825 31.9494L125.652 28.6559C126.178 28.042 127.178 28.2986 127.345 29.0885Z" fill="#55E99F" stroke="#212121" stroke-width="1.88508" stroke-miterlimit="10" stroke-linecap="round" stroke-linejoin="round"/>
<path d="M51.733 116.905C51.3605 111.672 51.6081 106.609 52.3837 101.874L44.9047 111.786L34.81 125.165L32.2644 128.538C34.1889 138.222 38.21 146.549 43.4894 152.35L50.9031 150.899L63.3003 148.472C57.0245 140.836 52.6384 129.631 51.733 116.905Z" fill="white" stroke="#212121" stroke-width="1.88508" stroke-miterlimit="10" stroke-linecap="round" stroke-linejoin="round"/>
<path d="M32.2642 128.539L24.3047 139.087C23.8005 139.756 23.3557 140.467 23.0102 141.226C22.8817 141.507 22.7611 141.806 22.6675 142.103C21.3304 146.325 23.7115 150.005 23.7115 150.005C23.7115 150.005 25.9772 153.756 30.3591 154.402C30.6667 154.448 30.9885 154.47 31.2975 154.478C32.1307 154.499 32.9654 154.411 33.7869 154.25L43.4885 152.351C38.2098 146.55 34.1887 138.223 32.2642 128.539Z" fill="#725BFF" stroke="#212121" stroke-width="1.88508" stroke-miterlimit="10" stroke-linecap="round" stroke-linejoin="round"/>
<path d="M72.3946 115.435C71.38 101.174 74.9573 88.1795 81.3294 79.6335C77.9095 78.4871 74.0198 78.0854 70.9163 79.5488C69.148 80.3822 67.6299 81.6673 66.4561 83.2228L63.6799 86.9021L54.553 98.9979L52.3834 101.874C51.6078 106.609 51.3604 111.672 51.7327 116.905C52.6385 129.631 57.0246 140.836 63.2994 148.472L67.3502 147.679L82.2461 144.763C76.8939 137.252 73.2152 126.968 72.3946 115.435Z" fill="#725BFF" stroke="#212121" stroke-width="1.88508" stroke-miterlimit="10" stroke-linecap="round" stroke-linejoin="round"/>
<path d="M93.0561 113.965C93.7967 124.373 96.8678 133.761 101.393 141.016L102.466 140.806C104.378 140.431 106.198 139.629 107.722 138.404C111.654 135.242 112.71 128.785 112.328 124.187C111.616 115.614 108.001 107.231 103.719 99.9714C101.438 96.5259 98.8413 93.1082 95.9185 89.9996C93.5273 97.0355 92.4372 105.265 93.0561 113.965Z" fill="#725BFF" stroke="#212121" stroke-width="1.88508" stroke-miterlimit="10" stroke-linecap="round" stroke-linejoin="round"/>
<path d="M81.329 79.6339C74.9571 88.1803 71.3795 101.175 72.3941 115.435C73.2147 126.968 76.8935 137.252 82.2457 144.764L83.0712 144.602L97.9418 141.691L101.392 141.016C96.8671 133.761 93.796 124.373 93.0553 113.965C92.4364 105.265 93.5266 97.0352 95.9174 89.9995C92.8781 86.7676 89.4844 83.8696 85.7139 81.6302C84.4453 80.8761 82.9387 80.1735 81.329 79.6339Z" fill="white" stroke="#212121" stroke-width="1.88508" stroke-miterlimit="10" stroke-linecap="round" stroke-linejoin="round"/>
<path d="M107.018 138.92C102.498 141.747 96.336 140.872 89.6683 136.454C83.8662 132.61 78.0986 126.38 73.4284 118.912C68.7583 111.444 65.6816 103.532 64.7656 96.6324C63.7126 88.7038 65.6224 82.7805 70.1427 79.9537C74.6631 77.1269 80.8251 78.0025 87.4928 82.4198C93.2942 86.2634 99.0616 92.4933 103.732 99.9617C108.402 107.43 111.479 115.343 112.396 122.242C113.449 130.17 111.539 136.093 107.018 138.92Z" fill="#4D3FD8"/>
<path d="M70.6432 80.7529C74.8319 78.1335 80.6315 79.0045 86.9728 83.2058C92.665 86.977 98.3338 93.1052 102.934 100.461C107.534 107.817 110.563 115.597 111.461 122.365C112.463 129.906 110.707 135.502 106.519 138.121C102.33 140.741 96.5304 139.87 90.1891 135.668C84.4968 131.897 78.8281 125.769 74.2279 118.413C69.6277 111.057 66.5989 103.278 65.7004 96.5086C64.6989 88.968 66.4545 83.3724 70.6432 80.7529ZM69.6437 79.1546C64.7913 82.1891 62.7274 88.4401 63.8317 96.7567C64.7653 103.786 67.8895 111.832 72.6296 119.412C77.3697 126.992 83.2361 133.324 89.148 137.24C96.1421 141.873 102.666 142.754 107.518 139.719C112.37 136.685 114.434 130.434 113.33 122.117C112.397 115.088 109.272 107.042 104.532 99.4618C99.7921 91.8819 93.9257 85.5505 88.0138 81.6343C81.0198 77.0008 74.4961 76.1202 69.6437 79.1546Z" fill="#212121"/>
<path d="M105.02 135.724C111.622 131.594 109.615 116.478 100.537 101.96C91.458 87.4427 78.7455 79.0211 72.1426 83.1502C65.5397 87.2794 67.5468 102.396 76.6255 116.913C85.7042 131.431 98.4167 139.853 105.02 135.724Z" fill="#212121" stroke="#212121" stroke-width="1.88508" stroke-miterlimit="10" stroke-linecap="round" stroke-linejoin="round"/>
<path d="M91.7756 110.375L94.7451 111.401C94.9643 111.477 95.2074 111.44 95.3941 111.302L97.9226 109.437C98.3931 109.09 99.0571 109.433 99.0462 110.018L98.9879 113.159C98.9836 113.391 99.0939 113.61 99.2825 113.746L101.837 115.574C102.312 115.915 102.191 116.652 101.632 116.822L98.627 117.738C98.4048 117.806 98.2303 117.978 98.1602 118.199L97.2104 121.194C97.0337 121.751 96.2947 121.864 95.96 121.385L94.1605 118.809C94.0275 118.619 93.8093 118.506 93.5774 118.508L90.4357 118.53C89.8514 118.534 89.5159 117.866 89.868 117.4L91.7614 114.893C91.9012 114.708 91.941 114.465 91.8679 114.245L90.8759 111.265C90.6913 110.709 91.2232 110.184 91.7756 110.375Z" fill="#44C1F3" stroke="#212121" stroke-width="1.88508" stroke-miterlimit="10" stroke-linecap="round" stroke-linejoin="round"/>
<path d="M92.5499 67.6108C91.4751 67.0067 90.616 66.4123 89.9336 65.8313C90.4871 66.4 91.3157 67.0069 92.5499 67.6108Z" fill="#725BFF" stroke="#212121" stroke-width="1.88508" stroke-miterlimit="10" stroke-linecap="round" stroke-linejoin="round"/>
<path d="M89.9342 65.831C88.8793 64.7476 88.8239 63.8057 88.9031 63.3093C89.4095 62.529 90.143 61.9163 91.1343 61.6155C95.7212 60.2228 108.183 65.4109 111.207 66.7204C111.493 66.8444 111.802 66.6024 111.748 66.2951C111.439 64.55 110.675 60.2296 110.674 60.2282C110.648 60.0827 109.257 59.7152 109.066 59.6473C108.57 59.4703 108.072 59.2957 107.574 59.1244C106.736 58.8366 105.896 58.5574 105.05 58.2954C103.768 57.8983 102.473 57.5443 101.16 57.2606C99.4242 56.8855 97.6807 56.5239 95.9134 56.3296C94.3266 56.1547 92.6762 56.0834 91.2076 56.8184C90.2478 57.2985 89.4675 58.055 88.7991 58.8865C87.4871 60.6558 86.7203 63.0951 89.9342 65.831Z" fill="#725BFF" stroke="#212121" stroke-width="1.88508" stroke-miterlimit="10" stroke-linecap="round" stroke-linejoin="round"/>
<path d="M103.645 80.2452C103.206 80.6461 102.657 81.0232 102.069 81.3825C102.646 81.0365 103.171 80.6781 103.645 80.2452Z" fill="#725BFF" stroke="#212121" stroke-width="1.88508" stroke-miterlimit="10" stroke-linecap="round" stroke-linejoin="round"/>
<path d="M102.069 81.3833C101.193 81.9088 100.195 82.4073 99.0476 83.094C99.932 82.5643 101.058 82.0011 102.069 81.3833Z" fill="#725BFF" stroke="#212121" stroke-width="1.88508" stroke-miterlimit="10" stroke-linecap="round" stroke-linejoin="round"/>
<path d="M103.674 80.2161C103.697 80.196 103.721 80.178 103.743 80.1575C103.804 80.1026 103.952 79.9506 104.144 79.7502C104.172 79.6592 104.203 79.5696 104.23 79.4788C104.101 79.7317 103.922 79.9838 103.674 80.2161Z" fill="#725BFF" stroke="#212121" stroke-width="1.88508" stroke-miterlimit="10" stroke-linecap="round" stroke-linejoin="round"/>
<path d="M103.675 80.2165C103.922 79.9837 104.101 79.7323 104.232 79.4793C104.283 79.3065 104.34 79.1353 104.386 78.9613C105.41 75.1151 100.695 71.5321 100.695 71.5329C99.7267 70.729 97.8967 69.7162 94.1941 68.317C93.5782 68.0841 93.0363 67.8477 92.5522 67.6113C91.3176 67.0076 90.4894 66.4005 89.9359 65.8318C86.722 63.0959 87.4888 60.6565 88.8008 58.8873C88.6863 59.0295 88.5741 59.1736 88.466 59.319C87.3707 60.7949 86.3569 62.4099 86.3379 64.3055C86.3255 65.5266 86.7021 66.719 87.2629 67.7935C87.4748 68.199 87.7399 68.638 88.0382 69.0679C88.9431 70.3718 90.1025 71.257 91.5171 71.9459C93.0686 72.7016 94.7353 73.1884 96.3034 73.9075C101.543 76.3102 102.366 79.4627 102.368 79.4697C102.503 79.9888 101.068 81.4184 100.72 81.763C100.479 82.0022 100.22 82.2203 99.9549 82.43C100.871 82.0171 101.751 81.536 102.167 81.2819C102.717 80.9525 103.219 80.621 103.675 80.2165Z" fill="#725BFF"/>
<path d="M92.5522 67.6113C93.0363 67.8477 93.5782 68.0841 94.1941 68.317C97.8967 69.7162 99.7267 70.729 100.695 71.5329C100.695 71.5321 105.41 75.1151 104.386 78.9613C104.34 79.1353 104.283 79.3065 104.232 79.4793C104.101 79.7323 103.922 79.9837 103.675 80.2165C103.219 80.621 102.717 80.9525 102.167 81.2819C101.751 81.536 100.871 82.0171 99.9549 82.43C100.22 82.2203 100.479 82.0022 100.72 81.763C101.068 81.4184 102.503 79.9888 102.368 79.4697C102.366 79.4627 101.543 76.3102 96.3034 73.9075C94.7353 73.1884 93.0686 72.7016 91.5171 71.9459C90.1025 71.257 88.9431 70.3718 88.0382 69.0679C87.7399 68.638 87.4748 68.199 87.2629 67.7935C86.7021 66.719 86.3255 65.5266 86.3379 64.3055C86.3569 62.4099 87.3707 60.7949 88.466 59.319C88.5741 59.1736 88.6863 59.0295 88.8008 58.8873C87.4888 60.6565 86.722 63.0959 89.9359 65.8318C90.4894 66.4005 91.3176 67.0076 92.5522 67.6113ZM92.5522 67.6113C92.5591 67.6153 92.5657 67.6195 92.573 67.6233" stroke="#212121" stroke-width="1.88508" stroke-miterlimit="10" stroke-linecap="round" stroke-linejoin="round"/>
<path d="M104.144 79.7506C103.952 79.9512 103.804 80.1026 103.744 80.1578C103.722 80.1784 103.697 80.1964 103.675 80.2165C103.665 80.2262 103.656 80.2361 103.646 80.2457C103.172 80.6786 102.647 81.037 102.07 81.3831C101.059 82.0009 99.9324 82.564 99.0481 83.0937C100.195 82.4064 101.194 81.9083 102.07 81.3831C102.658 81.0237 103.207 80.6463 103.646 80.2457C103.657 80.2363 103.665 80.2262 103.675 80.2165C103.219 80.6213 102.717 80.9525 102.166 81.2826C101.751 81.5363 100.871 82.0177 99.9546 82.4306C99.4559 82.8259 98.9264 83.1826 98.3885 83.5234C92.795 87.0686 85.7281 88.0284 79.2993 89.2212L78.2939 93.7074C78.2939 93.7074 84.6027 93.0488 91.5612 90.9495C94.1471 90.1694 96.7717 89.164 98.9458 87.5227C100.205 86.5716 101.048 85.365 101.938 84.0895C102.611 83.1254 103.227 82.1374 103.683 81.0499C103.861 80.6249 104.008 80.1896 104.144 79.7506Z" fill="#725BFF"/>
<path d="M103.675 80.2165C103.697 80.1964 103.722 80.1784 103.744 80.1578C103.804 80.1026 103.952 79.9512 104.144 79.7506C104.008 80.1896 103.861 80.6249 103.683 81.0499C103.227 82.1374 102.611 83.1254 101.938 84.0895C101.048 85.365 100.205 86.5716 98.9458 87.5227C96.7717 89.164 94.1471 90.1694 91.5612 90.9495C84.6027 93.0488 78.2939 93.7074 78.2939 93.7074L79.2993 89.2212C85.7281 88.0284 92.795 87.0686 98.3885 83.5234C98.9264 83.1826 99.4559 82.8259 99.9546 82.4306C100.871 82.0177 101.751 81.5363 102.166 81.2826C102.717 80.9525 103.219 80.6213 103.675 80.2165ZM103.675 80.2165C103.665 80.2262 103.656 80.2361 103.646 80.2457M103.675 80.2165C103.665 80.2262 103.657 80.2363 103.646 80.2457M103.646 80.2457C103.172 80.6786 102.647 81.037 102.07 81.3831M103.646 80.2457C103.207 80.6463 102.658 81.0237 102.07 81.3831M102.07 81.3831C101.059 82.0009 99.9324 82.564 99.0481 83.0937C100.195 82.4064 101.194 81.9083 102.07 81.3831Z" stroke="#212121" stroke-width="1.88508" stroke-miterlimit="10" stroke-linecap="round" stroke-linejoin="round"/>
<path d="M123.913 114.159C124.134 113.036 123.765 112.371 123.426 111.952C123.053 111.49 122.27 110.968 121.709 110.776C121.522 110.712 121.332 110.656 121.139 110.611C119.459 110.223 118.074 111.107 116.81 112.105C116.161 112.617 115.539 113.164 114.956 113.749C112.229 116.487 109.833 119.543 107.572 122.672C106.874 123.637 106.185 124.609 105.527 125.601C105.527 125.601 103.49 120.817 103.479 120.791C103.417 120.646 103.669 120.403 103.744 120.309C104.709 119.101 105.658 117.877 106.645 116.687C108.785 114.108 111.102 111.575 113.714 109.464C114.948 108.451 116.292 107.49 117.923 107.304C118.99 107.182 120.056 107.389 121.071 107.721C123.136 108.488 125.111 110.112 123.913 114.159Z" fill="#725BFF" stroke="#212121" stroke-width="1.88508" stroke-miterlimit="10" stroke-linecap="round" stroke-linejoin="round"/>
<path d="M120.298 133.722C120.884 133.818 121.551 133.834 122.24 133.814C121.567 133.839 120.931 133.826 120.298 133.722Z" fill="#725BFF" stroke="#212121" stroke-width="1.88508" stroke-miterlimit="10" stroke-linecap="round" stroke-linejoin="round"/>
<path d="M122.24 133.814C123.261 133.776 124.37 133.648 125.706 133.597C124.676 133.636 123.424 133.779 122.24 133.814Z" fill="#725BFF" stroke="#212121" stroke-width="1.88508" stroke-miterlimit="10" stroke-linecap="round" stroke-linejoin="round"/>
<path d="M120.258 133.713C120.228 133.709 120.198 133.707 120.168 133.702C120.088 133.689 119.88 133.643 119.61 133.58C119.537 133.519 119.462 133.461 119.389 133.399C119.637 133.54 119.924 133.653 120.258 133.713Z" fill="#725BFF" stroke="#212121" stroke-width="1.88508" stroke-miterlimit="10" stroke-linecap="round" stroke-linejoin="round"/>
<path d="M120.258 133.713C119.924 133.653 119.636 133.54 119.389 133.399C119.252 133.283 119.11 133.171 118.976 133.05C116.702 131.002 117.147 127.352 118.031 124.749C118.799 122.491 120.31 120.47 121.702 118.567C122.091 118.035 122.416 117.542 122.692 117.079C123.397 115.899 123.759 114.938 123.912 114.159C125.111 110.112 123.136 108.487 121.071 107.722C121.244 107.778 121.417 107.838 121.587 107.901C123.311 108.539 125.042 109.338 126.093 110.916C126.77 111.932 127.106 113.137 127.223 114.343C127.267 114.799 127.285 115.311 127.269 115.834C127.223 117.421 126.736 118.796 125.927 120.145C125.039 121.626 123.909 122.944 122.988 124.402C119.911 129.277 120.943 132.367 120.945 132.374C121.116 132.883 123.099 133.296 123.578 133.395C123.911 133.464 124.247 133.505 124.583 133.536C123.59 133.691 122.59 133.768 122.104 133.782C121.463 133.806 120.861 133.803 120.258 133.713Z" fill="#725BFF"/>
<path d="M122.692 117.079C122.416 117.542 122.091 118.035 121.702 118.567C120.31 120.47 118.799 122.491 118.031 124.749C117.147 127.352 116.702 131.002 118.976 133.05C119.11 133.171 119.252 133.283 119.389 133.399C119.636 133.54 119.924 133.653 120.258 133.713C120.861 133.803 121.463 133.806 122.104 133.782C122.59 133.768 123.59 133.691 124.583 133.536C124.247 133.505 123.911 133.464 123.578 133.395C123.099 133.296 121.116 132.883 120.945 132.374C120.943 132.367 119.911 129.277 122.988 124.402C123.909 122.944 125.039 121.626 125.927 120.145C126.736 118.796 127.223 117.421 127.269 115.834C127.285 115.311 127.267 114.799 127.223 114.343C127.106 113.137 126.77 111.932 126.093 110.916C125.042 109.338 123.311 108.539 121.587 107.901C121.417 107.838 121.244 107.778 121.071 107.722C123.136 108.487 125.111 110.112 123.912 114.159C123.759 114.938 123.397 115.899 122.692 117.079ZM122.692 117.079C122.688 117.086 122.685 117.093 122.682 117.1" stroke="#212121" stroke-width="1.88508" stroke-miterlimit="10" stroke-linecap="round" stroke-linejoin="round"/>
<path d="M119.61 133.58C119.88 133.643 120.088 133.689 120.168 133.702C120.198 133.707 120.228 133.709 120.258 133.714C120.272 133.716 120.284 133.72 120.298 133.722C120.931 133.826 121.567 133.84 122.24 133.815C123.424 133.78 124.675 133.637 125.705 133.598C124.369 133.648 123.26 133.777 122.24 133.815C121.551 133.835 120.884 133.818 120.298 133.722C120.284 133.72 120.272 133.716 120.258 133.714C120.861 133.804 121.463 133.807 122.104 133.783C122.585 133.769 123.567 133.693 124.548 133.542C124.572 133.539 124.596 133.538 124.619 133.54C125.241 133.596 125.867 133.605 126.492 133.597C133.05 133.513 139.433 130.516 145.419 128.018C145.528 127.973 145.653 127.989 145.747 128.06L150.376 131.542C150.651 131.749 150.61 132.011 150.286 132.124C149.173 132.513 148.058 132.894 146.941 133.271C144.296 134.161 141.65 135.057 138.995 135.896C136.307 136.746 133.517 137.239 130.699 137.318C129.602 137.349 128.491 137.335 127.411 137.158C126.166 136.953 124.991 136.479 123.828 136.01C122.737 135.57 121.682 135.078 120.705 134.416C120.325 134.158 119.964 133.873 119.61 133.58Z" fill="#725BFF"/>
<path d="M120.258 133.714C120.228 133.709 120.198 133.707 120.168 133.702C120.088 133.689 119.88 133.643 119.61 133.58C119.964 133.873 120.325 134.158 120.705 134.416C121.682 135.078 122.737 135.57 123.828 136.01C124.991 136.479 126.166 136.953 127.411 137.158C128.491 137.335 129.602 137.349 130.699 137.318C133.517 137.239 136.307 136.746 138.995 135.896C141.65 135.057 144.296 134.161 146.941 133.271C148.058 132.894 149.173 132.513 150.286 132.124C150.61 132.011 150.651 131.749 150.376 131.542L145.747 128.06C145.653 127.989 145.528 127.973 145.419 128.018C139.433 130.516 133.05 133.513 126.492 133.597C125.867 133.605 125.241 133.596 124.619 133.54C124.596 133.538 124.572 133.539 124.548 133.542C123.567 133.693 122.585 133.769 122.104 133.783C121.463 133.807 120.861 133.804 120.258 133.714ZM120.258 133.714C120.272 133.716 120.284 133.72 120.298 133.722M120.298 133.722C120.931 133.826 121.567 133.84 122.24 133.815M120.298 133.722C120.884 133.818 121.551 133.835 122.24 133.815M122.24 133.815C123.424 133.78 124.675 133.637 125.705 133.598C124.369 133.648 123.26 133.777 122.24 133.815Z" stroke="#212121" stroke-width="1.88508" stroke-miterlimit="10" stroke-linecap="round" stroke-linejoin="round"/>
</g>
</g>
<defs>
<filter id="filter0_d_1345_32027" x="15.0128" y="21.3872" width="160.655" height="140.656" filterUnits="userSpaceOnUse" color-interpolation-filters="sRGB">
<feFlood flood-opacity="0" result="BackgroundImageFix"/>
<feColorMatrix in="SourceAlpha" type="matrix" values="0 0 0 0 0 0 0 0 0 0 0 0 0 0 0 0 0 0 127 0" result="hardAlpha"/>
<feOffset dy="0.318"/>
<feGaussianBlur stdDeviation="0.795"/>
<feComposite in2="hardAlpha" operator="out"/>
<feColorMatrix type="matrix" values="0 0 0 0 0 0 0 0 0 0 0 0 0 0 0 0 0 0 0.16 0"/>
<feBlend mode="normal" in2="BackgroundImageFix" result="effect1_dropShadow_1345_32027"/>
<feBlend mode="normal" in="SourceGraphic" in2="effect1_dropShadow_1345_32027" result="shape"/>
</filter>
<clipPath id="clip0_1345_32027">
<rect width="187" height="187" fill="white" transform="translate(0.562988 0.444824)"/>
</clipPath>
<clipPath id="clip1_1345_32027">
<rect width="164.944" height="117.817" fill="white" transform="translate(-12.0962 103.726) rotate(-32.02)"/>
</clipPath>
</defs>
</svg>
