<svg width="51" height="51" viewBox="0 0 51 51" fill="none" xmlns="http://www.w3.org/2000/svg">
<path d="M25.0015 50.0035C38.8096 50.0035 50.0033 38.8099 50.0033 25.0018C50.0033 11.1937 38.8096 0 25.0015 0C11.1934 0 -0.000244141 11.1937 -0.000244141 25.0018C-0.000244141 38.8099 11.1934 50.0035 25.0015 50.0035Z" fill="black"/>
<path d="M19.3147 29.2105H17.5754V20.7896H19.3923L22.0805 24.843L24.6417 20.7896H26.4374V29.2105H24.6981V23.7565L22.1581 27.6406H21.9535L19.3111 23.7353V29.2105H19.3147Z" fill="#725BFF"/>
<path d="M27.6262 20.7897H32.3324V22.3349H29.3866V24.1623H32.0501V25.584H29.3866V27.6619H32.4241V29.2071H27.6262V20.7861V20.7897Z" fill="#725BFF"/>
<circle cx="25" cy="25" r="25" fill="#212222" fill-opacity="0.3"/>
<path d="M17 25.0001L21.9497 29.9499L32.5563 19.3433" stroke="white" stroke-width="2" stroke-linecap="round" stroke-linejoin="round"/>
</svg>
