<svg width="322" height="69" viewBox="0 0 322 69" fill="none" xmlns="http://www.w3.org/2000/svg">
<path d="M2.45696 37.2298C3.63696 34.7198 5.26696 32.5298 7.23696 30.7698C6.57696 21.8298 7.75697 15.5798 10.747 12.1898C12.357 10.3698 14.457 9.37985 17.007 9.24985C20.007 9.09985 22.607 10.0799 24.517 12.0799C25.997 13.6299 27.027 15.7099 27.587 18.2499C28.257 15.8199 29.347 13.5299 31.077 11.8299C33.067 9.85985 35.677 8.87985 38.817 8.90985C42.227 8.95985 45.107 10.1999 47.377 12.5999C51.907 17.3799 53.9369 26.7198 53.4169 40.3698C53.4169 40.3698 53.4169 40.3799 53.4169 40.3899C52.8969 49.7198 50.567 56.5098 46.317 61.1399C41.907 65.9398 35.5569 68.3099 26.8869 68.4099C26.4069 68.4299 25.937 68.4298 25.467 68.4298C19.387 68.4298 14.257 67.1099 10.207 64.4999C5.87696 61.7099 2.90697 57.5298 1.37697 52.0998C-0.09303 47.1098 0.296957 41.8299 2.45696 37.2199V37.2298Z" fill="#725BFF"/>
<path d="M89.3572 44.1898V61.2898H78.3672V17.2898H88.6172V21.8598C91.1472 18.3998 95.0372 16.3098 100.037 16.3098C108.127 16.3098 114.477 23.0998 114.477 32.4798C114.477 41.8598 108.117 49.1398 100.037 49.1398C95.6572 49.1398 91.8872 47.2298 89.3572 44.1998V44.1898ZM96.1472 39.6898C100.097 39.6898 103.117 36.7298 103.117 32.7198C103.117 28.7098 100.097 25.7498 96.1472 25.7498C92.1972 25.7498 89.0472 28.8398 89.0472 32.7198C89.0472 36.5998 92.1972 39.6898 96.1472 39.6898Z" fill="#725BFF"/>
<path d="M152.247 32.7099C152.247 42.2799 144.347 49.5599 133.797 49.5599C123.247 49.5599 115.347 42.2799 115.347 32.7099C115.347 23.1399 123.307 15.8599 133.797 15.8599C144.287 15.8599 152.247 23.1399 152.247 32.7099ZM126.697 32.7099C126.697 36.9699 129.787 40.1199 133.797 40.1199C137.807 40.1199 140.957 36.9699 140.957 32.7099C140.957 28.4499 137.807 25.2999 133.797 25.2999C129.787 25.2999 126.697 28.5699 126.697 32.7099Z" fill="#725BFF"/>
<path d="M165.017 44.1898V61.2898H154.027V17.2898H164.277V21.8598C166.807 18.3998 170.697 16.3098 175.697 16.3098C183.777 16.3098 190.137 23.0998 190.137 32.4798C190.137 41.8598 183.777 49.1398 175.697 49.1398C171.317 49.1398 167.547 47.2298 165.017 44.1998V44.1898ZM171.807 39.6898C175.757 39.6898 178.777 36.7298 178.777 32.7198C178.777 28.7098 175.757 25.7498 171.807 25.7498C167.857 25.7498 164.707 28.8398 164.707 32.7198C164.707 36.5998 167.857 39.6898 171.807 39.6898Z" fill="#725BFF"/>
<path d="M203.157 48.14H192.167V0H202.717V21.54C204.387 19.32 207.777 16.6 212.717 16.6C218.767 16.6 223.637 20.92 223.637 27.96V48.14H212.717V31.29C212.717 27.77 210.747 26.23 208.027 26.23C205.557 26.23 203.157 28.08 203.157 30.86V48.14Z" fill="#725BFF"/>
<path d="M262.217 32.7099C262.217 42.2799 254.317 49.5599 243.767 49.5599C233.217 49.5599 225.317 42.2799 225.317 32.7099C225.317 23.1399 233.277 15.8599 243.767 15.8599C254.257 15.8599 262.217 23.1399 262.217 32.7099ZM236.667 32.7099C236.667 36.9699 239.757 40.1199 243.767 40.1199C247.777 40.1199 250.927 36.9699 250.927 32.7099C250.927 28.4499 247.777 25.2999 243.767 25.2999C239.757 25.2999 236.667 28.5699 236.667 32.7099Z" fill="#725BFF"/>
<path d="M274.987 48.14H263.997V17.28H274.427V24.19C275.357 21.91 278.687 16.97 283.377 16.97H284.487V29.01C283.997 28.82 283.187 28.76 282.517 28.76C277.887 28.76 274.987 31.35 274.987 33.26V48.13V48.14Z" fill="#725BFF"/>
<path d="M305.287 61.29H293.927L298.247 49.25L284.237 17.28H296.637L303.737 36.72L310.217 17.28H321.637L305.277 61.28L305.287 61.29Z" fill="#725BFF"/>
</svg>
