<svg xmlns="http://www.w3.org/2000/svg" width="180" height="180" fill="none" viewBox="0 0 180 180"><g filter="url(#filter0_d_1677_37201)"><path fill="#fff" d="M85.2129 173.691C81.1936 173.691 76.8615 173.218 73.5384 172.803L73.451 172.792C68.4255 172.02 65.5674 168.75 65.8014 164.04C65.807 163.945 65.8155 163.846 65.8267 163.747L67.8477 148.338C67.3544 148.49 66.8386 148.589 66.3087 148.634C65.015 149.257 63.6959 149.573 62.3796 149.573C60.5222 149.573 58.6478 148.941 56.8101 147.693C54.637 146.272 53.1939 143.961 52.6358 141.004C51.9058 137.036 53.9775 133.121 57.791 131.246C57.8868 131.198 57.9206 131.167 57.9235 131.167L69.8404 114.772C69.7192 114.684 69.6008 114.597 69.4796 114.51C64.347 110.682 60.7787 104.487 58.5717 95.5744L58.5576 95.5209C55.5671 82.4624 55.9223 73.2992 59.6484 67.5127C61.6806 64.3559 64.75 62.2786 68.5185 61.5091C69.4993 61.3146 70.4548 61.2188 71.3737 61.2188C73.8428 61.2188 76.1117 61.9009 78.1129 63.2454C78.5442 63.5357 78.9613 63.857 79.3644 64.2093C79.5447 63.8598 79.742 63.5216 79.9534 63.1974C81.7658 60.4071 84.6971 58.6032 88.209 58.1156C88.7699 58.0395 89.3252 58 89.8664 58C92.3129 58 94.5339 58.761 96.4646 60.2661C100.188 63.1636 102.547 68.595 103.655 76.8393C105.56 78.1782 107.232 79.8355 108.638 81.7831C111.637 85.9349 113.066 91.0421 112.694 96.2311L116.434 93.9819C117.054 93.607 117.767 93.4097 118.497 93.4097C119.227 93.4097 119.873 93.5901 120.473 93.9312C121.722 94.6358 122.5 95.9718 122.5 97.4121V101.499C123.159 101.801 123.779 102.201 124.349 102.7C126.375 104.473 127.528 107.294 127.508 110.445C127.508 114.966 125.716 118.343 122.5 120.037V123.605C122.5 125.045 121.722 126.381 120.468 127.089L107.451 134.462C106.643 138.115 105.157 141.244 103.018 143.803C103.725 146.492 104.281 149.739 104.608 153.127C108.663 154.071 114.055 156.216 113.951 162.764V162.868C113.83 165.289 112.801 167.341 110.977 168.798C108.993 170.382 106.104 171.185 102.386 171.188C100.828 171.188 99.1113 171.05 97.2679 170.777C94.7397 172.775 90.8895 173.708 85.2129 173.708H85.2101L85.2129 173.691Z"/></g><path fill="#D4CFFB" d="M75.3227 113.349L61.6442 132.758C58.696 134.686 56.117 136.834 56.4383 140.726C57.1006 144.602 59.5923 146.022 63.5665 145.458L68.1495 143.584L69.2572 139.01L72.5436 142.899L69.7391 165.608L72.2392 168.937L89.6721 169.732C92.5329 168.974 94.8526 167.801 96.1914 165.873L103.198 167.381C107.347 167.328 109.808 166.011 110.011 163.007C109.771 158.517 106.096 156.812 100.884 156.352L98.638 142.688C104.224 136.631 105.38 127.549 103.024 116.069L95.9378 109.245L75.3227 113.349Z"/><path fill="#4A4A4A" d="M62.3796 146.442C61.1281 146.442 59.871 145.991 58.5435 145.086C57.0722 144.136 56.1139 142.56 55.708 140.421C55.2373 137.859 56.6269 135.303 59.1692 134.054C59.7047 133.792 60.1303 133.445 60.4348 133.025L75.3337 112.529C75.6015 112.162 76.1117 112.08 76.4809 112.348C76.8473 112.616 76.929 113.129 76.6613 113.495L61.7623 133.992C61.2972 134.632 60.6687 135.148 59.8908 135.528C58.3321 136.295 56.9313 138.011 57.3202 140.12C57.6415 141.822 58.3405 143 59.4511 143.719C61.2465 144.945 62.7009 145.111 64.3328 144.288C64.8205 144.043 65.3052 143.908 65.7759 143.888C66.4524 143.86 67.0471 143.595 67.453 143.138C67.8307 142.715 68.0054 142.18 67.9603 141.591C67.904 140.847 68.0815 140.091 68.4705 139.406C68.4761 139.395 68.4818 139.387 68.4902 139.375L80.9173 119.614C81.1597 119.231 81.6643 119.116 82.0504 119.358C82.4337 119.6 82.5493 120.105 82.3069 120.491L69.8911 140.235C69.6712 140.63 69.5698 141.058 69.6008 141.47C69.6769 142.498 69.3527 143.479 68.6819 144.232C67.9773 145.024 66.9682 145.486 65.8464 145.531C65.6125 145.54 65.3532 145.616 65.0769 145.757C64.1694 146.216 63.2787 146.444 62.3824 146.444L62.3796 146.442Z"/><path fill="#4A4A4A" d="M95.3573 145.81C95.0614 145.81 94.7739 145.65 94.6273 145.368C94.4188 144.965 94.5738 144.471 94.9768 144.26C104.622 139.246 104.926 125.883 101.127 115.592C100.969 115.167 101.189 114.696 101.612 114.538C102.037 114.383 102.508 114.6 102.666 115.023C106.705 125.967 106.26 140.241 95.7322 145.714C95.611 145.776 95.4814 145.807 95.3545 145.807L95.3573 145.81Z"/><path fill="#4A4A4A" d="M85.2181 170.566C81.6779 170.566 77.7347 170.177 73.9269 169.7C69.5947 169.035 68.8196 166.341 68.9267 164.196C68.9267 164.173 68.9295 164.153 68.9323 164.131L71.7284 142.794C70.8151 141.968 69.5412 140.565 69.1353 138.871C69.0282 138.431 69.3016 137.989 69.7413 137.881C70.181 137.777 70.6235 138.048 70.7306 138.487C70.9871 139.556 71.8608 140.776 73.1264 141.836C73.3406 142.016 73.4505 142.293 73.4139 142.572L70.5643 164.311C70.4656 166.518 71.5733 167.679 74.1523 168.077C81.2833 168.965 91.1765 169.805 94.5081 166.865C95.2916 166.174 95.6721 165.301 95.6721 164.193C95.6721 163.274 95.3847 162.547 94.7956 161.966C93.53 160.72 90.889 160.123 86.9289 160.182C86.6865 160.182 86.4498 160.078 86.2891 159.892C86.1313 159.703 86.0636 159.455 86.1087 159.212C87.0276 154.215 87.0417 150.266 86.1595 145.131C86.0834 144.686 86.3821 144.26 86.8303 144.184C87.2756 144.111 87.7012 144.406 87.7773 144.855C88.637 149.86 88.6765 153.784 87.8929 158.542C91.8163 158.592 94.4573 159.334 95.9456 160.799C96.8531 161.693 97.3126 162.834 97.3097 164.196C97.3097 165.777 96.7319 167.09 95.5904 168.097C93.4934 169.948 89.6742 170.568 85.2152 170.568L85.2181 170.566Z"/><path fill="#4A4A4A" d="M102.391 168.046C100.424 168.046 98.389 167.798 96.6105 167.485C96.1652 167.406 95.8664 166.981 95.9425 166.536C96.0214 166.09 96.447 165.791 96.8924 165.868C102.234 166.803 106.18 166.513 108.003 165.056C108.747 164.461 109.133 163.672 109.184 162.646C109.232 159.63 107.262 158.353 100.754 157.217C100.376 157.153 100.097 156.834 100.075 156.454C99.8237 151.732 99.0542 146.944 98.0141 143.646C97.8789 143.215 98.1184 142.752 98.5497 142.617C98.9809 142.482 99.4432 142.721 99.5785 143.153C100.607 146.422 101.382 151.076 101.675 155.715C106.786 156.645 110.898 157.928 110.822 162.699C110.746 164.23 110.142 165.445 109.023 166.338C107.425 167.615 104.965 168.043 102.386 168.043L102.391 168.046Z"/><path fill="#D4CFFB" d="M99.9766 79.1849C98.5165 67.2764 95.2836 62.3637 89.2011 62.5328C83.0285 63.4855 81.2922 68.604 83.0482 77.9532C81.2443 68.3475 76.2611 64.9821 69.0371 66.0081C61.1704 68.4659 58.6422 77.1865 62.2274 93.0748C64.5696 106.421 71.1172 113.414 81.3289 114.885C92.217 114.51 103.5 112.562 108.052 100C109.915 90.0477 107.248 83.0915 99.9766 79.1821V79.1849Z"/><path fill="#4A4A4A" d="M83.5944 115.748C78.7521 115.748 74.7102 114.505 71.3477 111.999C66.8182 108.62 63.6304 103.002 61.6067 94.82C58.8501 82.7903 59.0784 74.174 62.2803 69.202C63.87 66.7329 66.1784 65.1743 69.1464 64.5683C71.8832 64.0271 74.31 64.4527 76.3704 65.8338C80.0035 68.2747 81.7539 73.2607 82.5966 77.2349C86.6525 76.006 91.2327 75.7975 95.9172 76.7417C99.9421 77.6324 103.556 80.0704 106.106 83.6049C108.778 87.3029 109.993 91.8972 109.531 96.5365C108.643 106.703 101.602 113.324 89.7107 115.167C87.5432 115.553 85.5054 115.745 83.5944 115.745V115.748ZM71.359 65.986C70.753 65.986 70.1216 66.0508 69.4705 66.1805C66.9563 66.6935 65.0003 68.0097 63.6586 70.0927C60.7047 74.6785 60.5525 82.8721 63.202 94.4423C65.1299 102.227 68.1148 107.543 72.3285 110.686C76.6325 113.896 82.2302 114.835 89.4401 113.552C100.689 111.808 107.065 105.872 107.893 96.3871C108.316 92.1367 107.208 87.9427 104.77 84.5689C102.453 81.3613 99.1867 79.1544 95.5705 78.3511C86.6413 76.55 78.1489 79.191 73.4193 85.2425C73.1403 85.6005 72.6245 85.6625 72.2665 85.3834C71.9086 85.1044 71.8466 84.5886 72.1256 84.2306C74.403 81.3162 77.4724 79.1318 81.0239 77.7733C80.2628 74.0725 78.6873 69.3768 75.4487 67.2008C74.2452 66.3919 72.8754 65.986 71.3533 65.986H71.359Z"/><path fill="#4A4A4A" d="M99.9169 79.5827C99.5054 79.5827 99.1503 79.2726 99.1024 78.8527C98.2596 71.3271 96.3345 66.2001 93.5385 64.0213C92.194 62.9728 90.6664 62.5839 88.8625 62.8319C86.6837 63.1335 85.0292 64.1284 83.9525 65.7858C82.2529 68.4042 82.1063 72.5785 83.541 77.542C83.6678 77.9761 83.417 78.4327 82.9801 78.5595C82.5432 78.6836 82.0894 78.4355 81.9626 77.9986C80.3701 72.4911 80.5815 67.9589 82.5742 64.8923C83.9046 62.846 85.9988 61.572 88.637 61.2056C90.8693 60.8984 92.8564 61.4113 94.5447 62.7248C97.7438 65.2136 99.8239 70.5773 100.729 78.6666C100.779 79.1176 100.455 79.5235 100.004 79.5742C99.9733 79.577 99.9423 79.5799 99.9113 79.5799L99.9169 79.5827Z"/><path fill="#4A4A4A" d="M98.8577 92.9756C99.9349 92.9756 100.808 92.1024 100.808 91.0252C100.808 89.948 99.9349 89.0747 98.8577 89.0747C97.7805 89.0747 96.9072 89.948 96.9072 91.0252C96.9072 92.1024 97.7805 92.9756 98.8577 92.9756Z"/><path fill="#4A4A4A" d="M90.4241 94.5711C91.5013 94.5711 92.3745 93.6978 92.3745 92.6206C92.3745 91.5434 91.5013 90.6702 90.4241 90.6702C89.3469 90.6702 88.4736 91.5434 88.4736 92.6206C88.4736 93.6978 89.3469 94.5711 90.4241 94.5711Z"/><path fill="#fff" d="M118.5 97.4038L99.6104 108.76V134.296L118.5 123.594V97.4038Z"/><path fill="#4A4A4A" d="M99.6105 135.173C99.4583 135.173 99.3061 135.134 99.1679 135.055C98.8974 134.897 98.7339 134.61 98.7339 134.297V108.761C98.7339 108.453 98.8945 108.169 99.1595 108.008L118.05 96.6548C118.32 96.4913 118.658 96.4857 118.932 96.6435C119.208 96.7985 119.377 97.0917 119.377 97.4073V123.598C119.377 123.913 119.208 124.204 118.932 124.361L100.042 135.061C99.9064 135.137 99.7598 135.173 99.6105 135.173ZM100.487 109.257V132.795L117.624 123.087V98.9576L100.487 109.257Z"/><path fill="#D4CFFB" d="M118.847 104.862C121.623 104.47 123.528 107.074 123.509 110.409C123.509 113.427 122.516 116.412 118.847 117.091C113.232 117.514 113.232 105.524 118.847 104.862Z"/><path fill="#4A4A4A" d="M118.557 117.98C115.986 117.98 114.137 115.826 113.807 112.388C113.441 108.594 115.183 104.42 118.734 103.991C120.062 103.805 121.293 104.169 122.294 105.045C123.636 106.218 124.399 108.177 124.385 110.415C124.385 114.693 122.525 117.301 119.008 117.954C118.977 117.96 118.946 117.966 118.915 117.966C118.793 117.974 118.675 117.98 118.559 117.98H118.557ZM119.396 105.696C119.256 105.696 119.115 105.708 118.968 105.727C118.962 105.727 118.954 105.727 118.948 105.727C116.491 106.018 115.27 109.321 115.549 112.216C115.744 114.237 116.674 116.334 118.734 116.218C121.355 115.711 122.629 113.808 122.629 110.406C122.641 108.698 122.083 107.188 121.138 106.362C120.631 105.919 120.048 105.694 119.396 105.694V105.696Z"/><defs><filter id="filter0_d_1677_37201" width="82.138" height="122.828" x="48.931" y="55.033" color-interpolation-filters="sRGB" filterUnits="userSpaceOnUse"><feFlood flood-opacity="0" result="BackgroundImageFix"/><feColorMatrix in="SourceAlpha" result="hardAlpha" type="matrix" values="0 0 0 0 0 0 0 0 0 0 0 0 0 0 0 0 0 0 127 0"/><feMorphology in="SourceAlpha" operator="dilate" radius=".593" result="effect1_dropShadow_1677_37201"/><feOffset dy=".593"/><feGaussianBlur stdDeviation="1.483"/><feComposite in2="hardAlpha" operator="out"/><feColorMatrix type="matrix" values="0 0 0 0 0 0 0 0 0 0 0 0 0 0 0 0 0 0 0.16 0"/><feBlend in2="BackgroundImageFix" mode="normal" result="effect1_dropShadow_1677_37201"/><feBlend in="SourceGraphic" in2="effect1_dropShadow_1677_37201" mode="normal" result="shape"/></filter></defs></svg>