<svg xmlns="http://www.w3.org/2000/svg" width="50" height="50" fill="none" viewBox="0 0 50 50"><g clip-path="url(#clip0_1333_31717)"><path fill="#000" d="M25.0018 50.0034C38.8099 50.0034 50.0035 38.8097 50.0035 25.0017C50.0035 11.1936 38.8099 0 25.0018 0C11.1937 0 0 11.1936 0 25.0017C0 38.8097 11.1937 50.0034 25.0018 50.0034Z"/><path fill="#FF5069" d="M12.9894 20.9447V27.5346H15.794V29.0587H11.2925V20.9482H12.9894V20.9447Z"/><path fill="#FF5069" d="M25.1394 24.9911C25.1394 27.383 23.1603 29.3197 20.6696 29.3197C18.179 29.3197 16.1787 27.383 16.1787 24.9911C16.1787 22.5992 18.1472 20.6871 20.6696 20.6871C23.192 20.6871 25.1394 22.6098 25.1394 24.9911ZM17.8756 24.9911C17.8756 26.5116 19.0927 27.7745 20.6696 27.7745C22.2466 27.7745 23.4425 26.5116 23.4425 24.9911C23.4425 23.4706 22.2148 22.2288 20.6696 22.2288C19.1245 22.2288 17.8756 23.4777 17.8756 24.9911Z"/><path fill="#FF5069" d="M30.1556 29.0551H28.3388L25.2837 20.9447H27.1005L29.2948 26.9914L31.4927 20.9447H33.2319L30.1556 29.0551Z"/><path fill="#FF5069" d="M34.086 20.9447H38.6193V22.4334H35.7794V24.1938H38.3441V25.5626H35.7794V27.5629H38.704V29.0516H34.0825V20.9411L34.086 20.9447Z"/></g><defs><clipPath id="clip0_1333_31717"><rect width="50" height="50" fill="#fff"/></clipPath></defs></svg>