<svg width="25" height="25" viewBox="0 0 25 25" fill="none" xmlns="http://www.w3.org/2000/svg">
<path d="M8.70668 7.09348V4.89348C8.70668 4.41609 8.88729 3.95825 9.20879 3.62068C9.53028 3.28312 9.96631 3.09348 10.421 3.09348H13.8495C14.3042 3.09348 14.7402 3.28312 15.0617 3.62068C15.3832 3.95825 15.5638 4.41609 15.5638 4.89348V7.09348M19.1353 7.09348L18.1353 19.2935C18.1353 19.7709 17.9546 20.2287 17.6332 20.5663C17.3117 20.9038 16.8756 21.0935 16.421 21.0935H7.84954C7.39488 21.0935 6.95885 20.9038 6.63736 20.5663C6.31587 20.2287 6.13525 19.7709 6.13525 19.2935L5.13525 7.09348H19.1353Z" stroke="#212121" stroke-width="2" stroke-linecap="round" stroke-linejoin="round"/>
<path d="M4.13525 7.09348H5.91303H20.1353" stroke="#212121" stroke-width="2" stroke-linecap="round" stroke-linejoin="round"/>
</svg>
