<svg xmlns="http://www.w3.org/2000/svg" width="50" height="50" fill="none" viewBox="0 0 50 50"><g clip-path="url(#clip0_3730_56283)"><path fill="#000" d="M25.0018 50.0035C38.8099 50.0035 50.0035 38.8099 50.0035 25.0018C50.0035 11.1937 38.8099 0 25.0018 0C11.1937 0 0 11.1937 0 25.0018C0 38.8099 11.1937 50.0035 25.0018 50.0035Z"/><path fill="#80E4A5" d="M6.05029 20.7897H11.0281V22.3349H7.81068V24.3881H10.6541V25.9227H7.81068V29.2071H6.05029V20.7861V20.7897Z"/><path fill="#80E4A5" d="M17.0113 27.8239H13.4094L12.8908 29.2139H11.074L14.369 20.793H16.1082L19.4032 29.2139H17.5193L17.0113 27.8239ZM16.4927 26.434L15.2157 22.9591L13.928 26.434H16.4892H16.4927Z"/><path fill="#80E4A5" d="M21.7527 29.2105H20.0134V20.7896H21.8303L24.5185 24.843L27.0797 20.7896H28.8753V29.2105H27.1361V23.7565L24.5961 27.6406H24.3915L21.7491 23.7353V29.2105H21.7527Z"/><path fill="#80E4A5" d="M30.0713 20.7896H31.8211V29.2105H30.0713V20.7896Z"/><path fill="#80E4A5" d="M34.7809 20.7896V27.63H37.6949V29.2105H33.0205V20.7896H34.7809Z"/><path fill="#80E4A5" d="M41.7449 26.5257V29.2139H39.9951V26.5257L37.0952 20.793H39.0038L40.8876 24.8676L42.8738 20.793H44.6589L41.7449 26.5257Z"/></g><defs><clipPath id="clip0_3730_56283"><rect width="50" height="50" fill="#fff"/></clipPath></defs></svg>