<svg width="50" height="50" viewBox="0 0 50 50" fill="none" xmlns="http://www.w3.org/2000/svg">
<g clip-path="url(#clip0_1333_31695)">
<path d="M25.0018 50.0034C38.8099 50.0034 50.0035 38.8097 50.0035 25.0017C50.0035 11.1936 38.8099 0 25.0018 0C11.1937 0 0 11.1936 0 25.0017C0 38.8097 11.1937 50.0034 25.0018 50.0034Z" fill="black"/>
<path d="M10.894 17.8296C10.4847 17.5685 9.98379 17.438 9.45462 17.438C8.10698 17.438 7.031 18.5069 7.031 19.7593C7.031 21.0117 8.10698 22.1159 9.45462 22.1159C9.98379 22.1159 10.4847 21.9854 10.894 21.7243V23.1249C10.4389 23.3401 9.92735 23.4494 9.36995 23.4494C7.18975 23.4494 5.58105 21.7984 5.58105 19.7629C5.58105 17.7273 7.18622 16.0939 9.36995 16.0939C9.92735 16.0939 10.4283 16.2139 10.894 16.4291V17.8226V17.8296Z" fill="#80E4A5"/>
<path d="M19.3184 19.7699C19.3184 21.8125 17.6285 23.4635 15.5013 23.4635C13.374 23.4635 11.6665 21.809 11.6665 19.7699C11.6665 17.7308 13.3458 16.0939 15.5013 16.0939C17.6568 16.0939 19.3184 17.7379 19.3184 19.7699ZM13.1164 19.7699C13.1164 21.0681 14.1572 22.1477 15.5013 22.1477C16.8454 22.1477 17.8684 21.0717 17.8684 19.7699C17.8684 18.4681 16.8207 17.4133 15.5013 17.4133C14.1818 17.4133 13.1164 18.4823 13.1164 19.7699Z" fill="#80E4A5"/>
<path d="M21.7454 16.3162V21.9431H24.1408V23.2413H20.2954V16.3162H21.7454Z" fill="#80E4A5"/>
<path d="M26.4831 16.3162V21.9431H28.8785V23.2413H25.0332V16.3162H26.4831Z" fill="#80E4A5"/>
<path d="M29.771 16.3162H33.6446V17.5897H31.2209V19.0926H33.4117V20.2603H31.2209V21.9678H33.7186V23.2413H29.771V16.3162Z" fill="#80E4A5"/>
<path d="M39.8364 17.8296C39.4271 17.5685 38.9262 17.438 38.397 17.438C37.0494 17.438 35.9734 18.5069 35.9734 19.7593C35.9734 21.0117 37.0494 22.1159 38.397 22.1159C38.9262 22.1159 39.4271 21.9854 39.8364 21.7243V23.1249C39.3813 23.3401 38.8697 23.4494 38.3123 23.4494C36.1321 23.4494 34.5234 21.7984 34.5234 19.7629C34.5234 17.7273 36.1286 16.0939 38.3123 16.0939C38.8697 16.0939 39.3707 16.2139 39.8364 16.4291V17.8226V17.8296Z" fill="#80E4A5"/>
<path d="M41.7731 17.6074H40.5771V16.3162H44.419V17.6074H43.223V23.2413H41.7731V17.6074Z" fill="#80E4A5"/>
<path d="M13.4585 34.3892H10.9502V27.4641H13.2609C14.8485 27.4641 15.3882 28.2543 15.3882 29.2562C15.3882 29.8207 15.0919 30.371 14.5698 30.7309C15.2577 31.0836 15.6563 31.7328 15.6563 32.4842C15.6563 33.4579 14.979 34.3857 13.455 34.3857L13.4585 34.3892ZM12.4001 28.6248V30.3322H12.9117C13.6525 30.3322 14.09 29.99 14.09 29.4503C14.0794 28.9599 13.8219 28.6248 12.9399 28.6248H12.4001ZM12.4001 31.3553V33.2321H13.0422C13.9418 33.2321 14.2099 32.8334 14.2099 32.3219C14.2099 31.7081 13.783 31.3553 13.021 31.3553H12.4001Z" fill="#80E4A5"/>
<path d="M24.0913 30.9178C24.0913 32.9604 22.4015 34.6115 20.2742 34.6115C18.1469 34.6115 16.4395 32.9604 16.4395 30.9178C16.4395 28.8752 18.1187 27.2418 20.2742 27.2418C22.4297 27.2418 24.0913 28.8858 24.0913 30.9178ZM17.8894 30.9178C17.8894 32.2161 18.9301 33.2956 20.2742 33.2956C21.6183 33.2956 22.6414 32.2196 22.6414 30.9178C22.6414 29.6161 21.5936 28.5612 20.2742 28.5612C18.9548 28.5612 17.8894 29.6302 17.8894 30.9178Z" fill="#80E4A5"/>
<path d="M32.4878 30.9178C32.4878 32.9604 30.798 34.6115 28.6707 34.6115C26.5434 34.6115 24.8359 32.9604 24.8359 30.9178C24.8359 28.8752 26.5152 27.2418 28.6707 27.2418C30.8262 27.2418 32.4878 28.8858 32.4878 30.9178ZM26.2859 30.9178C26.2859 32.2161 27.3266 33.2956 28.6707 33.2956C30.0148 33.2956 31.0379 32.2196 31.0379 30.9178C31.0379 29.6161 29.9901 28.5612 28.6707 28.5612C27.3513 28.5612 26.2859 29.6302 26.2859 30.9178Z" fill="#80E4A5"/>
<path d="M35.4722 31.4823L34.9148 32.142V34.3892H33.4648V27.4641H34.9148V30.2017L37.2079 27.4641H38.9718L36.4564 30.3992L39.3422 34.3927H37.5712L35.4722 31.4858V31.4823Z" fill="#80E4A5"/>
</g>
<defs>
<clipPath id="clip0_1333_31695">
<rect width="50" height="49.9998" fill="white"/>
</clipPath>
</defs>
</svg>
