<svg width="44" height="44" viewBox="0 0 44 44" fill="none" xmlns="http://www.w3.org/2000/svg">
<path d="M14.7635 23.6711C14.776 21.462 17.9201 19.6889 21.786 19.7107C25.652 19.7326 28.7758 21.5411 28.7633 23.7502" stroke="#B8B9BE" stroke-width="2" stroke-linecap="round" stroke-linejoin="round"/>
<path d="M21.8087 15.7108C24.5701 15.7264 26.8212 13.5005 26.8368 10.7391C26.8524 7.97774 24.6265 5.72656 21.8652 5.71096C19.1038 5.69537 16.8526 7.92126 16.837 10.6826C16.8214 13.444 19.0473 15.6952 21.8087 15.7108Z" stroke="#B8B9BE" stroke-width="2" stroke-linecap="round" stroke-linejoin="round"/>
<path d="M17.7662 32.1101L17.7264 39.1647L12.6054 39.1358L12.6452 32.0812L17.7662 32.1101ZM14.0886 37.9605L16.2448 37.9727L16.2713 33.2736L14.1151 33.2614L14.0886 37.9605ZM19.1648 41.7744L19.225 31.1105L20.725 31.119L20.7023 35.1385L22.2726 35.1473L22.2656 36.3895L20.6953 36.3806L20.6648 41.7829L19.1648 41.7744ZM31.3235 31.1789L31.2632 41.8662L29.7515 41.8576L29.8118 31.1703L31.3235 31.1789ZM22.6847 35.677C22.692 33.3508 23.8897 31.8869 25.5303 31.8961C27.1358 31.9052 28.3228 33.3826 28.3096 35.7088C28.2964 38.0525 27.0928 39.5106 25.4874 39.5015C23.8468 39.4922 22.6656 38.0207 22.6847 35.677ZM24.1261 35.6851C24.1113 37.273 24.663 38.1433 25.495 38.1421C26.3036 38.1526 26.8534 37.2885 26.8682 35.7006C26.8713 34.1186 26.3313 33.2483 25.5227 33.2438C24.6907 33.2391 24.1292 34.1031 24.1261 35.6851Z" fill="#B8B9BE"/>
</svg>
