<svg xmlns="http://www.w3.org/2000/svg" width="50" height="50" fill="none" viewBox="0 0 50 50"><g clip-path="url(#clip0_1333_31723)"><path fill="#000" d="M25.0018 50.0034C38.8099 50.0034 50.0035 38.8097 50.0035 25.0017C50.0035 11.1936 38.8099 0 25.0018 0C11.1937 0 0 11.1936 0 25.0017C0 38.8097 11.1937 50.0034 25.0018 50.0034Z"/><path fill="#F6D756" d="M4.77637 21.0435H9.47544V22.504H6.43798V24.4443H9.12266V25.8942H6.43798V28.9952H4.77637V21.047V21.0435Z"/><path fill="#F6D756" d="M12.1605 26.1659H12.0547V28.9881H10.3931V21.0399H12.5345C14.1432 21.0399 15.5402 21.7102 15.5402 23.6294C15.5402 24.7477 14.8381 25.4956 13.9315 25.8766L16.3163 28.9881H14.3231L12.1605 26.1659ZM12.0547 22.5216V24.8429H12.5768C13.3847 24.8429 13.8962 24.3949 13.8962 23.6505C13.8962 22.9591 13.4058 22.5216 12.5768 22.5216H12.0547Z"/><path fill="#F6D756" d="M17.0464 21.0435H18.6974V28.9916H17.0464V21.0435Z"/><path fill="#F6D756" d="M19.8263 21.0435H24.2678V22.504H21.4879V24.2291H24.0032V25.5697H21.4879V27.5311H24.3525V28.9916H19.8228V21.0435H19.8263Z"/><path fill="#F6D756" d="M27.0513 23.8234V28.9916H25.3896V21.0435H27.0089L30.7273 26.1905V21.0435H32.3783V28.9916H30.7908L27.0513 23.8234Z"/><path fill="#F6D756" d="M33.5 21.0435H35.779C37.9415 21.0435 39.9454 22.2994 39.9454 25.0052C39.9454 27.711 37.9733 28.9881 35.8001 28.9881H33.5V21.0399V21.0435ZM35.1616 27.4994H35.8531C37.1407 27.4994 38.2837 26.6562 38.2837 25.0087C38.2837 23.3612 37.1443 22.5463 35.8531 22.5357H35.1616V27.4994Z"/><path fill="#F6D756" d="M44.7785 22.5745C44.3939 22.384 43.8295 22.2323 43.3285 22.2323C42.5948 22.2323 42.2949 22.5322 42.2949 22.8709C42.2949 23.3083 42.69 23.6152 43.4767 24.2996C44.775 25.418 45.223 26.0988 45.223 26.9208C45.223 28.2931 44.0094 29.1151 42.4431 29.1151C41.8363 29.1151 40.9931 28.9775 40.5557 28.7976L40.5768 27.3265C41.046 27.5593 41.7798 27.764 42.4536 27.764C43.1275 27.764 43.5508 27.3794 43.5508 26.9667C43.5508 26.5186 43.1663 26.1235 42.3055 25.4109C41.039 24.3349 40.5698 23.8022 40.5698 22.885C40.5698 21.8513 41.4023 20.8812 43.2439 20.8812C43.7448 20.8812 44.341 20.9553 44.7996 21.1246L44.7785 22.5745Z"/></g><defs><clipPath id="clip0_1333_31723"><rect width="50" height="50" fill="#fff"/></clipPath></defs></svg>