<svg xmlns="http://www.w3.org/2000/svg" width="25" height="25" fill="none" viewBox="0 0 25 25"><path stroke="#212121" stroke-linecap="round" stroke-linejoin="round" stroke-width="2" d="M12.1353 15.0935C13.7921 15.0935 15.1353 13.7503 15.1353 12.0935C15.1353 10.4366 13.7921 9.09348 12.1353 9.09348C10.4784 9.09348 9.13525 10.4366 9.13525 12.0935C9.13525 13.7503 10.4784 15.0935 12.1353 15.0935Z"/><path stroke="#212121" stroke-linecap="round" stroke-linejoin="round" stroke-width="2" d="M18.8625 14.8207C18.7415 15.0949 18.7054 15.3991 18.7589 15.694C18.8124 15.9889 18.9529 16.261 19.1625 16.4753L19.2171 16.5298C19.3861 16.6987 19.5202 16.8992 19.6117 17.1199C19.7032 17.3407 19.7503 17.5773 19.7503 17.8162C19.7503 18.0551 19.7032 18.2917 19.6117 18.5125C19.5202 18.7332 19.3861 18.9337 19.2171 19.1026C19.0482 19.2716 18.8477 19.4057 18.627 19.4972C18.4062 19.5887 18.1696 19.6358 17.9307 19.6358C17.6918 19.6358 17.4552 19.5887 17.2345 19.4972C17.0137 19.4057 16.8132 19.2716 16.6443 19.1026L16.5898 19.048C16.3755 18.8384 16.1034 18.6979 15.8085 18.6444C15.5136 18.5909 15.2095 18.627 14.9353 18.748C14.6664 18.8633 14.4371 19.0546 14.2755 19.2985C14.114 19.5424 14.0273 19.8282 14.0262 20.1207V20.2753C14.0262 20.7575 13.8346 21.22 13.4936 21.5609C13.1527 21.9019 12.6902 22.0935 12.208 22.0935C11.7258 22.0935 11.2633 21.9019 10.9223 21.5609C10.5814 21.22 10.3898 20.7575 10.3898 20.2753V20.1935C10.3828 19.8926 10.2854 19.6007 10.1103 19.3559C9.93517 19.1111 9.69047 18.9246 9.40798 18.8207C9.13378 18.6997 8.82962 18.6636 8.53472 18.7171C8.23981 18.7706 7.96769 18.9112 7.75344 19.1207L7.69889 19.1753C7.53003 19.3443 7.32951 19.4784 7.10878 19.5699C6.88806 19.6614 6.65146 19.7085 6.41253 19.7085C6.17359 19.7085 5.937 19.6614 5.71627 19.5699C5.49555 19.4784 5.29502 19.3443 5.12616 19.1753C4.95711 19.0064 4.82301 18.8059 4.73151 18.5852C4.64001 18.3645 4.59291 18.1279 4.59291 17.8889C4.59291 17.65 4.64001 17.4134 4.73151 17.1927C4.82301 16.972 4.95711 16.7714 5.12616 16.6026L5.18071 16.548C5.39029 16.3338 5.53088 16.0616 5.58435 15.7667C5.63782 15.4718 5.60172 15.1677 5.48071 14.8935C5.36547 14.6246 5.17412 14.3953 4.93022 14.2338C4.68632 14.0722 4.40051 13.9856 4.10798 13.9844H3.95344C3.47122 13.9844 3.00876 13.7928 2.66779 13.4519C2.32681 13.1109 2.13525 12.6484 2.13525 12.1662C2.13525 11.684 2.32681 11.2215 2.66779 10.8806C3.00876 10.5396 3.47122 10.348 3.95344 10.348H4.03525C4.33616 10.341 4.62799 10.2436 4.8728 10.0685C5.11761 9.89339 5.30409 9.64869 5.40798 9.3662C5.52899 9.09201 5.56509 8.78785 5.51162 8.49294C5.45815 8.19804 5.31756 7.92591 5.10798 7.71166L5.05344 7.65711C4.88439 7.48825 4.75028 7.28773 4.65878 7.067C4.56728 6.84628 4.52019 6.60969 4.52019 6.37075C4.52019 6.13181 4.56728 5.89522 4.65878 5.67449C4.75028 5.45377 4.88439 5.25324 5.05344 5.08438C5.2223 4.91534 5.42282 4.78123 5.64354 4.68973C5.86427 4.59823 6.10086 4.55114 6.3398 4.55114C6.57874 4.55114 6.81533 4.59823 7.03605 4.68973C7.25678 4.78123 7.4573 4.91534 7.62616 5.08438L7.68071 5.13893C7.89496 5.34851 8.16709 5.4891 8.46199 5.54257C8.7569 5.59604 9.06106 5.55994 9.33525 5.43893H9.40798C9.67686 5.32369 9.90618 5.13234 10.0677 4.88844C10.2292 4.64454 10.3159 4.35874 10.3171 4.0662V3.91166C10.3171 3.42945 10.5086 2.96698 10.8496 2.62601C11.1906 2.28503 11.653 2.09348 12.1353 2.09348C12.6175 2.09348 13.0799 2.28503 13.4209 2.62601C13.7619 2.96698 13.9534 3.42945 13.9534 3.91166V3.99348C13.9546 4.28601 14.0413 4.57182 14.2028 4.81572C14.3643 5.05962 14.5936 5.25096 14.8625 5.3662C15.1367 5.48722 15.4409 5.52331 15.7358 5.46984C16.0307 5.41637 16.3028 5.27578 16.5171 5.0662L16.5716 5.01166C16.7405 4.84261 16.941 4.7085 17.1617 4.617C17.3825 4.5255 17.619 4.47841 17.858 4.47841C18.0969 4.47841 18.3335 4.5255 18.5542 4.617C18.775 4.7085 18.9755 4.84261 19.1443 5.01166C19.3134 5.18052 19.4475 5.38104 19.539 5.60177C19.6305 5.82249 19.6776 6.05908 19.6776 6.29802C19.6776 6.53696 19.6305 6.77355 19.539 6.99428C19.4475 7.215 19.3134 7.41552 19.1443 7.58438L19.0898 7.63893C18.8802 7.85318 18.7396 8.12531 18.6862 8.42021C18.6327 8.71512 18.6688 9.01928 18.7898 9.29348V9.3662C18.905 9.63508 19.0964 9.8644 19.3403 10.0259C19.5842 10.1874 19.87 10.2741 20.1625 10.2753H20.3171C20.7993 10.2753 21.2617 10.4669 21.6027 10.8078C21.9437 11.1488 22.1353 11.6113 22.1353 12.0935C22.1353 12.5757 21.9437 13.0381 21.6027 13.3791C21.2617 13.7201 20.7993 13.9117 20.3171 13.9117H20.2353C19.9427 13.9128 19.6569 13.9995 19.413 14.161C19.1691 14.3226 18.9778 14.5519 18.8625 14.8207Z"/></svg>